G04*
G04 #@! TF.GenerationSoftware,Altium Limited,Altium Designer,19.0.15 (446)*
G04*
G04 Layer_Color=8388736*
%FSLAX44Y44*%
%MOMM*%
G71*
G01*
G75*
%ADD139C,0.6096*%
%ADD140C,1.8000*%
%ADD141R,0.3800X0.3000*%
%ADD142R,0.3000X0.7700*%
%ADD143R,0.8032X0.8032*%
%ADD144R,0.8532X0.8032*%
%ADD145C,0.4032*%
%ADD146R,0.8032X0.8532*%
%ADD147R,0.8532X0.6032*%
%ADD148R,0.8032X0.8032*%
%ADD149R,0.7032X0.8032*%
G04:AMPARAMS|DCode=150|XSize=1.2032mm|YSize=1.2032mm|CornerRadius=0.3516mm|HoleSize=0mm|Usage=FLASHONLY|Rotation=180.000|XOffset=0mm|YOffset=0mm|HoleType=Round|Shape=RoundedRectangle|*
%AMROUNDEDRECTD150*
21,1,1.2032,0.5000,0,0,180.0*
21,1,0.5000,1.2032,0,0,180.0*
1,1,0.7032,-0.2500,0.2500*
1,1,0.7032,0.2500,0.2500*
1,1,0.7032,0.2500,-0.2500*
1,1,0.7032,-0.2500,-0.2500*
%
%ADD150ROUNDEDRECTD150*%
%ADD151R,1.0032X0.8532*%
%ADD152R,0.8532X1.0032*%
%ADD153R,2.9232X1.7032*%
%ADD154R,4.9232X1.7032*%
%ADD155R,2.5032X1.2032*%
%ADD156R,6.7032X5.2032*%
%ADD157R,2.7032X1.7032*%
%ADD158R,4.7532X2.3032*%
%ADD159R,1.3032X1.2032*%
%ADD160R,3.2032X1.2032*%
%ADD161R,0.7032X0.9032*%
%ADD162R,1.0032X0.4732*%
%ADD163R,1.1032X0.4732*%
%ADD164R,0.6032X0.8532*%
%ADD165R,1.9332X0.6032*%
%ADD166R,1.7032X1.0032*%
%ADD167R,0.5032X0.8032*%
%ADD168C,0.4232*%
%ADD169R,0.8532X0.4532*%
%ADD170R,0.5532X0.9532*%
%ADD171R,0.5032X0.8532*%
%ADD172R,2.1032X2.7032*%
%ADD173R,0.7532X0.6032*%
%ADD174R,1.2032X1.8532*%
%ADD175R,1.7532X1.2032*%
%ADD176R,4.0032X2.2332*%
%ADD177R,1.3532X1.2532*%
%ADD178R,0.5032X0.8332*%
%ADD179R,2.9032X0.9032*%
%ADD180R,0.8332X0.5032*%
G04:AMPARAMS|DCode=181|XSize=1.2032mm|YSize=1.2032mm|CornerRadius=0.3516mm|HoleSize=0mm|Usage=FLASHONLY|Rotation=90.000|XOffset=0mm|YOffset=0mm|HoleType=Round|Shape=RoundedRectangle|*
%AMROUNDEDRECTD181*
21,1,1.2032,0.5000,0,0,90.0*
21,1,0.5000,1.2032,0,0,90.0*
1,1,0.7032,0.2500,0.2500*
1,1,0.7032,0.2500,-0.2500*
1,1,0.7032,-0.2500,-0.2500*
1,1,0.7032,-0.2500,0.2500*
%
%ADD181ROUNDEDRECTD181*%
%ADD182R,0.9532X0.5532*%
%ADD183C,0.2032*%
%ADD184C,1.7032*%
%ADD185R,1.7032X1.7032*%
%ADD186O,1.3032X1.6532*%
%ADD187O,2.5032X1.4032*%
%ADD188O,2.8032X1.5032*%
%ADD189C,1.7272*%
%ADD190C,3.4032*%
G36*
X773287Y381713D02*
X773417Y381687D01*
X773543Y381645D01*
X773663Y381586D01*
X773774Y381512D01*
X773874Y381424D01*
X773962Y381324D01*
X774036Y381213D01*
X774094Y381093D01*
X774137Y380967D01*
X774163Y380837D01*
X774172Y380704D01*
Y353204D01*
X774163Y353071D01*
X774137Y352940D01*
X774094Y352814D01*
X774036Y352695D01*
X773962Y352584D01*
X773874Y352484D01*
X773774Y352396D01*
X773663Y352322D01*
X773543Y352263D01*
X773417Y352220D01*
X773287Y352194D01*
X773154Y352186D01*
X758504D01*
X758371Y352194D01*
X758240Y352220D01*
X758114Y352263D01*
X757995Y352322D01*
X757884Y352396D01*
X757784Y352484D01*
X757696Y352584D01*
X757622Y352695D01*
X757563Y352814D01*
X757520Y352940D01*
X757494Y353071D01*
X757486Y353204D01*
Y354186D01*
X756204D01*
X756071Y354194D01*
X755940Y354220D01*
X755814Y354263D01*
X755695Y354322D01*
X755584Y354396D01*
X755484Y354484D01*
X755396Y354584D01*
X755322Y354695D01*
X755263Y354814D01*
X755220Y354940D01*
X755194Y355071D01*
X755186Y355204D01*
Y378704D01*
X755194Y378837D01*
X755220Y378967D01*
X755263Y379094D01*
X755322Y379213D01*
X755396Y379324D01*
X755484Y379424D01*
X755584Y379512D01*
X755695Y379586D01*
X755814Y379645D01*
X755940Y379687D01*
X756071Y379713D01*
X756204Y379722D01*
X757436D01*
Y380704D01*
X757444Y380837D01*
X757470Y380967D01*
X757513Y381093D01*
X757572Y381213D01*
X757646Y381324D01*
X757734Y381424D01*
X757834Y381512D01*
X757945Y381586D01*
X758064Y381645D01*
X758190Y381687D01*
X758321Y381713D01*
X758454Y381722D01*
X773154D01*
X773287Y381713D01*
D02*
G37*
G36*
X815737Y381613D02*
X815867Y381587D01*
X815993Y381544D01*
X816113Y381486D01*
X816224Y381412D01*
X816324Y381324D01*
X816412Y381224D01*
X816486Y381113D01*
X816544Y380993D01*
X816587Y380867D01*
X816613Y380737D01*
X816622Y380604D01*
Y379622D01*
X817904D01*
X818037Y379613D01*
X818167Y379587D01*
X818293Y379544D01*
X818413Y379486D01*
X818524Y379412D01*
X818624Y379324D01*
X818711Y379224D01*
X818785Y379113D01*
X818845Y378993D01*
X818887Y378867D01*
X818913Y378737D01*
X818922Y378604D01*
Y355104D01*
X818913Y354971D01*
X818887Y354840D01*
X818845Y354714D01*
X818785Y354595D01*
X818711Y354484D01*
X818624Y354384D01*
X818524Y354296D01*
X818413Y354222D01*
X818293Y354163D01*
X818167Y354120D01*
X818037Y354094D01*
X817904Y354086D01*
X816672D01*
Y353104D01*
X816663Y352971D01*
X816637Y352840D01*
X816594Y352714D01*
X816535Y352595D01*
X816461Y352484D01*
X816374Y352384D01*
X816274Y352296D01*
X816163Y352222D01*
X816043Y352163D01*
X815917Y352120D01*
X815787Y352094D01*
X815654Y352086D01*
X800954D01*
X800821Y352094D01*
X800690Y352120D01*
X800564Y352163D01*
X800445Y352222D01*
X800334Y352296D01*
X800234Y352384D01*
X800146Y352484D01*
X800072Y352595D01*
X800013Y352714D01*
X799970Y352840D01*
X799944Y352971D01*
X799936Y353104D01*
Y380604D01*
X799944Y380737D01*
X799970Y380867D01*
X800013Y380993D01*
X800072Y381113D01*
X800146Y381224D01*
X800234Y381324D01*
X800334Y381412D01*
X800445Y381486D01*
X800564Y381544D01*
X800690Y381587D01*
X800821Y381613D01*
X800954Y381622D01*
X815604D01*
X815737Y381613D01*
D02*
G37*
D139*
X570799Y617704D02*
G03*
X570799Y617704I-2794J0D01*
G01*
X570240D02*
G03*
X570240Y617704I-2794J0D01*
G01*
X534498Y557661D02*
G03*
X534498Y557661I-2794J0D01*
G01*
Y557103D02*
G03*
X534498Y557103I-2794J0D01*
G01*
X648198Y737778D02*
G03*
X648198Y737778I-2794J0D01*
G01*
X586198Y648978D02*
G03*
X586198Y648978I-2794J0D01*
G01*
X665238Y700347D02*
G03*
X665238Y700347I-2794J0D01*
G01*
Y700905D02*
G03*
X665238Y700905I-2794J0D01*
G01*
X679498Y700503D02*
G03*
X679498Y700503I-2794J0D01*
G01*
Y701061D02*
G03*
X679498Y701061I-2794J0D01*
G01*
X855877Y344504D02*
G03*
X855877Y344504I-2794J0D01*
G01*
X855318D02*
G03*
X855318Y344504I-2794J0D01*
G01*
X570308Y632724D02*
G03*
X570308Y632724I-2794J0D01*
G01*
Y633283D02*
G03*
X570308Y633283I-2794J0D01*
G01*
X570298Y648978D02*
G03*
X570298Y648978I-2794J0D01*
G01*
X835498Y303605D02*
G03*
X835498Y303605I-2794J0D01*
G01*
Y303046D02*
G03*
X835498Y303046I-2794J0D01*
G01*
X673598Y737778D02*
G03*
X673598Y737778I-2794J0D01*
G01*
X423518Y426404D02*
G03*
X423518Y426404I-2794J0D01*
G01*
X424077D02*
G03*
X424077Y426404I-2794J0D01*
G01*
X577707Y555783D02*
G03*
X577707Y555783I-2794J0D01*
G01*
Y555224D02*
G03*
X577707Y555224I-2794J0D01*
G01*
X793477Y717804D02*
G03*
X793477Y717804I-2794J0D01*
G01*
X792918D02*
G03*
X792918Y717804I-2794J0D01*
G01*
D140*
X290270Y227830D02*
D03*
X909840Y814580D02*
D03*
X356804Y772404D02*
D03*
X915704Y286604D02*
D03*
D141*
X615004Y446654D02*
D03*
Y450554D02*
D03*
Y454454D02*
D03*
Y458354D02*
D03*
X623804D02*
D03*
Y454454D02*
D03*
Y450554D02*
D03*
Y446654D02*
D03*
D142*
X619404Y448104D02*
D03*
Y456904D02*
D03*
D143*
X503904Y469004D02*
D03*
X491904D02*
D03*
X479904D02*
D03*
X467904D02*
D03*
X515904D02*
D03*
X527904D02*
D03*
X539904D02*
D03*
X551904D02*
D03*
X509904Y457004D02*
D03*
X461904D02*
D03*
X473904D02*
D03*
X485904D02*
D03*
X497904D02*
D03*
X557904D02*
D03*
X545904D02*
D03*
X533904D02*
D03*
X521904D02*
D03*
X449904Y451004D02*
D03*
X569904D02*
D03*
X449904Y439004D02*
D03*
Y427004D02*
D03*
Y415004D02*
D03*
Y403004D02*
D03*
X569904D02*
D03*
Y415004D02*
D03*
Y427004D02*
D03*
Y439004D02*
D03*
X461904Y445004D02*
D03*
Y433004D02*
D03*
Y421004D02*
D03*
Y409004D02*
D03*
X557904D02*
D03*
Y421004D02*
D03*
Y433004D02*
D03*
Y445004D02*
D03*
X503904D02*
D03*
X515904D02*
D03*
X491904D02*
D03*
X527904D02*
D03*
X497904Y433004D02*
D03*
X521904D02*
D03*
X473904Y415004D02*
D03*
Y427004D02*
D03*
X485904Y421004D02*
D03*
X545904Y415004D02*
D03*
Y427004D02*
D03*
X533904Y421004D02*
D03*
X473904Y403004D02*
D03*
X545904D02*
D03*
X485904Y385004D02*
D03*
X473904Y379004D02*
D03*
Y391004D02*
D03*
X533904Y385004D02*
D03*
X545904Y379004D02*
D03*
Y391004D02*
D03*
X497904Y373004D02*
D03*
X521904D02*
D03*
X491904Y361004D02*
D03*
X527904D02*
D03*
X503904D02*
D03*
X515904D02*
D03*
X461904D02*
D03*
Y373004D02*
D03*
Y385004D02*
D03*
Y397004D02*
D03*
X557904D02*
D03*
Y385004D02*
D03*
Y373004D02*
D03*
Y361004D02*
D03*
X449904Y367004D02*
D03*
Y379004D02*
D03*
Y391004D02*
D03*
X569904D02*
D03*
Y379004D02*
D03*
Y367004D02*
D03*
X449904Y355004D02*
D03*
X569904D02*
D03*
X497904Y349004D02*
D03*
X485904D02*
D03*
X473904D02*
D03*
X461904D02*
D03*
X521904D02*
D03*
X533904D02*
D03*
X545904D02*
D03*
X557904D02*
D03*
X509904D02*
D03*
X467904Y337004D02*
D03*
X479904D02*
D03*
X491904D02*
D03*
X503904D02*
D03*
X551904D02*
D03*
X539904D02*
D03*
X527904D02*
D03*
X515904D02*
D03*
X797204Y484404D02*
D03*
Y494404D02*
D03*
X797104Y464204D02*
D03*
Y474204D02*
D03*
Y504394D02*
D03*
Y514394D02*
D03*
X797204Y554304D02*
D03*
Y544304D02*
D03*
X797104Y524204D02*
D03*
Y534204D02*
D03*
X639004Y433804D02*
D03*
Y443804D02*
D03*
X630404Y443904D02*
D03*
Y433904D02*
D03*
X595804Y350904D02*
D03*
Y340904D02*
D03*
X741704Y356804D02*
D03*
Y366804D02*
D03*
X587404Y695504D02*
D03*
Y685504D02*
D03*
Y705304D02*
D03*
Y715304D02*
D03*
X635104Y382204D02*
D03*
Y392204D02*
D03*
X616804Y309304D02*
D03*
Y319304D02*
D03*
X635204Y401604D02*
D03*
Y411604D02*
D03*
X593204Y309074D02*
D03*
Y319074D02*
D03*
X707904Y699604D02*
D03*
Y689604D02*
D03*
X831704Y367604D02*
D03*
Y357604D02*
D03*
X842304Y357604D02*
D03*
Y367604D02*
D03*
X741804Y424704D02*
D03*
Y414704D02*
D03*
X765204Y402704D02*
D03*
Y392704D02*
D03*
X781904Y333904D02*
D03*
Y323904D02*
D03*
X756304Y402704D02*
D03*
Y392704D02*
D03*
X807504Y421404D02*
D03*
Y411404D02*
D03*
D144*
X580804Y612704D02*
D03*
X590304D02*
D03*
X793954Y435004D02*
D03*
X784454D02*
D03*
X793954Y447304D02*
D03*
X784454D02*
D03*
X813154Y435104D02*
D03*
X803654D02*
D03*
X813304Y447304D02*
D03*
X803804D02*
D03*
X748954Y446204D02*
D03*
X758454D02*
D03*
X792154Y344304D02*
D03*
X782654D02*
D03*
X877804Y311704D02*
D03*
X868304D02*
D03*
X885404Y650404D02*
D03*
X875904D02*
D03*
X877804Y349804D02*
D03*
X868304D02*
D03*
Y331204D02*
D03*
X877804D02*
D03*
X625454Y383004D02*
D03*
X615954D02*
D03*
X856175Y321804D02*
D03*
X846675D02*
D03*
X846825Y310904D02*
D03*
X856325D02*
D03*
X606604Y331413D02*
D03*
X597104D02*
D03*
X606954Y371904D02*
D03*
X597454D02*
D03*
X666454Y459404D02*
D03*
X656954D02*
D03*
X607054Y361804D02*
D03*
X597554D02*
D03*
X615904Y414404D02*
D03*
X625404D02*
D03*
X704754Y719104D02*
D03*
X695254D02*
D03*
X580523Y520504D02*
D03*
X571023D02*
D03*
X560713D02*
D03*
X551213D02*
D03*
X429154Y523904D02*
D03*
X438654D02*
D03*
X409204Y426104D02*
D03*
X399704D02*
D03*
X540654Y520504D02*
D03*
X531154D02*
D03*
X519604D02*
D03*
X510104D02*
D03*
X885404Y690304D02*
D03*
X875904D02*
D03*
X885404Y670204D02*
D03*
X875904D02*
D03*
X696804Y459404D02*
D03*
X687304D02*
D03*
D145*
X571104Y617704D02*
D03*
X564347D02*
D03*
X531704Y560760D02*
D03*
Y554004D02*
D03*
X645404Y734680D02*
D03*
Y740928D02*
D03*
X583404Y645880D02*
D03*
Y652128D02*
D03*
X662444Y697248D02*
D03*
Y704004D02*
D03*
X676704Y697404D02*
D03*
Y704160D02*
D03*
X856182Y344504D02*
D03*
X849426D02*
D03*
X567514Y629626D02*
D03*
Y636382D02*
D03*
X567504Y645880D02*
D03*
Y652128D02*
D03*
X832704Y306704D02*
D03*
Y299947D02*
D03*
X670804Y740928D02*
D03*
Y734680D02*
D03*
X417626Y426404D02*
D03*
X424382D02*
D03*
X574913Y558882D02*
D03*
Y552126D02*
D03*
X793782Y717804D02*
D03*
X787026D02*
D03*
D146*
X567604Y598504D02*
D03*
Y589004D02*
D03*
X853904Y358054D02*
D03*
Y367554D02*
D03*
X662504Y680304D02*
D03*
Y689804D02*
D03*
X676704Y680354D02*
D03*
Y689854D02*
D03*
X605104Y381754D02*
D03*
Y391254D02*
D03*
Y404154D02*
D03*
Y413654D02*
D03*
X744804Y390904D02*
D03*
Y400404D02*
D03*
X793504Y324304D02*
D03*
Y333804D02*
D03*
X576547Y705754D02*
D03*
Y715254D02*
D03*
X809104Y401554D02*
D03*
Y392054D02*
D03*
X776904Y402354D02*
D03*
Y392854D02*
D03*
X788804Y391704D02*
D03*
Y401204D02*
D03*
X697004Y680454D02*
D03*
Y689954D02*
D03*
X715804Y709454D02*
D03*
Y718954D02*
D03*
X608104Y350874D02*
D03*
Y341374D02*
D03*
X605604Y309554D02*
D03*
Y319054D02*
D03*
X646304Y460904D02*
D03*
Y470404D02*
D03*
X451090Y522204D02*
D03*
Y512704D02*
D03*
X544504Y557229D02*
D03*
Y566729D02*
D03*
X411204Y512704D02*
D03*
Y522204D02*
D03*
D147*
X579104Y598704D02*
D03*
X590604Y593704D02*
D03*
Y603704D02*
D03*
D148*
X590704Y622404D02*
D03*
X580704D02*
D03*
X409504Y402904D02*
D03*
X419504D02*
D03*
X409504Y412104D02*
D03*
X419504D02*
D03*
X407494Y327174D02*
D03*
X397494D02*
D03*
Y317014D02*
D03*
X407494D02*
D03*
X407494Y337334D02*
D03*
X397494D02*
D03*
X390204Y511904D02*
D03*
X380204D02*
D03*
X531004Y510026D02*
D03*
X541004D02*
D03*
X867804Y300956D02*
D03*
X877804D02*
D03*
X867804Y322004D02*
D03*
X877804D02*
D03*
X867804Y340504D02*
D03*
X877804D02*
D03*
X647304Y331776D02*
D03*
X657304D02*
D03*
X580729Y510026D02*
D03*
X570729D02*
D03*
X550729D02*
D03*
X560729D02*
D03*
X520104D02*
D03*
X510104D02*
D03*
X846804Y300704D02*
D03*
X856804D02*
D03*
X695304Y709504D02*
D03*
X705304D02*
D03*
X837004Y437204D02*
D03*
X827004D02*
D03*
X826904Y410904D02*
D03*
X836904D02*
D03*
D149*
X491404Y299304D02*
D03*
X500404D02*
D03*
X898654Y650404D02*
D03*
X907654D02*
D03*
Y670304D02*
D03*
X898654D02*
D03*
X907654Y690304D02*
D03*
X898654D02*
D03*
D150*
X722504Y689604D02*
D03*
D151*
X420371Y336964D02*
D03*
Y322464D02*
D03*
X854704Y426054D02*
D03*
Y440554D02*
D03*
D152*
X394704Y523804D02*
D03*
X380204D02*
D03*
X380854Y631804D02*
D03*
X395354D02*
D03*
D153*
X312604Y631704D02*
D03*
Y523804D02*
D03*
D154*
X302704Y773804D02*
D03*
Y393804D02*
D03*
D155*
X687404Y484304D02*
D03*
D156*
X744904Y504304D02*
D03*
X629904D02*
D03*
X744904Y634304D02*
D03*
X629904D02*
D03*
D157*
X408304Y385524D02*
D03*
Y352504D02*
D03*
X655904Y384984D02*
D03*
Y418004D02*
D03*
X408304Y475924D02*
D03*
Y442904D02*
D03*
D158*
X704313Y367605D02*
D03*
Y430605D02*
D03*
D159*
X931704Y521604D02*
D03*
Y496204D02*
D03*
Y547004D02*
D03*
X813604Y496404D02*
D03*
Y547204D02*
D03*
Y521804D02*
D03*
D160*
X872704Y574604D02*
D03*
Y468604D02*
D03*
D161*
X606404Y460104D02*
D03*
Y451104D02*
D03*
D162*
X867204Y440684D02*
D03*
Y435684D02*
D03*
Y430684D02*
D03*
Y425684D02*
D03*
Y420684D02*
D03*
Y415684D02*
D03*
Y410684D02*
D03*
Y405684D02*
D03*
Y400684D02*
D03*
Y395684D02*
D03*
Y390684D02*
D03*
Y385684D02*
D03*
D163*
X883204Y383204D02*
D03*
Y388204D02*
D03*
Y393204D02*
D03*
Y398204D02*
D03*
Y403204D02*
D03*
Y408204D02*
D03*
Y413204D02*
D03*
Y418204D02*
D03*
Y423204D02*
D03*
Y428204D02*
D03*
Y433204D02*
D03*
Y438204D02*
D03*
D164*
X535504Y543786D02*
D03*
X530504Y532286D02*
D03*
X540504D02*
D03*
X615724Y403657D02*
D03*
X625724D02*
D03*
X620724Y392158D02*
D03*
X556113Y543786D02*
D03*
X551113Y532286D02*
D03*
X561113D02*
D03*
X574913Y543786D02*
D03*
X569913Y532286D02*
D03*
X579913D02*
D03*
X514104Y543786D02*
D03*
X509104Y532286D02*
D03*
X519104D02*
D03*
D165*
X656554Y354704D02*
D03*
D166*
X655404Y347204D02*
D03*
Y362204D02*
D03*
D167*
X644904Y363204D02*
D03*
Y346204D02*
D03*
X640404Y363204D02*
D03*
Y346204D02*
D03*
X635904D02*
D03*
Y363204D02*
D03*
D168*
X695004Y701504D02*
D03*
X699004D02*
D03*
Y697504D02*
D03*
X695004D02*
D03*
X770904Y430804D02*
D03*
X766904D02*
D03*
X762904D02*
D03*
X758904D02*
D03*
X754904D02*
D03*
X770904Y426804D02*
D03*
X766904D02*
D03*
X762904D02*
D03*
X758904D02*
D03*
X754904D02*
D03*
X770904Y422804D02*
D03*
X766904D02*
D03*
X762904D02*
D03*
X758904D02*
D03*
X754904D02*
D03*
X770904Y418804D02*
D03*
X766904D02*
D03*
X762904D02*
D03*
X758904D02*
D03*
X754904D02*
D03*
Y414804D02*
D03*
X758904D02*
D03*
X762904D02*
D03*
X766904D02*
D03*
X770904D02*
D03*
D169*
X836463Y429404D02*
D03*
Y424404D02*
D03*
Y419404D02*
D03*
X826963D02*
D03*
Y424404D02*
D03*
Y429404D02*
D03*
D170*
X808279Y342004D02*
D03*
X818779D02*
D03*
D171*
X799404Y391904D02*
D03*
Y405404D02*
D03*
D172*
X680604Y324604D02*
D03*
X721604D02*
D03*
D173*
X782604Y357204D02*
D03*
Y363704D02*
D03*
Y370204D02*
D03*
Y376704D02*
D03*
X754604D02*
D03*
Y370204D02*
D03*
Y363704D02*
D03*
Y357204D02*
D03*
X791504Y376604D02*
D03*
Y370104D02*
D03*
Y363604D02*
D03*
Y357104D02*
D03*
X819504D02*
D03*
Y363604D02*
D03*
Y370104D02*
D03*
Y376604D02*
D03*
D174*
X662204Y307004D02*
D03*
X634204D02*
D03*
X849904Y396804D02*
D03*
X821904D02*
D03*
D175*
X441254Y266504D02*
D03*
X493754D02*
D03*
Y283504D02*
D03*
X441254D02*
D03*
D176*
X890804Y717104D02*
D03*
D177*
X809504Y610454D02*
D03*
X843004D02*
D03*
Y595954D02*
D03*
X809504D02*
D03*
X843004Y663854D02*
D03*
X809504D02*
D03*
Y649354D02*
D03*
X843004D02*
D03*
X809504Y717804D02*
D03*
X843004D02*
D03*
Y703304D02*
D03*
X809504D02*
D03*
D178*
X639304Y712004D02*
D03*
X634304D02*
D03*
X629304D02*
D03*
X624304D02*
D03*
X604304D02*
D03*
X609304D02*
D03*
X614304D02*
D03*
X619304D02*
D03*
Y689204D02*
D03*
X614304D02*
D03*
X609304D02*
D03*
X604304D02*
D03*
X624304D02*
D03*
X629304D02*
D03*
X634304D02*
D03*
X639304D02*
D03*
D179*
X621804Y700604D02*
D03*
D180*
X600404Y698104D02*
D03*
Y703104D02*
D03*
X643204Y698104D02*
D03*
Y703104D02*
D03*
D181*
X727904Y721104D02*
D03*
X745804Y314304D02*
D03*
X589404Y674004D02*
D03*
X840504Y379004D02*
D03*
D182*
X768504Y320604D02*
D03*
Y331104D02*
D03*
D183*
X831204Y567604D02*
D03*
X914204Y477604D02*
D03*
X893044Y447934D02*
D03*
X893694Y375934D02*
D03*
D184*
X620264Y762504D02*
D03*
X442464D02*
D03*
X467864D02*
D03*
X493264D02*
D03*
X518664D02*
D03*
X544064D02*
D03*
X569464D02*
D03*
X594864D02*
D03*
X645664D02*
D03*
X864104D02*
D03*
X838704D02*
D03*
X813304D02*
D03*
X787904D02*
D03*
X762504D02*
D03*
X737104D02*
D03*
X711704D02*
D03*
X889504Y279904D02*
D03*
X864104D02*
D03*
X838704D02*
D03*
X813304D02*
D03*
X787904D02*
D03*
X559304D02*
D03*
X584704D02*
D03*
X610104D02*
D03*
X635504D02*
D03*
X660904D02*
D03*
X686304D02*
D03*
X711704D02*
D03*
D185*
X671064Y762504D02*
D03*
X889504D02*
D03*
X762504Y279904D02*
D03*
X533904D02*
D03*
D186*
X879894Y371994D02*
D03*
Y451874D02*
D03*
D187*
X873694Y368734D02*
D03*
Y455134D02*
D03*
D188*
X924194Y368734D02*
D03*
Y455134D02*
D03*
D189*
X442464Y737104D02*
D03*
X467864D02*
D03*
X493264D02*
D03*
X518664D02*
D03*
X544064D02*
D03*
Y711704D02*
D03*
X518664D02*
D03*
X493264D02*
D03*
X467864D02*
D03*
X442464D02*
D03*
X544064Y686304D02*
D03*
X518664D02*
D03*
X493264D02*
D03*
X467864D02*
D03*
X442464D02*
D03*
X544064Y660904D02*
D03*
X518664D02*
D03*
X493264D02*
D03*
X467864D02*
D03*
X442464D02*
D03*
X544064Y635504D02*
D03*
X518664D02*
D03*
X493264D02*
D03*
X467864D02*
D03*
X442464D02*
D03*
X544064Y610104D02*
D03*
X518664D02*
D03*
X493264D02*
D03*
X467864D02*
D03*
X442464D02*
D03*
D190*
X914904Y330704D02*
D03*
Y610104D02*
D03*
X394204Y279904D02*
D03*
X406904Y762504D02*
D03*
M02*
