G04*
G04 #@! TF.GenerationSoftware,Altium Limited,Altium Designer,19.0.15 (446)*
G04*
G04 Layer_Physical_Order=2*
G04 Layer_Color=36540*
%FSLAX44Y44*%
%MOMM*%
G71*
G01*
G75*
%ADD10C,0.1500*%
%ADD12C,0.4000*%
%ADD14C,0.3000*%
%ADD15C,0.2500*%
%ADD60C,0.6000*%
%ADD61C,0.5000*%
%ADD85R,3.9700X10.0300*%
%ADD86R,7.7200X0.9600*%
%ADD87R,2.7700X1.2000*%
%ADD88R,6.3000X0.7000*%
%ADD89R,2.8100X1.6300*%
%ADD116C,1.5000*%
%ADD117R,1.5000X1.5000*%
%ADD118O,1.1000X1.4500*%
%ADD119O,2.3000X1.2000*%
%ADD120O,2.6000X1.3000*%
%ADD121C,1.5240*%
%ADD123C,0.3000*%
%ADD124C,2.0000*%
G36*
X553053Y770432D02*
X552758Y770074D01*
X552496Y769621D01*
X552267Y769073D01*
X552069Y768430D01*
X551904Y767693D01*
X551772Y766860D01*
X551603Y764909D01*
X551567Y763792D01*
X551563Y762579D01*
X544139Y770003D01*
X545351Y770007D01*
X548420Y770211D01*
X549253Y770344D01*
X549991Y770509D01*
X550633Y770707D01*
X551181Y770937D01*
X551634Y771199D01*
X551992Y771493D01*
X553053Y770432D01*
D02*
G37*
G36*
X884156Y755034D02*
X884039Y755119D01*
X883901Y755162D01*
X883742D01*
X883562Y755119D01*
X883360Y755034D01*
X883137Y754907D01*
X882893Y754737D01*
X882628Y754525D01*
X882034Y753974D01*
X880974Y755034D01*
X881271Y755342D01*
X881737Y755893D01*
X881907Y756137D01*
X882034Y756360D01*
X882119Y756562D01*
X882162Y756742D01*
Y756901D01*
X882119Y757039D01*
X882034Y757156D01*
X884156Y755034D01*
D02*
G37*
G36*
X864029Y755004D02*
X862816Y755001D01*
X859748Y754796D01*
X858915Y754663D01*
X858177Y754498D01*
X857534Y754301D01*
X856986Y754071D01*
X856533Y753809D01*
X856176Y753515D01*
X855115Y754576D01*
X855409Y754933D01*
X855671Y755386D01*
X855901Y755934D01*
X856098Y756577D01*
X856263Y757315D01*
X856396Y758148D01*
X856565Y760098D01*
X856601Y761216D01*
X856604Y762429D01*
X864029Y755004D01*
D02*
G37*
G36*
X576967Y761216D02*
X577172Y758148D01*
X577304Y757315D01*
X577469Y756577D01*
X577667Y755934D01*
X577896Y755386D01*
X578158Y754933D01*
X578453Y754576D01*
X577392Y753515D01*
X577034Y753809D01*
X576581Y754071D01*
X576033Y754301D01*
X575391Y754498D01*
X574653Y754663D01*
X573820Y754796D01*
X571869Y754965D01*
X570751Y755001D01*
X569539Y755004D01*
X576963Y762429D01*
X576967Y761216D01*
D02*
G37*
G36*
X475367D02*
X475572Y758148D01*
X475704Y757315D01*
X475869Y756577D01*
X476067Y755934D01*
X476297Y755386D01*
X476558Y754933D01*
X476853Y754576D01*
X475792Y753515D01*
X475434Y753809D01*
X474981Y754071D01*
X474433Y754301D01*
X473791Y754498D01*
X473053Y754663D01*
X472220Y754796D01*
X470269Y754965D01*
X469151Y755001D01*
X467939Y755004D01*
X475363Y762429D01*
X475367Y761216D01*
D02*
G37*
G36*
X449967D02*
X450172Y758148D01*
X450304Y757315D01*
X450469Y756577D01*
X450667Y755934D01*
X450896Y755386D01*
X451158Y754933D01*
X451453Y754576D01*
X450392Y753515D01*
X450034Y753809D01*
X449581Y754071D01*
X449033Y754301D01*
X448391Y754498D01*
X447653Y754663D01*
X446820Y754796D01*
X444869Y754965D01*
X443751Y755001D01*
X442539Y755004D01*
X449963Y762429D01*
X449967Y761216D01*
D02*
G37*
G36*
X912865Y761659D02*
Y647004D01*
X913020Y646223D01*
X913462Y645562D01*
X914123Y645120D01*
X914904Y644965D01*
X927959D01*
X938265Y634659D01*
Y463668D01*
X938204Y463627D01*
X860904D01*
X859756Y463152D01*
X859280Y462004D01*
Y455004D01*
Y443804D01*
X859756Y442656D01*
X860904Y442180D01*
X889004D01*
X890152Y442656D01*
X890820Y442859D01*
X891483Y442416D01*
X893044Y442105D01*
X894605Y442416D01*
X895610Y443088D01*
X896679Y442689D01*
X896880Y442525D01*
Y380564D01*
X895760Y379965D01*
X895450Y380173D01*
X893694Y380522D01*
X891938Y380173D01*
X891584Y379936D01*
X891380Y379931D01*
X890094Y380468D01*
X889852Y381052D01*
X888704Y381527D01*
X861004D01*
X859856Y381052D01*
X859380Y379904D01*
Y371304D01*
Y361704D01*
X859856Y360556D01*
X861004Y360080D01*
X938204D01*
X938265Y360040D01*
Y293449D01*
X913462Y268646D01*
X913020Y267984D01*
X912865Y267204D01*
Y256543D01*
X390204D01*
Y261631D01*
X391474Y262588D01*
X394204Y262319D01*
X397634Y262657D01*
X400933Y263658D01*
X403973Y265283D01*
X406638Y267470D01*
X408825Y270134D01*
X410450Y273174D01*
X411451Y276473D01*
X411788Y279904D01*
X411451Y283334D01*
X410450Y286633D01*
X408825Y289673D01*
X406638Y292338D01*
X403973Y294525D01*
X400933Y296150D01*
X397634Y297151D01*
X394204Y297488D01*
X391474Y297220D01*
X390204Y298177D01*
Y516239D01*
X454897D01*
Y516004D01*
X455074D01*
X455625Y515977D01*
X456708Y515761D01*
X457728Y515339D01*
X458645Y514726D01*
X459055Y514355D01*
X467115Y506294D01*
X469353Y503605D01*
X471003Y500517D01*
X472020Y497167D01*
X472339Y493683D01*
Y474504D01*
X473776Y458435D01*
X472919Y457498D01*
X432404D01*
X431526Y457323D01*
X430782Y456826D01*
X406532Y432576D01*
X406034Y431832D01*
X405860Y430954D01*
Y415054D01*
X406034Y414176D01*
X406532Y413432D01*
X413082Y406882D01*
X413082Y406882D01*
X413826Y406384D01*
X414704Y406210D01*
X422654D01*
X423564Y405299D01*
X423146Y403921D01*
X422248Y403743D01*
X420760Y402748D01*
X407904Y389893D01*
X406909Y388404D01*
X406560Y386648D01*
Y337159D01*
X406909Y335403D01*
X407904Y333915D01*
X442960Y298860D01*
X444448Y297865D01*
X446204Y297516D01*
X508946D01*
X509289Y297087D01*
X509732Y296246D01*
X509545Y295304D01*
X509778Y294133D01*
X510441Y293141D01*
X511433Y292478D01*
X512604Y292245D01*
X513774Y292478D01*
X514767Y293141D01*
X515430Y294133D01*
X515662Y295304D01*
X515475Y296246D01*
X515919Y297087D01*
X516261Y297516D01*
X674104D01*
Y296105D01*
X728104D01*
Y297516D01*
X823218D01*
X824974Y297865D01*
X826462Y298860D01*
X835948Y308345D01*
X836943Y309834D01*
X837292Y311590D01*
X836943Y313345D01*
X835948Y314834D01*
X834460Y315828D01*
X832704Y316178D01*
X830948Y315828D01*
X829460Y314834D01*
X821318Y306692D01*
X728104D01*
Y341681D01*
X729374Y342207D01*
X738241Y333341D01*
X738241Y333341D01*
X739233Y332678D01*
X740404Y332445D01*
X740404Y332445D01*
X801801D01*
X814655Y319591D01*
X814655Y319591D01*
X815647Y318928D01*
X816818Y318695D01*
X816818Y318695D01*
X840804D01*
X841974Y318928D01*
X842967Y319591D01*
X843630Y320583D01*
X843863Y321754D01*
X843630Y322924D01*
X842967Y323917D01*
X841974Y324580D01*
X840804Y324813D01*
X818085D01*
X811459Y331438D01*
X811945Y332611D01*
X828923D01*
X829801Y332786D01*
X830545Y333283D01*
X839371Y342110D01*
X842513D01*
X842683Y342031D01*
X842940Y342021D01*
X842981Y342017D01*
X843015Y342012D01*
X843016Y342011D01*
X843041Y342001D01*
X843050Y342001D01*
X843075Y341994D01*
X843142Y342000D01*
X843774Y341578D01*
X844945Y341345D01*
X846115Y341578D01*
X847108Y342241D01*
X847771Y343233D01*
X848004Y344404D01*
X847771Y345574D01*
X847108Y346567D01*
X846115Y347230D01*
X844945Y347463D01*
X843774Y347230D01*
X843142Y346807D01*
X843075Y346814D01*
X843050Y346806D01*
X843040Y346806D01*
X843016Y346796D01*
X843014Y346796D01*
X843000Y346794D01*
X842825Y346779D01*
X842716Y346777D01*
X842534Y346698D01*
X838421D01*
X838421Y346698D01*
X837543Y346523D01*
X836799Y346026D01*
X836799Y346026D01*
X827973Y337200D01*
X809952D01*
X806276Y340876D01*
X805532Y341373D01*
X804654Y341548D01*
X764131D01*
X763261Y342473D01*
X765922Y385600D01*
X794504D01*
X795577Y385813D01*
X796486Y386421D01*
X818835Y408770D01*
X818874Y408778D01*
X819867Y409441D01*
X820530Y410433D01*
X820763Y411604D01*
X820530Y412774D01*
X819867Y413767D01*
X819620Y413932D01*
Y415459D01*
X819817Y415591D01*
X820480Y416583D01*
X820713Y417754D01*
X820480Y418924D01*
X819817Y419917D01*
X818824Y420580D01*
X817654Y420813D01*
X816483Y420580D01*
X815491Y419917D01*
X814828Y418924D01*
X814820Y418885D01*
X791142Y395208D01*
X763104D01*
X762031Y394994D01*
X761121Y394386D01*
X749842Y383108D01*
X696721D01*
X695828Y384011D01*
X695867Y387441D01*
X768971Y460545D01*
X786365D01*
X786971Y459369D01*
X786956Y459275D01*
X786284Y458826D01*
X770630Y443172D01*
X767695Y446106D01*
X767630Y446282D01*
X767456Y446470D01*
X767430Y446502D01*
X767410Y446531D01*
X767410Y446531D01*
X767399Y446556D01*
X767392Y446563D01*
X767380Y446586D01*
X767328Y446629D01*
X767180Y447374D01*
X766517Y448367D01*
X765524Y449030D01*
X764354Y449263D01*
X763183Y449030D01*
X762191Y448367D01*
X761528Y447374D01*
X761295Y446204D01*
X761528Y445033D01*
X762191Y444041D01*
X763183Y443378D01*
X763929Y443230D01*
X763972Y443178D01*
X763995Y443166D01*
X764001Y443158D01*
X764026Y443148D01*
X764027Y443148D01*
X764039Y443139D01*
X764173Y443025D01*
X764252Y442949D01*
X764436Y442877D01*
X767386Y439927D01*
X763057Y435599D01*
X761679Y436017D01*
X761628Y436273D01*
X760965Y437266D01*
X759973Y437929D01*
X758802Y438162D01*
X757632Y437929D01*
X756929Y437460D01*
X756902Y437462D01*
X756896Y437463D01*
X756894Y437462D01*
X756882Y437463D01*
X756851Y437453D01*
X756842Y437453D01*
X756825Y437446D01*
X756822Y437446D01*
X756653Y437431D01*
X756546Y437429D01*
X756532Y437423D01*
X756518Y437428D01*
X756346Y437350D01*
X755052D01*
X755052Y437350D01*
X754174Y437175D01*
X753430Y436678D01*
X753430Y436678D01*
X743182Y426429D01*
X742684Y425685D01*
X742510Y424807D01*
Y408836D01*
X742431Y408665D01*
X742422Y408409D01*
X742417Y408368D01*
X742412Y408334D01*
X742411Y408333D01*
X742401Y408308D01*
X742402Y408298D01*
X742394Y408274D01*
X742400Y408206D01*
X741978Y407574D01*
X741745Y406404D01*
X741978Y405233D01*
X742641Y404241D01*
X743633Y403578D01*
X744804Y403345D01*
X745974Y403578D01*
X746967Y404241D01*
X747966Y403497D01*
X753932Y397532D01*
X754676Y397034D01*
X755554Y396860D01*
X755554Y396860D01*
X786464D01*
X787342Y397034D01*
X788086Y397532D01*
X797626Y407072D01*
X798123Y407816D01*
X798298Y408694D01*
Y413954D01*
X811996Y427652D01*
X826612D01*
X832210Y422054D01*
Y416104D01*
X832384Y415226D01*
X832882Y414482D01*
X837082Y410282D01*
X837826Y409784D01*
X838704Y409610D01*
X838652Y408361D01*
X837964Y408327D01*
X833666Y408327D01*
X832919Y408328D01*
X832765Y408264D01*
X832601Y408297D01*
X831136Y408006D01*
X830998Y407913D01*
X830831Y407913D01*
X829451Y407341D01*
X829333Y407223D01*
X829170Y407191D01*
X827928Y406360D01*
X827836Y406222D01*
X827682Y406158D01*
X827156Y405630D01*
X827156Y405630D01*
X827156Y405630D01*
X827154Y405629D01*
X826924Y405070D01*
X826680Y404482D01*
X826680Y393068D01*
X826744Y392914D01*
X826711Y392751D01*
X826987Y391366D01*
X827079Y391227D01*
Y391061D01*
X827620Y389756D01*
X827737Y389638D01*
X827770Y389475D01*
X828555Y388301D01*
X828693Y388209D01*
X828756Y388055D01*
X829256Y387556D01*
X829921Y386890D01*
X830075Y386826D01*
X830168Y386688D01*
X831733Y385642D01*
X831896Y385609D01*
X832014Y385492D01*
X833754Y384771D01*
X833920D01*
X834058Y384679D01*
X835905Y384311D01*
X836068Y384344D01*
X836222Y384280D01*
X879649D01*
X879803Y384344D01*
X879966Y384311D01*
X880428Y384403D01*
X880566Y384496D01*
X880732D01*
X881167Y384676D01*
X881285Y384793D01*
X881448Y384826D01*
X881839Y385087D01*
X881932Y385226D01*
X882085Y385289D01*
X883179Y386383D01*
X883243Y386537D01*
X883381Y386629D01*
X884838Y388810D01*
X884871Y388973D01*
X884988Y389091D01*
X885992Y391514D01*
Y391680D01*
X886084Y391819D01*
X886596Y394391D01*
X886564Y394554D01*
X886627Y394708D01*
X886627Y396019D01*
X886627Y396019D01*
X886627Y410856D01*
X887897Y411241D01*
X888031Y411041D01*
X889024Y410378D01*
X890194Y410145D01*
X891365Y410378D01*
X892357Y411041D01*
X893020Y412033D01*
X893253Y413204D01*
X893020Y414374D01*
X892357Y415367D01*
X892783Y416609D01*
X893020Y416963D01*
X893253Y418134D01*
X893020Y419304D01*
X892357Y420297D01*
X891365Y420960D01*
X890194Y421193D01*
X889024Y420960D01*
X888031Y420297D01*
X887897Y420097D01*
X886627Y420482D01*
Y423027D01*
X886627Y423901D01*
X886564Y424055D01*
X886596Y424218D01*
X886255Y425933D01*
X886163Y426071D01*
Y426237D01*
X885493Y427853D01*
X885376Y427971D01*
X885343Y428134D01*
X884372Y429588D01*
X884234Y429680D01*
X884170Y429834D01*
X883552Y430452D01*
X883552Y430452D01*
X882910Y431094D01*
X882756Y431157D01*
X882664Y431296D01*
X881154Y432305D01*
X880991Y432337D01*
X880873Y432455D01*
X879196Y433150D01*
X879029D01*
X878891Y433242D01*
X877110Y433596D01*
X876947Y433564D01*
X876793Y433627D01*
X875886Y433627D01*
X875885Y433627D01*
X869777Y433627D01*
X869474Y433627D01*
X869320Y433564D01*
X869157Y433596D01*
X868564Y433478D01*
X868425Y433386D01*
X868259D01*
X867700Y433154D01*
X867582Y433036D01*
X867419Y433004D01*
X866916Y432668D01*
X866823Y432529D01*
X866669Y432466D01*
X866456Y432252D01*
X866456Y432252D01*
X846067Y411863D01*
X845979Y411866D01*
X844957Y412218D01*
X844769Y412372D01*
X844630Y413074D01*
X844314Y413547D01*
X844067Y414741D01*
X844730Y415733D01*
X844963Y416904D01*
X844730Y418074D01*
X844067Y419067D01*
X843074Y419730D01*
X841904Y419963D01*
X840733Y419730D01*
X839741Y419067D01*
X839078Y418074D01*
X838845Y416904D01*
X838870Y416778D01*
X837700Y416152D01*
X836798Y417054D01*
Y423004D01*
X836623Y423882D01*
X836126Y424626D01*
X836126Y424626D01*
X831273Y429478D01*
X831759Y430652D01*
X836746D01*
X837624Y430826D01*
X838368Y431324D01*
X841806Y434762D01*
X841982Y434827D01*
X842170Y435001D01*
X842202Y435027D01*
X842231Y435048D01*
X842232Y435048D01*
X842256Y435059D01*
X842263Y435065D01*
X842286Y435078D01*
X842329Y435130D01*
X843074Y435278D01*
X844067Y435941D01*
X844730Y436933D01*
X844963Y438104D01*
X844730Y439274D01*
X844067Y440267D01*
X843074Y440930D01*
X841904Y441163D01*
X840733Y440930D01*
X839741Y440267D01*
X839078Y439274D01*
X838930Y438529D01*
X838878Y438486D01*
X838866Y438463D01*
X838858Y438456D01*
X838848Y438432D01*
X838848Y438431D01*
X838839Y438418D01*
X838725Y438284D01*
X838650Y438206D01*
X838577Y438021D01*
X835796Y435240D01*
X809446D01*
X809446Y435240D01*
X808568Y435065D01*
X807824Y434568D01*
X807824Y434568D01*
X791382Y418126D01*
X790884Y417382D01*
X790710Y416504D01*
Y412016D01*
X790633Y411964D01*
X789363Y412643D01*
Y428201D01*
X789130Y429372D01*
X788990Y429581D01*
X789528Y430803D01*
X790556Y431000D01*
X790580Y430984D01*
X791458Y430810D01*
X798996D01*
X799874Y430984D01*
X800619Y431482D01*
X815126Y445989D01*
X815623Y446733D01*
X815798Y447611D01*
Y587754D01*
X869706Y641662D01*
X869882Y641727D01*
X870070Y641901D01*
X870102Y641927D01*
X870131Y641948D01*
X870132Y641948D01*
X870156Y641958D01*
X870163Y641965D01*
X870186Y641978D01*
X870229Y642030D01*
X870974Y642178D01*
X871967Y642841D01*
X872630Y643833D01*
X872863Y645004D01*
X872630Y646174D01*
X871967Y647167D01*
X870974Y647830D01*
X869804Y648063D01*
X868633Y647830D01*
X867641Y647167D01*
X866978Y646174D01*
X866830Y645429D01*
X866778Y645386D01*
X866766Y645363D01*
X866758Y645356D01*
X866748Y645331D01*
X866748Y645331D01*
X866739Y645318D01*
X866625Y645184D01*
X866549Y645106D01*
X866477Y644921D01*
X812625Y591069D01*
X811567Y590367D01*
X810574Y591030D01*
X809404Y591263D01*
X808233Y591030D01*
X807363Y590448D01*
X807350Y590443D01*
X807197Y590429D01*
X807095Y590427D01*
X807020Y590394D01*
X806941Y590416D01*
X806818Y590348D01*
X793413D01*
X793229Y590427D01*
X793111Y590429D01*
X792915Y590443D01*
X792880Y590447D01*
X792861Y590451D01*
X792853Y590454D01*
X792846Y590455D01*
X792809Y590467D01*
X792799Y590466D01*
X792793Y590468D01*
X792768Y590464D01*
X792681Y590458D01*
X792274Y590730D01*
X791104Y590963D01*
X789933Y590730D01*
X788941Y590067D01*
X788278Y589074D01*
X788045Y587904D01*
X788278Y586733D01*
X788941Y585741D01*
X789933Y585078D01*
X791104Y584845D01*
X792274Y585078D01*
X793145Y585659D01*
X793158Y585664D01*
X793310Y585678D01*
X793413Y585681D01*
X793488Y585714D01*
X793567Y585691D01*
X793689Y585760D01*
X807095D01*
X807278Y585680D01*
X807397Y585679D01*
X807593Y585665D01*
X807627Y585660D01*
X807646Y585657D01*
X807655Y585653D01*
X807662Y585653D01*
X807699Y585641D01*
X807709Y585641D01*
X807714Y585640D01*
X807738Y585644D01*
X807827Y585650D01*
X808233Y585378D01*
X809404Y585145D01*
X809940Y585252D01*
X811210Y584391D01*
Y531502D01*
X810036Y531016D01*
X797398Y543654D01*
Y573701D01*
X797223Y574579D01*
X796726Y575323D01*
X786944Y585105D01*
X786879Y585281D01*
X786705Y585469D01*
X786679Y585501D01*
X786658Y585530D01*
X786658Y585530D01*
X786647Y585555D01*
X786640Y585562D01*
X786628Y585585D01*
X786577Y585628D01*
X786428Y586373D01*
X785765Y587365D01*
X784773Y588029D01*
X783602Y588261D01*
X783218Y588185D01*
X781948Y589116D01*
Y602104D01*
X810726Y630882D01*
X810726Y630882D01*
X811223Y631626D01*
X811398Y632504D01*
X811398Y632504D01*
Y693672D01*
X811476Y693842D01*
X811486Y694099D01*
X811490Y694140D01*
X811496Y694174D01*
X811496Y694175D01*
X811506Y694200D01*
X811506Y694209D01*
X811514Y694234D01*
X811507Y694301D01*
X811930Y694933D01*
X812163Y696104D01*
X811930Y697274D01*
X811267Y698267D01*
X810274Y698930D01*
X809104Y699163D01*
X807933Y698930D01*
X806941Y698267D01*
X806278Y697274D01*
X806045Y696104D01*
X806278Y694933D01*
X806700Y694301D01*
X806694Y694234D01*
X806702Y694209D01*
X806701Y694200D01*
X806711Y694175D01*
X806712Y694174D01*
X806714Y694159D01*
X806729Y693984D01*
X806730Y693875D01*
X806810Y693693D01*
Y685269D01*
X803026D01*
X789269Y699026D01*
X788524Y699523D01*
X787646Y699698D01*
X727948D01*
X723634Y704012D01*
X723808Y705634D01*
X723965Y705740D01*
X723966Y705740D01*
X723967Y705741D01*
X724630Y706733D01*
X724863Y707904D01*
X724630Y709074D01*
X723967Y710067D01*
X722974Y710730D01*
X721804Y710963D01*
X720633Y710730D01*
X719641Y710067D01*
X719640Y710066D01*
X719640Y710065D01*
X719534Y709908D01*
X717912Y709734D01*
X713894Y713752D01*
X714380Y714926D01*
X716904D01*
X716904Y714925D01*
X718465Y715236D01*
X719788Y716120D01*
X728843Y725175D01*
X789565D01*
X814125Y700614D01*
Y649354D01*
X814436Y647793D01*
X815320Y646470D01*
X816643Y645586D01*
X818204Y645275D01*
X819764Y645586D01*
X821088Y646470D01*
X821972Y647793D01*
X822282Y649354D01*
Y702304D01*
X822282Y702304D01*
X821972Y703865D01*
X821088Y705188D01*
X821088Y705188D01*
X795739Y730536D01*
X796225Y731710D01*
X839846D01*
X840724Y731884D01*
X841469Y732382D01*
X857097Y748010D01*
X877304D01*
X878182Y748184D01*
X878926Y748682D01*
X882963Y752718D01*
X883139Y752784D01*
X883689Y753295D01*
X883865Y753436D01*
X883951Y753495D01*
X884156Y753411D01*
X884279Y753462D01*
X884409Y753430D01*
X884528Y753504D01*
X898504D01*
Y771504D01*
X880504D01*
Y757528D01*
X880431Y757409D01*
X880462Y757279D01*
X880411Y757156D01*
X880495Y756951D01*
X880448Y756884D01*
X880066Y756431D01*
X879806Y756162D01*
X879733Y755977D01*
X876354Y752598D01*
X867026D01*
X866773Y753868D01*
X868643Y754642D01*
X870523Y756085D01*
X871965Y757965D01*
X872872Y760154D01*
X873181Y762504D01*
X872872Y764853D01*
X871965Y767043D01*
X870523Y768923D01*
X868643Y770365D01*
X866453Y771272D01*
X864104Y771581D01*
X861754Y771272D01*
X859565Y770365D01*
X857685Y768923D01*
X856242Y767043D01*
X855335Y764853D01*
X855034Y762561D01*
X854981Y762434D01*
X854977Y761244D01*
X854943Y760194D01*
X854784Y758346D01*
X854668Y757620D01*
X854528Y756993D01*
X854372Y756488D01*
X854214Y756110D01*
X854071Y755862D01*
X853861Y755607D01*
X853816Y755461D01*
X837654Y739298D01*
X721004D01*
X720126Y739123D01*
X719382Y738626D01*
X712354Y731598D01*
X665404D01*
X664526Y731423D01*
X663782Y730926D01*
X663782Y730926D01*
X644954Y712098D01*
X633842D01*
X633316Y713368D01*
X634496Y714548D01*
X634683Y714623D01*
X634781Y714718D01*
X634842Y714775D01*
X634976Y714884D01*
X634992Y714895D01*
X634994Y714897D01*
X635013Y714905D01*
X635018Y714910D01*
X635044Y714924D01*
X635116Y715013D01*
X635125Y715023D01*
X635474Y715092D01*
X635877Y715361D01*
X636804Y715650D01*
X637731Y715361D01*
X638133Y715092D01*
X639304Y714859D01*
X640474Y715092D01*
X640600Y715176D01*
X641604Y715686D01*
X642607Y715176D01*
X642733Y715092D01*
X643904Y714859D01*
X645074Y715092D01*
X646067Y715755D01*
X646730Y716748D01*
X646963Y717918D01*
X646730Y719089D01*
X646185Y719903D01*
X646186Y719911D01*
X646172Y719951D01*
X646158Y720110D01*
X646155Y720214D01*
X646130Y720272D01*
X646149Y720332D01*
X646076Y720469D01*
Y721668D01*
X645902Y722546D01*
X645404Y723290D01*
X622558Y746137D01*
Y750249D01*
X622630Y750384D01*
X622662Y750713D01*
X622736Y750989D01*
X622891Y751369D01*
X623139Y751836D01*
X623483Y752378D01*
X623905Y752960D01*
X625847Y755180D01*
X626665Y756003D01*
X626717Y756130D01*
X628125Y757965D01*
X629032Y760154D01*
X629341Y762504D01*
X629032Y764853D01*
X628125Y767043D01*
X626683Y768923D01*
X624803Y770365D01*
X622613Y771272D01*
X620264Y771581D01*
X617914Y771272D01*
X615725Y770365D01*
X613845Y768923D01*
X612402Y767043D01*
X611496Y764853D01*
X611186Y762504D01*
X611496Y760154D01*
X612402Y757965D01*
X613810Y756130D01*
X613862Y756003D01*
X614701Y755159D01*
X615419Y754394D01*
X616613Y752974D01*
X617045Y752378D01*
X617389Y751836D01*
X617637Y751369D01*
X617792Y750989D01*
X617866Y750712D01*
X617898Y750384D01*
X617970Y750249D01*
Y748141D01*
X616796Y747655D01*
X609898Y754554D01*
Y767804D01*
X609723Y768682D01*
X609226Y769426D01*
X602126Y776526D01*
X601382Y777023D01*
X600504Y777198D01*
X556464D01*
X556464Y777198D01*
X555586Y777023D01*
X554842Y776526D01*
X554842Y776526D01*
X551107Y772791D01*
X550961Y772747D01*
X550706Y772537D01*
X550458Y772394D01*
X550080Y772235D01*
X549574Y772080D01*
X548948Y771940D01*
X548238Y771826D01*
X545295Y771630D01*
X544134Y771627D01*
X544007Y771574D01*
X541714Y771272D01*
X539525Y770365D01*
X537645Y768923D01*
X536202Y767043D01*
X535295Y764853D01*
X534986Y762504D01*
X535295Y760154D01*
X536202Y757965D01*
X537645Y756085D01*
X539492Y754668D01*
X539504Y754559D01*
X539211Y753398D01*
X525310D01*
X524879Y754668D01*
X525796Y755372D01*
X527399Y757461D01*
X528406Y759893D01*
X528487Y760504D01*
X518664D01*
X508841D01*
X508921Y759893D01*
X509929Y757461D01*
X511532Y755372D01*
X512449Y754668D01*
X512018Y753398D01*
X498117D01*
X497824Y754559D01*
X497836Y754668D01*
X499683Y756085D01*
X501125Y757965D01*
X502032Y760154D01*
X502341Y762504D01*
X502032Y764853D01*
X501125Y767043D01*
X499683Y768923D01*
X497803Y770365D01*
X495613Y771272D01*
X493264Y771581D01*
X490914Y771272D01*
X488725Y770365D01*
X486845Y768923D01*
X485402Y767043D01*
X484496Y764853D01*
X484186Y762504D01*
X484496Y760154D01*
X485402Y757965D01*
X486845Y756085D01*
X488692Y754668D01*
X488704Y754559D01*
X488411Y753398D01*
X480214D01*
X478151Y755461D01*
X478107Y755607D01*
X477897Y755862D01*
X477754Y756110D01*
X477595Y756488D01*
X477440Y756993D01*
X477300Y757620D01*
X477187Y758330D01*
X476990Y761273D01*
X476987Y762434D01*
X476934Y762561D01*
X476632Y764853D01*
X475725Y767043D01*
X474283Y768923D01*
X472403Y770365D01*
X470213Y771272D01*
X467864Y771581D01*
X465514Y771272D01*
X463325Y770365D01*
X461445Y768923D01*
X460002Y767043D01*
X459095Y764853D01*
X458786Y762504D01*
X459095Y760154D01*
X460002Y757965D01*
X461445Y756085D01*
X463325Y754642D01*
X465514Y753736D01*
X467807Y753434D01*
X467934Y753381D01*
X469123Y753377D01*
X470173Y753343D01*
X472021Y753184D01*
X472747Y753068D01*
X473374Y752928D01*
X473880Y752772D01*
X474258Y752614D01*
X474506Y752470D01*
X474761Y752261D01*
X475056Y751668D01*
X474346Y750398D01*
X457814D01*
X452751Y755461D01*
X452707Y755607D01*
X452497Y755862D01*
X452354Y756110D01*
X452195Y756488D01*
X452040Y756993D01*
X451900Y757620D01*
X451786Y758330D01*
X451590Y761273D01*
X451587Y762434D01*
X451534Y762561D01*
X451232Y764853D01*
X450325Y767043D01*
X448883Y768923D01*
X447003Y770365D01*
X444813Y771272D01*
X442464Y771581D01*
X440114Y771272D01*
X437925Y770365D01*
X436045Y768923D01*
X434602Y767043D01*
X433695Y764853D01*
X433386Y762504D01*
X433695Y760154D01*
X434602Y757965D01*
X436045Y756085D01*
X437925Y754642D01*
X440114Y753736D01*
X442407Y753434D01*
X442534Y753381D01*
X443723Y753377D01*
X444773Y753343D01*
X446622Y753184D01*
X447347Y753068D01*
X447974Y752928D01*
X448480Y752772D01*
X448858Y752614D01*
X449106Y752470D01*
X449361Y752261D01*
X449507Y752216D01*
X455242Y746482D01*
X455986Y745984D01*
X456864Y745810D01*
X456864Y745810D01*
X460610D01*
X461018Y744607D01*
X460646Y744322D01*
X459024Y742207D01*
X458004Y739746D01*
X457920Y739104D01*
X467864D01*
Y735104D01*
X457920D01*
X458004Y734462D01*
X459024Y732000D01*
X460646Y729886D01*
X461712Y729068D01*
X461281Y727798D01*
X456264D01*
X455386Y727623D01*
X454642Y727126D01*
X449644Y722128D01*
X449498Y722084D01*
X449239Y721871D01*
X448985Y721725D01*
X448599Y721563D01*
X448083Y721406D01*
X447443Y721264D01*
X446718Y721149D01*
X443719Y720950D01*
X442535Y720947D01*
X442413Y720896D01*
X440083Y720589D01*
X437864Y719670D01*
X435959Y718208D01*
X434497Y716303D01*
X433579Y714085D01*
X433265Y711704D01*
X433262Y685431D01*
X433355Y684295D01*
X433408Y682302D01*
X433372Y681493D01*
X433296Y680775D01*
X433187Y680168D01*
X433052Y679678D01*
X432904Y679307D01*
X432758Y679053D01*
X432530Y678776D01*
X432485Y678630D01*
X429682Y675826D01*
X429184Y675082D01*
X429010Y674204D01*
Y654979D01*
X419982Y645951D01*
X419484Y645207D01*
X419310Y644329D01*
Y589576D01*
X419484Y588698D01*
X419982Y587954D01*
X492510Y515426D01*
Y464551D01*
X487313Y459353D01*
X486162Y459891D01*
X487468Y474504D01*
X487505Y493683D01*
X487099Y498845D01*
X485890Y503881D01*
X483909Y508665D01*
X481203Y513081D01*
X477813Y516992D01*
X469782Y525082D01*
X466456Y527811D01*
X462662Y529839D01*
X458545Y531088D01*
X454264Y531469D01*
X397004Y531368D01*
X390204D01*
Y753929D01*
X391474Y754248D01*
X392283Y752734D01*
X394470Y750070D01*
X397134Y747883D01*
X400174Y746258D01*
X403473Y745257D01*
X406904Y744919D01*
X410334Y745257D01*
X413633Y746258D01*
X416673Y747883D01*
X419338Y750070D01*
X421525Y752734D01*
X423150Y755774D01*
X424151Y759073D01*
X424488Y762504D01*
X424151Y765934D01*
X423150Y769233D01*
X421525Y772273D01*
X419338Y774938D01*
X416673Y777125D01*
X413633Y778750D01*
X410334Y779751D01*
X406904Y780089D01*
X403473Y779751D01*
X400174Y778750D01*
X397134Y777125D01*
X394470Y774938D01*
X392283Y772273D01*
X391474Y770760D01*
X390204Y771078D01*
Y785865D01*
X888659D01*
X912865Y761659D01*
D02*
G37*
G36*
X597709Y755519D02*
X597269Y755230D01*
X596881Y754919D01*
X596545Y754587D01*
X596260Y754234D01*
X596028Y753859D01*
X595847Y753462D01*
X595717Y753044D01*
X595640Y752605D01*
X595614Y752144D01*
X594114D01*
X594088Y752605D01*
X594010Y753044D01*
X593881Y753462D01*
X593700Y753859D01*
X593467Y754234D01*
X593183Y754587D01*
X592846Y754919D01*
X592458Y755230D01*
X592019Y755519D01*
X591527Y755787D01*
X598200D01*
X597709Y755519D01*
D02*
G37*
G36*
X624659Y756288D02*
X622634Y753973D01*
X622139Y753291D01*
X621734Y752652D01*
X621419Y752058D01*
X621194Y751508D01*
X621059Y751003D01*
X621014Y750541D01*
X619514D01*
X619469Y751003D01*
X619334Y751508D01*
X619109Y752058D01*
X618794Y752652D01*
X618389Y753291D01*
X617894Y753973D01*
X616634Y755472D01*
X615869Y756288D01*
X615014Y757148D01*
X625514D01*
X624659Y756288D01*
D02*
G37*
G36*
X640057Y719956D02*
X640081Y719665D01*
X640102Y719537D01*
X640129Y719418D01*
X640162Y719311D01*
X640201Y719214D01*
X640246Y719128D01*
X640297Y719053D01*
X640354Y718989D01*
X638254D01*
X638311Y719053D01*
X638362Y719128D01*
X638407Y719214D01*
X638446Y719311D01*
X638479Y719418D01*
X638506Y719537D01*
X638527Y719665D01*
X638542Y719805D01*
X638554Y720117D01*
X640054D01*
X640057Y719956D01*
D02*
G37*
G36*
X644536Y720019D02*
X644562Y719730D01*
X644585Y719603D01*
X644615Y719486D01*
X644651Y719381D01*
X644695Y719287D01*
X644744Y719204D01*
X644800Y719132D01*
X644864Y719071D01*
X642770Y718901D01*
X642820Y718966D01*
X642865Y719043D01*
X642904Y719130D01*
X642938Y719228D01*
X642967Y719336D01*
X642990Y719455D01*
X643009Y719585D01*
X643029Y719877D01*
X643032Y720039D01*
X644532Y720180D01*
X644536Y720019D01*
D02*
G37*
G36*
X628245Y719828D02*
X628468Y719643D01*
X628574Y719570D01*
X628678Y719509D01*
X628778Y719461D01*
X628875Y719426D01*
X628969Y719403D01*
X629060Y719393D01*
X629147Y719396D01*
X627809Y717777D01*
X627797Y717858D01*
X627774Y717943D01*
X627739Y718031D01*
X627693Y718124D01*
X627636Y718221D01*
X627568Y718321D01*
X627489Y718426D01*
X627297Y718646D01*
X627184Y718763D01*
X628128Y719940D01*
X628245Y719828D01*
D02*
G37*
G36*
X634514Y716433D02*
X634437Y716417D01*
X634357Y716390D01*
X634272Y716353D01*
X634182Y716304D01*
X634088Y716245D01*
X633990Y716175D01*
X633779Y716002D01*
X633667Y715900D01*
X633550Y715786D01*
X632302Y716660D01*
X632414Y716776D01*
X632597Y716999D01*
X632669Y717106D01*
X632728Y717209D01*
X632773Y717310D01*
X632805Y717407D01*
X632824Y717501D01*
X632830Y717591D01*
X632823Y717679D01*
X634514Y716433D01*
D02*
G37*
G36*
X615793Y717160D02*
X615803Y717069D01*
X615826Y716975D01*
X615861Y716878D01*
X615909Y716778D01*
X615970Y716674D01*
X616043Y716568D01*
X616130Y716458D01*
X616228Y716345D01*
X616340Y716228D01*
X615163Y715284D01*
X615047Y715397D01*
X614826Y715589D01*
X614721Y715668D01*
X614621Y715736D01*
X614524Y715793D01*
X614431Y715839D01*
X614343Y715873D01*
X614258Y715897D01*
X614177Y715909D01*
X615796Y717247D01*
X615793Y717160D01*
D02*
G37*
G36*
X610863Y717017D02*
X610866Y716927D01*
X610882Y716834D01*
X610912Y716737D01*
X610956Y716637D01*
X611013Y716534D01*
X611084Y716427D01*
X611168Y716317D01*
X611266Y716204D01*
X611377Y716088D01*
X610076Y715268D01*
X609959Y715382D01*
X609638Y715660D01*
X609542Y715732D01*
X609363Y715842D01*
X609282Y715882D01*
X609205Y715910D01*
X609133Y715928D01*
X610873Y717104D01*
X610863Y717017D01*
D02*
G37*
G36*
X538513Y718940D02*
X537559Y718208D01*
X536097Y716303D01*
X535179Y714085D01*
X534872Y711755D01*
X534821Y711632D01*
X534817Y710421D01*
X534783Y709349D01*
X534621Y707465D01*
X534504Y706725D01*
X534362Y706085D01*
X534204Y705569D01*
X534043Y705182D01*
X533897Y704929D01*
X533684Y704670D01*
X533640Y704524D01*
X528682Y699566D01*
X528184Y698822D01*
X528010Y697944D01*
Y690891D01*
X526740Y690638D01*
X526630Y690903D01*
X525168Y692808D01*
X523263Y694270D01*
X521045Y695189D01*
X518664Y695502D01*
X516283Y695189D01*
X514064Y694270D01*
X512159Y692808D01*
X510698Y690903D01*
X509779Y688685D01*
X509465Y686304D01*
X509779Y683923D01*
X510698Y681704D01*
X512159Y679799D01*
X514064Y678337D01*
X516283Y677419D01*
X518664Y677105D01*
X521045Y677419D01*
X523263Y678337D01*
X525168Y679799D01*
X526630Y681704D01*
X526740Y681969D01*
X528010Y681717D01*
Y665491D01*
X526740Y665238D01*
X526630Y665503D01*
X525168Y667408D01*
X523263Y668870D01*
X521045Y669789D01*
X518664Y670102D01*
X516283Y669789D01*
X514064Y668870D01*
X512159Y667408D01*
X510698Y665503D01*
X509779Y663285D01*
X509465Y660904D01*
X509779Y658523D01*
X510698Y656304D01*
X512159Y654399D01*
X514064Y652937D01*
X516283Y652019D01*
X518664Y651705D01*
X521045Y652019D01*
X523263Y652937D01*
X525168Y654399D01*
X526630Y656304D01*
X526740Y656569D01*
X528010Y656317D01*
Y640091D01*
X526740Y639838D01*
X526630Y640103D01*
X525168Y642008D01*
X523263Y643470D01*
X521045Y644389D01*
X518664Y644703D01*
X516283Y644389D01*
X514064Y643470D01*
X512159Y642008D01*
X510698Y640103D01*
X509779Y637885D01*
X509472Y635555D01*
X509421Y635432D01*
X509417Y634221D01*
X509383Y633149D01*
X509221Y631265D01*
X509104Y630525D01*
X508962Y629885D01*
X508804Y629369D01*
X508643Y628982D01*
X508497Y628729D01*
X508284Y628470D01*
X508240Y628324D01*
X504182Y624266D01*
X503684Y623522D01*
X503510Y622644D01*
Y611879D01*
X502240Y611796D01*
X502149Y612485D01*
X501230Y614703D01*
X499768Y616608D01*
X497863Y618070D01*
X495645Y618989D01*
X493264Y619302D01*
X490883Y618989D01*
X488665Y618070D01*
X486759Y616608D01*
X485298Y614703D01*
X484379Y612485D01*
X484065Y610104D01*
X484379Y607723D01*
X485298Y605504D01*
X486759Y603599D01*
X488665Y602137D01*
X490883Y601219D01*
X493264Y600905D01*
X495645Y601219D01*
X497863Y602137D01*
X499768Y603599D01*
X501230Y605504D01*
X502149Y607723D01*
X502240Y608412D01*
X503510Y608329D01*
Y562254D01*
X494282Y553026D01*
X493784Y552282D01*
X493610Y551404D01*
Y547929D01*
X492436Y547443D01*
X470158Y569722D01*
Y597656D01*
X470230Y597790D01*
X470262Y598124D01*
X470338Y598407D01*
X470497Y598794D01*
X470751Y599270D01*
X471103Y599823D01*
X471534Y600417D01*
X473514Y602678D01*
X474349Y603517D01*
X474400Y603640D01*
X475830Y605504D01*
X476749Y607723D01*
X477062Y610104D01*
Y635504D01*
X476749Y637885D01*
X475830Y640103D01*
X474368Y642008D01*
X472463Y643470D01*
X470245Y644389D01*
X467864Y644703D01*
X465483Y644389D01*
X463265Y643470D01*
X461359Y642008D01*
X459897Y640103D01*
X458979Y637885D01*
X458672Y635555D01*
X458621Y635432D01*
X458617Y634221D01*
X458583Y633149D01*
X458421Y631265D01*
X458304Y630525D01*
X458162Y629885D01*
X458004Y629369D01*
X457843Y628982D01*
X457697Y628729D01*
X457484Y628470D01*
X457440Y628324D01*
X452482Y623366D01*
X451984Y622622D01*
X451810Y621744D01*
Y614691D01*
X450540Y614438D01*
X450430Y614703D01*
X448968Y616608D01*
X447063Y618070D01*
X444845Y618989D01*
X442464Y619302D01*
X440083Y618989D01*
X437864Y618070D01*
X436158Y616761D01*
X434888Y617099D01*
Y624684D01*
X435284Y625080D01*
X435430Y625124D01*
X435689Y625337D01*
X435942Y625483D01*
X436329Y625644D01*
X436845Y625802D01*
X437485Y625944D01*
X438209Y626059D01*
X441208Y626257D01*
X442392Y626261D01*
X442515Y626312D01*
X444845Y626619D01*
X447063Y627537D01*
X448968Y628999D01*
X450430Y630905D01*
X451349Y633123D01*
X451662Y635504D01*
X451349Y637885D01*
X450430Y640103D01*
X448968Y642008D01*
X447063Y643470D01*
X444845Y644389D01*
X442464Y644703D01*
X442161Y644663D01*
X441400Y645843D01*
X441566Y646110D01*
X455364D01*
X456242Y646284D01*
X456986Y646782D01*
X460684Y650480D01*
X460830Y650524D01*
X461089Y650737D01*
X461342Y650883D01*
X461729Y651044D01*
X462245Y651202D01*
X462885Y651344D01*
X463609Y651459D01*
X466608Y651657D01*
X467792Y651661D01*
X467915Y651712D01*
X470245Y652019D01*
X472463Y652937D01*
X474368Y654399D01*
X475830Y656304D01*
X476749Y658523D01*
X477062Y660904D01*
X476749Y663285D01*
X475830Y665503D01*
X474368Y667408D01*
X472463Y668870D01*
X470245Y669789D01*
X467864Y670102D01*
X465483Y669789D01*
X463265Y668870D01*
X461359Y667408D01*
X459897Y665503D01*
X458979Y663285D01*
X458672Y660955D01*
X458621Y660832D01*
X458617Y659621D01*
X458583Y658549D01*
X458421Y656665D01*
X458304Y655925D01*
X458162Y655285D01*
X458004Y654769D01*
X457843Y654382D01*
X457697Y654129D01*
X457484Y653870D01*
X457440Y653724D01*
X454414Y650698D01*
X445036D01*
X444941Y651102D01*
X444845Y652019D01*
X447063Y652937D01*
X448968Y654399D01*
X450430Y656304D01*
X451349Y658523D01*
X451656Y660853D01*
X451707Y660975D01*
X451711Y662187D01*
X451744Y663258D01*
X451906Y665142D01*
X452024Y665883D01*
X452166Y666523D01*
X452323Y667039D01*
X452485Y667425D01*
X452631Y667679D01*
X452844Y667938D01*
X452888Y668084D01*
X457626Y672822D01*
X458123Y673566D01*
X458298Y674444D01*
Y682248D01*
X459568Y682500D01*
X459897Y681704D01*
X461359Y679799D01*
X463265Y678337D01*
X465483Y677419D01*
X467864Y677105D01*
X470245Y677419D01*
X472463Y678337D01*
X474368Y679799D01*
X475830Y681704D01*
X476749Y683923D01*
X477062Y686304D01*
X476749Y688685D01*
X475830Y690903D01*
X474368Y692808D01*
X472463Y694270D01*
X470245Y695189D01*
X467864Y695502D01*
X465483Y695189D01*
X463265Y694270D01*
X461359Y692808D01*
X459897Y690903D01*
X459568Y690107D01*
X458298Y690360D01*
Y707648D01*
X459568Y707900D01*
X459897Y707104D01*
X461359Y705199D01*
X463265Y703737D01*
X465483Y702819D01*
X467864Y702505D01*
X470245Y702819D01*
X472463Y703737D01*
X474368Y705199D01*
X475830Y707104D01*
X476749Y709323D01*
X477062Y711704D01*
X476749Y714085D01*
X475830Y716303D01*
X474368Y718208D01*
X473415Y718940D01*
X473846Y720210D01*
X487282D01*
X487713Y718940D01*
X486759Y718208D01*
X485298Y716303D01*
X484379Y714085D01*
X484065Y711704D01*
X484379Y709323D01*
X485298Y707104D01*
X486759Y705199D01*
X488665Y703737D01*
X490883Y702819D01*
X493264Y702505D01*
X495645Y702819D01*
X497863Y703737D01*
X499768Y705199D01*
X501230Y707104D01*
X502149Y709323D01*
X502463Y711704D01*
X502149Y714085D01*
X501230Y716303D01*
X499768Y718208D01*
X498815Y718940D01*
X499246Y720210D01*
X511150D01*
X511558Y719007D01*
X511446Y718922D01*
X509824Y716807D01*
X508804Y714346D01*
X508720Y713704D01*
X528608D01*
X528523Y714346D01*
X527504Y716807D01*
X525882Y718922D01*
X525770Y719007D01*
X526178Y720210D01*
X538082D01*
X538513Y718940D01*
D02*
G37*
G36*
X567628Y771340D02*
X567114Y771272D01*
X564925Y770365D01*
X563045Y768923D01*
X561602Y767043D01*
X560695Y764853D01*
X560386Y762504D01*
X560695Y760154D01*
X561602Y757965D01*
X563045Y756085D01*
X564925Y754642D01*
X567114Y753736D01*
X569407Y753434D01*
X569534Y753381D01*
X570723Y753377D01*
X571773Y753343D01*
X573621Y753184D01*
X574347Y753068D01*
X574974Y752928D01*
X575480Y752772D01*
X575858Y752614D01*
X576106Y752470D01*
X576361Y752261D01*
X576507Y752216D01*
X580542Y748182D01*
X581286Y747684D01*
X582164Y747510D01*
X590954D01*
X625095Y713368D01*
X624569Y712098D01*
X622654D01*
X617647Y717105D01*
X617606Y717244D01*
X617539Y717281D01*
X617512Y717352D01*
X617426Y717441D01*
X617380Y717494D01*
X617352Y717530D01*
X617342Y717544D01*
X617329Y717572D01*
X617130Y718574D01*
X616467Y719567D01*
X615474Y720230D01*
X614304Y720463D01*
X613133Y720230D01*
X612800Y720007D01*
X611854Y719669D01*
X610908Y720007D01*
X610574Y720230D01*
X609404Y720463D01*
X608233Y720230D01*
X607241Y719567D01*
X606578Y718574D01*
X606345Y717404D01*
X606578Y716233D01*
X607241Y715241D01*
X608233Y714578D01*
X608456Y714533D01*
X608507Y714463D01*
X608576Y714420D01*
X608577Y714419D01*
X608580Y714417D01*
X608626Y714389D01*
X608859Y714187D01*
X608942Y714106D01*
X609129Y714031D01*
X617108Y706052D01*
X616582Y704782D01*
X576488D01*
X574927Y704472D01*
X573604Y703588D01*
X572933Y702582D01*
X571512Y702206D01*
X568998Y704721D01*
Y733946D01*
X568823Y734824D01*
X568326Y735569D01*
X551169Y752726D01*
X550424Y753223D01*
X549546Y753398D01*
X548917D01*
X548624Y754559D01*
X548636Y754668D01*
X550483Y756085D01*
X551925Y757965D01*
X552832Y760154D01*
X553134Y762447D01*
X553187Y762574D01*
X553190Y763764D01*
X553224Y764813D01*
X553384Y766662D01*
X553500Y767387D01*
X553640Y768014D01*
X553795Y768520D01*
X553954Y768898D01*
X554097Y769146D01*
X554307Y769401D01*
X554351Y769547D01*
X557414Y772610D01*
X567545D01*
X567628Y771340D01*
D02*
G37*
G36*
X451589Y719768D02*
X451291Y719406D01*
X451026Y718947D01*
X450794Y718390D01*
X450595Y717737D01*
X450428Y716986D01*
X450294Y716139D01*
X450123Y714154D01*
X450087Y713015D01*
X450083Y711780D01*
X442540Y719323D01*
X443775Y719327D01*
X446899Y719533D01*
X447746Y719668D01*
X448497Y719835D01*
X449150Y720034D01*
X449706Y720266D01*
X450166Y720531D01*
X450528Y720829D01*
X451589Y719768D01*
D02*
G37*
G36*
X678815Y709754D02*
X678702Y709638D01*
X678510Y709417D01*
X678430Y709313D01*
X678362Y709212D01*
X678305Y709116D01*
X678259Y709023D01*
X678224Y708935D01*
X678200Y708851D01*
X678188Y708770D01*
X676841Y708757D01*
X676857Y710395D01*
X676945Y710392D01*
X677036Y710402D01*
X677130Y710424D01*
X677227Y710459D01*
X677327Y710507D01*
X677430Y710567D01*
X677537Y710641D01*
X677647Y710727D01*
X677760Y710826D01*
X677877Y710937D01*
X678815Y709754D01*
D02*
G37*
G36*
X667689Y709828D02*
X667577Y709712D01*
X667389Y709490D01*
X667312Y709384D01*
X667248Y709281D01*
X667195Y709182D01*
X667155Y709086D01*
X667126Y708994D01*
X667109Y708904D01*
X667104Y708819D01*
X665619Y710304D01*
X665704Y710309D01*
X665794Y710326D01*
X665886Y710355D01*
X665982Y710395D01*
X666081Y710448D01*
X666184Y710512D01*
X666290Y710589D01*
X666399Y710677D01*
X666628Y710889D01*
X667689Y709828D01*
D02*
G37*
G36*
X676827Y707410D02*
X676747Y707397D01*
X676663Y707374D01*
X676574Y707339D01*
X676482Y707293D01*
X676385Y707235D01*
X676285Y707167D01*
X676181Y707088D01*
X675960Y706896D01*
X675843Y706783D01*
X674660Y707721D01*
X674772Y707837D01*
X674871Y707951D01*
X674957Y708060D01*
X675030Y708167D01*
X675091Y708271D01*
X675139Y708371D01*
X675174Y708468D01*
X675196Y708562D01*
X675206Y708653D01*
X675203Y708740D01*
X676841Y708757D01*
X676827Y707410D01*
D02*
G37*
G36*
X665589Y707304D02*
X665503Y707299D01*
X665414Y707282D01*
X665322Y707253D01*
X665226Y707212D01*
X665126Y707160D01*
X665024Y707095D01*
X664918Y707019D01*
X664808Y706931D01*
X664579Y706719D01*
X663519Y707779D01*
X663631Y707895D01*
X663819Y708118D01*
X663895Y708224D01*
X663960Y708326D01*
X664012Y708426D01*
X664053Y708521D01*
X664082Y708614D01*
X664099Y708703D01*
X664104Y708789D01*
X665589Y707304D01*
D02*
G37*
G36*
X543988Y704084D02*
X542752Y704081D01*
X539629Y703874D01*
X538781Y703740D01*
X538031Y703573D01*
X537378Y703373D01*
X536821Y703141D01*
X536362Y702876D01*
X535999Y702579D01*
X534939Y703639D01*
X535236Y704002D01*
X535501Y704461D01*
X535733Y705017D01*
X535933Y705671D01*
X536100Y706421D01*
X536234Y707269D01*
X536404Y709254D01*
X536441Y710392D01*
X536444Y711628D01*
X543988Y704084D01*
D02*
G37*
G36*
X810097Y694968D02*
X810046Y694893D01*
X810001Y694808D01*
X809962Y694711D01*
X809929Y694604D01*
X809902Y694485D01*
X809881Y694357D01*
X809866Y694217D01*
X809854Y693905D01*
X808354D01*
X808351Y694066D01*
X808327Y694357D01*
X808306Y694485D01*
X808279Y694604D01*
X808246Y694711D01*
X808207Y694808D01*
X808162Y694893D01*
X808111Y694968D01*
X808054Y695033D01*
X810154D01*
X810097Y694968D01*
D02*
G37*
G36*
X543988Y678684D02*
X542752Y678681D01*
X539629Y678474D01*
X538781Y678340D01*
X538031Y678173D01*
X537378Y677973D01*
X536821Y677741D01*
X536362Y677476D01*
X535999Y677179D01*
X534939Y678239D01*
X535236Y678602D01*
X535501Y679061D01*
X535733Y679617D01*
X535933Y680271D01*
X536100Y681021D01*
X536234Y681869D01*
X536404Y683854D01*
X536441Y684992D01*
X536444Y686228D01*
X543988Y678684D01*
D02*
G37*
G36*
X790395Y678877D02*
X790618Y678689D01*
X790724Y678612D01*
X790826Y678548D01*
X790926Y678495D01*
X791021Y678455D01*
X791114Y678426D01*
X791203Y678409D01*
X791289Y678404D01*
X789804Y676919D01*
X789799Y677004D01*
X789782Y677094D01*
X789753Y677186D01*
X789712Y677282D01*
X789660Y677381D01*
X789595Y677484D01*
X789519Y677590D01*
X789431Y677699D01*
X789219Y677928D01*
X790279Y678989D01*
X790395Y678877D01*
D02*
G37*
G36*
X443052Y678707D02*
X441764Y678594D01*
X437671Y677964D01*
X436912Y677762D01*
X436260Y677542D01*
X435713Y677305D01*
X435272Y677049D01*
X434937Y676776D01*
X433783Y677744D01*
X434099Y678127D01*
X434369Y678599D01*
X434594Y679159D01*
X434772Y679808D01*
X434905Y680546D01*
X434991Y681372D01*
X435032Y682287D01*
X434977Y684383D01*
X434880Y685563D01*
X443052Y678707D01*
D02*
G37*
G36*
X451589Y668968D02*
X451291Y668606D01*
X451026Y668147D01*
X450794Y667590D01*
X450595Y666937D01*
X450428Y666186D01*
X450294Y665339D01*
X450123Y663354D01*
X450087Y662215D01*
X450083Y660980D01*
X442540Y668523D01*
X443775Y668527D01*
X446899Y668734D01*
X447746Y668868D01*
X448497Y669035D01*
X449150Y669234D01*
X449706Y669466D01*
X450166Y669731D01*
X450528Y670029D01*
X451589Y668968D01*
D02*
G37*
G36*
X551687Y659592D02*
X551894Y656469D01*
X552028Y655621D01*
X552195Y654871D01*
X552394Y654218D01*
X552626Y653661D01*
X552891Y653202D01*
X553189Y652839D01*
X552128Y651779D01*
X551766Y652076D01*
X551306Y652341D01*
X550750Y652573D01*
X550097Y652773D01*
X549346Y652940D01*
X548499Y653074D01*
X546513Y653244D01*
X545375Y653281D01*
X544140Y653284D01*
X551683Y660828D01*
X551687Y659592D01*
D02*
G37*
G36*
X467788Y653284D02*
X466552Y653281D01*
X463429Y653074D01*
X462581Y652940D01*
X461831Y652773D01*
X461177Y652573D01*
X460621Y652341D01*
X460162Y652076D01*
X459799Y651779D01*
X458739Y652839D01*
X459036Y653202D01*
X459301Y653661D01*
X459533Y654218D01*
X459733Y654871D01*
X459900Y655621D01*
X460034Y656469D01*
X460205Y658454D01*
X460241Y659592D01*
X460244Y660828D01*
X467788Y653284D01*
D02*
G37*
G36*
X444328Y653515D02*
X442933Y653156D01*
X436722Y651143D01*
X436342Y650927D01*
X436089Y650729D01*
X434748Y651509D01*
X435089Y651920D01*
X435362Y652404D01*
X435568Y652960D01*
X435706Y653590D01*
X435776Y654292D01*
X435779Y655066D01*
X435714Y655914D01*
X435582Y656834D01*
X435382Y657827D01*
X435114Y658893D01*
X444328Y653515D01*
D02*
G37*
G36*
X869789Y643504D02*
X869703Y643499D01*
X869614Y643482D01*
X869521Y643453D01*
X869426Y643412D01*
X869326Y643360D01*
X869224Y643295D01*
X869118Y643219D01*
X869008Y643131D01*
X868779Y642918D01*
X867719Y643979D01*
X867831Y644095D01*
X868019Y644318D01*
X868095Y644424D01*
X868160Y644526D01*
X868212Y644626D01*
X868253Y644722D01*
X868282Y644814D01*
X868299Y644903D01*
X868304Y644989D01*
X869789Y643504D01*
D02*
G37*
G36*
X555410Y715454D02*
Y700043D01*
X555584Y699165D01*
X556082Y698421D01*
X570421Y684082D01*
X570421Y684082D01*
X571165Y683584D01*
X572043Y683410D01*
X572043Y683410D01*
X585609D01*
X586287Y682140D01*
X586107Y681870D01*
X585835Y680504D01*
X586107Y679138D01*
X586880Y677980D01*
X600381Y664480D01*
X601538Y663707D01*
X602904Y663435D01*
X732004D01*
X733370Y663707D01*
X734527Y664480D01*
X735301Y665638D01*
X735572Y667004D01*
X735301Y668369D01*
X734527Y669527D01*
X733370Y670301D01*
X732004Y670572D01*
X639403D01*
X639001Y671089D01*
X638835Y671842D01*
X639254Y672154D01*
X639804Y672045D01*
X640974Y672278D01*
X641168Y672407D01*
X642154Y672855D01*
X643137Y672407D01*
X643332Y672277D01*
X644502Y672044D01*
X645673Y672277D01*
X646665Y672940D01*
X647328Y673932D01*
X647561Y675102D01*
X647328Y676273D01*
X646665Y677265D01*
X645673Y677928D01*
X644502Y678161D01*
X643332Y677928D01*
X643138Y677799D01*
X642152Y677351D01*
X641169Y677800D01*
X640974Y677930D01*
X639810Y678161D01*
X639628Y679073D01*
X638965Y680065D01*
X637973Y680728D01*
X636802Y680961D01*
X635632Y680728D01*
X634640Y680065D01*
X633977Y679073D01*
X633744Y677903D01*
X633977Y676732D01*
X634180Y676427D01*
X633640Y676065D01*
X632977Y675073D01*
X632744Y673903D01*
X632977Y672732D01*
X633571Y671842D01*
X633452Y671334D01*
X633101Y670572D01*
X604382D01*
X592815Y682140D01*
X593341Y683410D01*
X605341D01*
X606342Y682140D01*
X606295Y681904D01*
X606528Y680733D01*
X607191Y679741D01*
X608183Y679078D01*
X609354Y678845D01*
X610524Y679078D01*
X611517Y679741D01*
X612141D01*
X613133Y679078D01*
X614304Y678845D01*
X615474Y679078D01*
X616467Y679741D01*
X617130Y680733D01*
X617363Y681904D01*
X617316Y682140D01*
X618317Y683410D01*
X664804D01*
X665682Y683584D01*
X666426Y684082D01*
X685254Y702910D01*
X705454D01*
X723182Y685182D01*
X723182Y685182D01*
X723926Y684684D01*
X724804Y684510D01*
X780454D01*
X787962Y677001D01*
X788027Y676825D01*
X788201Y676637D01*
X788227Y676605D01*
X788248Y676577D01*
X788248Y676576D01*
X788259Y676552D01*
X788266Y676545D01*
X788278Y676522D01*
X788330Y676479D01*
X788478Y675733D01*
X789141Y674741D01*
X790133Y674078D01*
X791304Y673845D01*
X791840Y673952D01*
X793110Y673091D01*
Y633439D01*
X769032Y609361D01*
X768534Y608617D01*
X768360Y607739D01*
Y602371D01*
X768156Y602166D01*
X767090Y601546D01*
X765904Y601782D01*
X764343Y601472D01*
X763020Y600588D01*
X762136Y599264D01*
X761825Y597704D01*
X761825Y597703D01*
Y514793D01*
X714320Y467288D01*
X713436Y465965D01*
X713125Y464404D01*
X713125Y464404D01*
Y446993D01*
X706915Y440782D01*
X647793D01*
X641888Y446688D01*
X640564Y447572D01*
X639004Y447882D01*
X637443Y447572D01*
X636120Y446688D01*
X635236Y445364D01*
X634925Y443804D01*
X635236Y442243D01*
X636120Y440920D01*
X643220Y433820D01*
X643220Y433820D01*
X644543Y432936D01*
X646104Y432625D01*
X708604D01*
X708604Y432625D01*
X708834Y432671D01*
X709460Y431501D01*
X688947Y410988D01*
X625457D01*
X625457Y410988D01*
X624579Y410813D01*
X623835Y410316D01*
X623835Y410316D01*
X618217Y404698D01*
X530117D01*
X529295Y405553D01*
X529235Y405968D01*
X529282Y406023D01*
X529358Y406102D01*
X529431Y406286D01*
X539326Y416182D01*
X539326Y416182D01*
X539823Y416926D01*
X539998Y417804D01*
Y518653D01*
X556106Y534762D01*
X556282Y534827D01*
X556470Y535001D01*
X556502Y535027D01*
X556531Y535048D01*
X556532Y535048D01*
X556556Y535059D01*
X556563Y535065D01*
X556586Y535078D01*
X556629Y535130D01*
X557374Y535278D01*
X558367Y535941D01*
X559030Y536933D01*
X559263Y538104D01*
X559030Y539274D01*
X558367Y540267D01*
X557374Y540930D01*
X556204Y541163D01*
X555033Y540930D01*
X554041Y540267D01*
X553378Y539274D01*
X553230Y538529D01*
X553178Y538486D01*
X553166Y538463D01*
X553158Y538456D01*
X553148Y538432D01*
X553148Y538431D01*
X553139Y538418D01*
X553025Y538284D01*
X552949Y538206D01*
X552877Y538021D01*
X537068Y522212D01*
X535798Y522738D01*
Y529104D01*
X535798Y529104D01*
X535623Y529982D01*
X535126Y530726D01*
X521548Y544304D01*
Y547625D01*
X522818Y548462D01*
X523404Y548345D01*
X524574Y548578D01*
X525206Y549000D01*
X525273Y548994D01*
X525298Y549001D01*
X525308Y549001D01*
X525333Y549011D01*
X525334Y549012D01*
X525349Y549014D01*
X525523Y549028D01*
X525633Y549030D01*
X525815Y549110D01*
X557934D01*
X558812Y549284D01*
X559556Y549782D01*
X561928Y552154D01*
X562045Y552183D01*
X562101Y552276D01*
X562202Y552315D01*
X562290Y552400D01*
X562340Y552444D01*
X562355Y552455D01*
X563474Y552678D01*
X564440Y553323D01*
X564612Y553291D01*
X565710Y552915D01*
Y473236D01*
X565631Y473065D01*
X565622Y472809D01*
X565617Y472768D01*
X565612Y472734D01*
X565611Y472733D01*
X565601Y472708D01*
X565602Y472698D01*
X565594Y472673D01*
X565600Y472606D01*
X565178Y471974D01*
X564945Y470804D01*
X565178Y469633D01*
X565841Y468641D01*
X566833Y467978D01*
X568004Y467745D01*
X569174Y467978D01*
X570167Y468641D01*
X570830Y469633D01*
X571063Y470804D01*
X570830Y471974D01*
X570407Y472606D01*
X570414Y472673D01*
X570406Y472698D01*
X570406Y472708D01*
X570396Y472733D01*
X570396Y472734D01*
X570394Y472749D01*
X570379Y472923D01*
X570377Y473033D01*
X570298Y473215D01*
Y611564D01*
X570298Y611564D01*
X570123Y612442D01*
X569626Y613186D01*
X569626Y613186D01*
X554488Y628324D01*
X554444Y628470D01*
X554231Y628729D01*
X554085Y628982D01*
X553923Y629369D01*
X553766Y629885D01*
X553624Y630525D01*
X553509Y631249D01*
X553310Y634248D01*
X553307Y635432D01*
X553256Y635555D01*
X552949Y637885D01*
X552030Y640103D01*
X550568Y642008D01*
X548663Y643470D01*
X546445Y644389D01*
X544064Y644703D01*
X541683Y644389D01*
X539464Y643470D01*
X537559Y642008D01*
X536868Y641107D01*
X535598Y641538D01*
Y654869D01*
X536868Y655301D01*
X537559Y654399D01*
X539464Y652937D01*
X541683Y652019D01*
X544013Y651712D01*
X544135Y651661D01*
X545347Y651657D01*
X546418Y651623D01*
X548302Y651461D01*
X549043Y651344D01*
X549683Y651202D01*
X550199Y651044D01*
X550585Y650883D01*
X550839Y650737D01*
X551098Y650524D01*
X551244Y650480D01*
X572610Y629114D01*
Y565936D01*
X572531Y565765D01*
X572522Y565509D01*
X572517Y565468D01*
X572512Y565434D01*
X572511Y565433D01*
X572501Y565408D01*
X572501Y565398D01*
X572494Y565373D01*
X572500Y565306D01*
X572078Y564674D01*
X571845Y563504D01*
X572078Y562333D01*
X572741Y561341D01*
X573733Y560678D01*
X574904Y560445D01*
X576074Y560678D01*
X577067Y561341D01*
X577730Y562333D01*
X577963Y563504D01*
X577730Y564674D01*
X577307Y565306D01*
X577314Y565373D01*
X577306Y565398D01*
X577306Y565408D01*
X577296Y565433D01*
X577296Y565434D01*
X577294Y565449D01*
X577279Y565624D01*
X577277Y565733D01*
X577198Y565915D01*
Y630064D01*
X577023Y630942D01*
X576526Y631686D01*
X571535Y636677D01*
X572160Y637848D01*
X572174Y637845D01*
X573344Y638078D01*
X574337Y638741D01*
X575000Y639733D01*
X575233Y640904D01*
X575000Y642074D01*
X574337Y643067D01*
X573344Y643730D01*
X572174Y643963D01*
X571003Y643730D01*
X570011Y643067D01*
X569348Y642074D01*
X569115Y640904D01*
X569118Y640890D01*
X567947Y640265D01*
X554488Y653724D01*
X554444Y653870D01*
X554231Y654129D01*
X554085Y654382D01*
X553923Y654769D01*
X553766Y655285D01*
X553624Y655925D01*
X553509Y656649D01*
X553310Y659648D01*
X553307Y660832D01*
X553256Y660955D01*
X552949Y663285D01*
X552030Y665503D01*
X550568Y667408D01*
X548663Y668870D01*
X546445Y669789D01*
X544064Y670102D01*
X541683Y669789D01*
X539464Y668870D01*
X537559Y667408D01*
X536868Y666507D01*
X535598Y666938D01*
Y674594D01*
X536884Y675880D01*
X537030Y675924D01*
X537289Y676137D01*
X537542Y676283D01*
X537929Y676444D01*
X538445Y676602D01*
X539085Y676744D01*
X539809Y676859D01*
X542808Y677057D01*
X543992Y677061D01*
X544115Y677112D01*
X546445Y677419D01*
X548663Y678337D01*
X550568Y679799D01*
X552030Y681704D01*
X552949Y683923D01*
X553262Y686304D01*
X552949Y688685D01*
X552030Y690903D01*
X550568Y692808D01*
X548663Y694270D01*
X546445Y695189D01*
X544064Y695502D01*
X541683Y695189D01*
X539464Y694270D01*
X537559Y692808D01*
X536097Y690903D01*
X535179Y688685D01*
X534872Y686355D01*
X534821Y686232D01*
X534817Y685021D01*
X534783Y683949D01*
X534621Y682065D01*
X534504Y681325D01*
X534362Y680685D01*
X534204Y680169D01*
X534043Y679782D01*
X533897Y679529D01*
X533868Y679494D01*
X532815Y679691D01*
X532598Y679796D01*
Y696994D01*
X536884Y701280D01*
X537030Y701324D01*
X537289Y701537D01*
X537542Y701683D01*
X537929Y701844D01*
X538445Y702002D01*
X539085Y702144D01*
X539809Y702259D01*
X542808Y702457D01*
X543992Y702461D01*
X544115Y702512D01*
X546445Y702819D01*
X548663Y703737D01*
X550568Y705199D01*
X552030Y707104D01*
X552949Y709323D01*
X553262Y711704D01*
X552949Y714085D01*
X552030Y716303D01*
X550568Y718208D01*
X550561Y718214D01*
X550861Y719584D01*
X551201Y719662D01*
X555410Y715454D01*
D02*
G37*
G36*
X551687Y634192D02*
X551894Y631069D01*
X552028Y630221D01*
X552195Y629471D01*
X552394Y628817D01*
X552626Y628261D01*
X552891Y627802D01*
X553189Y627439D01*
X552128Y626379D01*
X551766Y626676D01*
X551306Y626941D01*
X550750Y627173D01*
X550097Y627373D01*
X549346Y627540D01*
X548499Y627674D01*
X546513Y627845D01*
X545375Y627881D01*
X544140Y627884D01*
X551683Y635428D01*
X551687Y634192D01*
D02*
G37*
G36*
X518588Y627884D02*
X517352Y627881D01*
X514229Y627674D01*
X513381Y627540D01*
X512631Y627373D01*
X511978Y627173D01*
X511421Y626941D01*
X510962Y626676D01*
X510599Y626379D01*
X509539Y627439D01*
X509836Y627802D01*
X510101Y628261D01*
X510333Y628817D01*
X510533Y629471D01*
X510700Y630221D01*
X510834Y631069D01*
X511004Y633054D01*
X511041Y634192D01*
X511044Y635428D01*
X518588Y627884D01*
D02*
G37*
G36*
X467788D02*
X466552Y627881D01*
X463429Y627674D01*
X462581Y627540D01*
X461831Y627373D01*
X461177Y627173D01*
X460621Y626941D01*
X460162Y626676D01*
X459799Y626379D01*
X458739Y627439D01*
X459036Y627802D01*
X459301Y628261D01*
X459533Y628817D01*
X459733Y629471D01*
X459900Y630221D01*
X460034Y631069D01*
X460205Y633054D01*
X460241Y634192D01*
X460244Y635428D01*
X467788Y627884D01*
D02*
G37*
G36*
X442388D02*
X441152Y627881D01*
X438029Y627674D01*
X437181Y627540D01*
X436431Y627373D01*
X435778Y627173D01*
X435221Y626941D01*
X434762Y626676D01*
X434399Y626379D01*
X433339Y627439D01*
X433636Y627802D01*
X433901Y628261D01*
X434133Y628817D01*
X434333Y629471D01*
X434500Y630221D01*
X434634Y631069D01*
X434804Y633054D01*
X434841Y634192D01*
X434844Y635428D01*
X442388Y627884D01*
D02*
G37*
G36*
X518448Y602487D02*
X517260Y602504D01*
X514238Y602335D01*
X513412Y602206D01*
X512676Y602040D01*
X512030Y601838D01*
X511474Y601600D01*
X511009Y601325D01*
X510634Y601013D01*
X509574Y602074D01*
X509885Y602449D01*
X510160Y602914D01*
X510398Y603470D01*
X510600Y604115D01*
X510766Y604852D01*
X510895Y605678D01*
X510988Y606595D01*
X511064Y608700D01*
X511047Y609888D01*
X518448Y602487D01*
D02*
G37*
G36*
X537559Y628999D02*
X539464Y627537D01*
X541683Y626619D01*
X544013Y626312D01*
X544135Y626261D01*
X545347Y626257D01*
X546418Y626223D01*
X548302Y626061D01*
X549043Y625944D01*
X549683Y625802D01*
X550199Y625644D01*
X550585Y625483D01*
X550839Y625337D01*
X551098Y625124D01*
X551244Y625080D01*
X565710Y610614D01*
Y558092D01*
X564612Y557716D01*
X564440Y557685D01*
X563474Y558330D01*
X562304Y558563D01*
X561133Y558330D01*
X560141Y557667D01*
X559478Y556674D01*
X559397Y556266D01*
X559392Y556262D01*
X559309Y556192D01*
X559306Y556190D01*
X559306Y556189D01*
X559298Y556183D01*
X559283Y556153D01*
X559277Y556148D01*
X559272Y556135D01*
X559085Y555914D01*
X559011Y555838D01*
X558937Y555652D01*
X556984Y553698D01*
X525835D01*
X525665Y553776D01*
X525409Y553786D01*
X525368Y553790D01*
X525334Y553796D01*
X525333Y553796D01*
X525308Y553806D01*
X525298Y553806D01*
X525273Y553814D01*
X525206Y553807D01*
X524574Y554230D01*
X523404Y554463D01*
X522818Y554346D01*
X521780Y555030D01*
X521694Y556350D01*
X521907Y556562D01*
X522082Y556627D01*
X522270Y556801D01*
X522302Y556827D01*
X522331Y556848D01*
X522332Y556848D01*
X522356Y556858D01*
X522363Y556866D01*
X522386Y556878D01*
X522429Y556930D01*
X523174Y557078D01*
X524167Y557741D01*
X524830Y558733D01*
X525063Y559904D01*
X524830Y561074D01*
X524167Y562067D01*
X523174Y562730D01*
X522004Y562963D01*
X520833Y562730D01*
X519841Y562067D01*
X519668Y561808D01*
X518398Y562193D01*
Y585211D01*
X534926Y601739D01*
X535423Y602483D01*
X535598Y603361D01*
Y604069D01*
X536868Y604501D01*
X537559Y603599D01*
X539464Y602137D01*
X541683Y601219D01*
X544064Y600905D01*
X546445Y601219D01*
X548663Y602137D01*
X550568Y603599D01*
X552030Y605504D01*
X552949Y607723D01*
X553262Y610104D01*
X552949Y612485D01*
X552030Y614703D01*
X550568Y616608D01*
X548663Y618070D01*
X546445Y618989D01*
X544064Y619302D01*
X541683Y618989D01*
X539464Y618070D01*
X537559Y616608D01*
X536868Y615707D01*
X535598Y616138D01*
Y629469D01*
X536868Y629901D01*
X537559Y628999D01*
D02*
G37*
G36*
X472327Y603786D02*
X470264Y601431D01*
X469760Y600737D01*
X469347Y600089D01*
X469026Y599485D01*
X468797Y598928D01*
X468660Y598415D01*
X468614Y597949D01*
X467114D01*
X467068Y598415D01*
X466931Y598928D01*
X466701Y599485D01*
X466380Y600089D01*
X465968Y600737D01*
X465464Y601431D01*
X464180Y602956D01*
X463401Y603786D01*
X462530Y604662D01*
X473198D01*
X472327Y603786D01*
D02*
G37*
G36*
X446927D02*
X444864Y601431D01*
X444360Y600737D01*
X443947Y600089D01*
X443626Y599485D01*
X443397Y598928D01*
X443260Y598415D01*
X443214Y597949D01*
X441714D01*
X441668Y598415D01*
X441530Y598928D01*
X441301Y599485D01*
X440980Y600089D01*
X440568Y600737D01*
X440064Y601431D01*
X438780Y602956D01*
X438001Y603786D01*
X437130Y604662D01*
X447798D01*
X446927Y603786D01*
D02*
G37*
G36*
X808443Y587052D02*
X808377Y587100D01*
X808301Y587143D01*
X808214Y587180D01*
X808116Y587213D01*
X808007Y587241D01*
X807888Y587263D01*
X807758Y587281D01*
X807466Y587301D01*
X807304Y587304D01*
X807129Y588804D01*
X807290Y588807D01*
X807579Y588834D01*
X807706Y588858D01*
X807822Y588888D01*
X807927Y588925D01*
X808020Y588969D01*
X808102Y589020D01*
X808173Y589077D01*
X808233Y589141D01*
X808443Y587052D01*
D02*
G37*
G36*
X792130Y589008D02*
X792207Y588965D01*
X792294Y588927D01*
X792392Y588895D01*
X792500Y588867D01*
X792620Y588844D01*
X792750Y588826D01*
X793042Y588806D01*
X793204Y588804D01*
X793379Y587304D01*
X793217Y587300D01*
X792929Y587273D01*
X792802Y587250D01*
X792686Y587219D01*
X792581Y587182D01*
X792487Y587138D01*
X792405Y587088D01*
X792334Y587030D01*
X792275Y586966D01*
X792065Y589056D01*
X792130Y589008D01*
D02*
G37*
G36*
X785107Y585102D02*
X785124Y585013D01*
X785153Y584920D01*
X785194Y584824D01*
X785246Y584725D01*
X785311Y584623D01*
X785387Y584516D01*
X785475Y584407D01*
X785687Y584178D01*
X784627Y583117D01*
X784511Y583229D01*
X784288Y583418D01*
X784182Y583494D01*
X784080Y583559D01*
X783980Y583611D01*
X783885Y583652D01*
X783792Y583681D01*
X783703Y583698D01*
X783617Y583703D01*
X785102Y585188D01*
X785107Y585102D01*
D02*
G37*
G36*
X784397Y577668D02*
X784346Y577593D01*
X784301Y577508D01*
X784262Y577411D01*
X784229Y577304D01*
X784202Y577185D01*
X784181Y577057D01*
X784166Y576917D01*
X784154Y576605D01*
X782654D01*
X782651Y576766D01*
X782627Y577057D01*
X782606Y577185D01*
X782579Y577304D01*
X782546Y577411D01*
X782507Y577508D01*
X782462Y577593D01*
X782411Y577668D01*
X782354Y577733D01*
X784454D01*
X784397Y577668D01*
D02*
G37*
G36*
X788857Y574076D02*
X788874Y573987D01*
X788903Y573895D01*
X788944Y573799D01*
X788996Y573700D01*
X789061Y573597D01*
X789137Y573491D01*
X789225Y573382D01*
X789437Y573152D01*
X788377Y572092D01*
X788261Y572204D01*
X788038Y572392D01*
X787932Y572468D01*
X787830Y572533D01*
X787730Y572585D01*
X787635Y572626D01*
X787542Y572655D01*
X787453Y572672D01*
X787367Y572677D01*
X788852Y574162D01*
X788857Y574076D01*
D02*
G37*
G36*
X575657Y565541D02*
X575681Y565251D01*
X575702Y565122D01*
X575729Y565004D01*
X575762Y564897D01*
X575801Y564800D01*
X575846Y564714D01*
X575897Y564639D01*
X575954Y564575D01*
X573854D01*
X573911Y564639D01*
X573962Y564714D01*
X574007Y564800D01*
X574046Y564897D01*
X574079Y565004D01*
X574106Y565122D01*
X574127Y565251D01*
X574142Y565391D01*
X574154Y565703D01*
X575654D01*
X575657Y565541D01*
D02*
G37*
G36*
X521989Y558404D02*
X521903Y558399D01*
X521814Y558382D01*
X521721Y558353D01*
X521626Y558312D01*
X521526Y558260D01*
X521424Y558195D01*
X521318Y558119D01*
X521208Y558031D01*
X520979Y557818D01*
X519919Y558879D01*
X520031Y558995D01*
X520219Y559218D01*
X520295Y559324D01*
X520360Y559426D01*
X520412Y559526D01*
X520453Y559622D01*
X520482Y559714D01*
X520499Y559803D01*
X520504Y559889D01*
X521989Y558404D01*
D02*
G37*
G36*
X562098Y554018D02*
X562010Y554023D01*
X561920Y554016D01*
X561826Y553995D01*
X561729Y553962D01*
X561628Y553915D01*
X561525Y553856D01*
X561418Y553783D01*
X561308Y553698D01*
X561195Y553599D01*
X561078Y553488D01*
X560176Y554707D01*
X560289Y554823D01*
X560563Y555147D01*
X560632Y555247D01*
X560690Y555342D01*
X560738Y555433D01*
X560774Y555519D01*
X560800Y555602D01*
X560814Y555680D01*
X562098Y554018D01*
D02*
G37*
G36*
X524539Y552397D02*
X524614Y552346D01*
X524700Y552301D01*
X524797Y552262D01*
X524904Y552229D01*
X525022Y552202D01*
X525151Y552181D01*
X525291Y552166D01*
X525603Y552154D01*
Y550654D01*
X525442Y550651D01*
X525151Y550627D01*
X525022Y550606D01*
X524904Y550579D01*
X524797Y550546D01*
X524700Y550507D01*
X524614Y550462D01*
X524539Y550411D01*
X524475Y550354D01*
Y552454D01*
X524539Y552397D01*
D02*
G37*
G36*
X501897Y549368D02*
X501846Y549293D01*
X501801Y549208D01*
X501762Y549111D01*
X501729Y549004D01*
X501702Y548885D01*
X501681Y548756D01*
X501666Y548617D01*
X501654Y548305D01*
X500154D01*
X500151Y548466D01*
X500127Y548756D01*
X500106Y548885D01*
X500079Y549004D01*
X500046Y549111D01*
X500007Y549208D01*
X499962Y549293D01*
X499911Y549368D01*
X499854Y549433D01*
X501954D01*
X501897Y549368D01*
D02*
G37*
G36*
X556189Y536604D02*
X556103Y536599D01*
X556014Y536582D01*
X555922Y536553D01*
X555826Y536512D01*
X555726Y536460D01*
X555624Y536395D01*
X555518Y536319D01*
X555408Y536231D01*
X555179Y536018D01*
X554118Y537079D01*
X554230Y537195D01*
X554419Y537418D01*
X554495Y537524D01*
X554560Y537626D01*
X554612Y537726D01*
X554653Y537822D01*
X554682Y537914D01*
X554699Y538003D01*
X554704Y538089D01*
X556189Y536604D01*
D02*
G37*
G36*
X793009Y504294D02*
X793026Y504204D01*
X793055Y504112D01*
X793095Y504016D01*
X793148Y503917D01*
X793212Y503814D01*
X793289Y503708D01*
X793377Y503599D01*
X793589Y503370D01*
X792528Y502309D01*
X792412Y502421D01*
X792190Y502609D01*
X792084Y502686D01*
X791981Y502750D01*
X791882Y502803D01*
X791786Y502843D01*
X791694Y502872D01*
X791605Y502889D01*
X791519Y502894D01*
X793004Y504379D01*
X793009Y504294D01*
D02*
G37*
G36*
X786968Y571154D02*
X786970Y571151D01*
X786993Y571139D01*
X787000Y571132D01*
X787025Y571121D01*
X787025Y571121D01*
X787038Y571112D01*
X787171Y570999D01*
X787250Y570923D01*
X787435Y570850D01*
X789310Y568975D01*
Y540404D01*
X789484Y539526D01*
X789982Y538782D01*
X790313Y538450D01*
X789934Y537081D01*
X789906Y537061D01*
X788941Y536417D01*
X788278Y535424D01*
X788045Y534254D01*
X788278Y533083D01*
X788941Y532091D01*
X789091Y531990D01*
X800595Y520487D01*
Y500207D01*
X799422Y499721D01*
X794845Y504297D01*
X794780Y504473D01*
X794606Y504661D01*
X794581Y504693D01*
X794560Y504721D01*
X794559Y504722D01*
X794549Y504747D01*
X794542Y504753D01*
X794530Y504776D01*
X794478Y504819D01*
X794330Y505565D01*
X793667Y506557D01*
X792674Y507220D01*
X791504Y507453D01*
X790333Y507220D01*
X789341Y506557D01*
X788678Y505565D01*
X788445Y504394D01*
X788678Y503224D01*
X789341Y502231D01*
X790333Y501568D01*
X791079Y501420D01*
X791122Y501368D01*
X791145Y501356D01*
X791152Y501349D01*
X791176Y501339D01*
X791177Y501338D01*
X791189Y501329D01*
X791323Y501216D01*
X791402Y501140D01*
X791586Y501067D01*
X797610Y495044D01*
Y483676D01*
X796436Y483190D01*
X795320Y484306D01*
X795255Y484482D01*
X795081Y484670D01*
X795055Y484702D01*
X795035Y484731D01*
X795034Y484731D01*
X795024Y484756D01*
X795017Y484763D01*
X795005Y484786D01*
X794953Y484829D01*
X794805Y485574D01*
X794141Y486567D01*
X793149Y487230D01*
X791979Y487463D01*
X790808Y487230D01*
X789816Y486567D01*
X789153Y485574D01*
X788920Y484404D01*
X789153Y483233D01*
X789816Y482241D01*
X790808Y481578D01*
X791554Y481430D01*
X791597Y481378D01*
X791619Y481366D01*
X791626Y481358D01*
X791651Y481348D01*
X791652Y481348D01*
X791664Y481339D01*
X791798Y481225D01*
X791877Y481149D01*
X792061Y481077D01*
X794490Y478648D01*
X794376Y477364D01*
X793313Y476820D01*
X793149Y476930D01*
X791979Y477163D01*
X790808Y476930D01*
X790176Y476507D01*
X790109Y476514D01*
X790084Y476506D01*
X790074Y476506D01*
X790050Y476496D01*
X790048Y476496D01*
X790034Y476494D01*
X789859Y476479D01*
X789749Y476477D01*
X789568Y476398D01*
X766802D01*
X766316Y477571D01*
X785026Y496282D01*
X785523Y497026D01*
X785698Y497904D01*
Y570263D01*
X786869Y571158D01*
X786968Y571154D01*
D02*
G37*
G36*
X793484Y484303D02*
X793501Y484214D01*
X793530Y484122D01*
X793570Y484026D01*
X793623Y483926D01*
X793687Y483824D01*
X793764Y483718D01*
X793852Y483608D01*
X794064Y483379D01*
X793003Y482318D01*
X792887Y482430D01*
X792665Y482619D01*
X792559Y482695D01*
X792456Y482760D01*
X792357Y482812D01*
X792261Y482853D01*
X792168Y482882D01*
X792079Y482899D01*
X791994Y482904D01*
X793478Y484389D01*
X793484Y484303D01*
D02*
G37*
G36*
X790907Y473054D02*
X790843Y473111D01*
X790768Y473162D01*
X790682Y473207D01*
X790586Y473246D01*
X790478Y473279D01*
X790360Y473306D01*
X790231Y473327D01*
X790091Y473342D01*
X789780Y473354D01*
Y474854D01*
X789941Y474857D01*
X790231Y474881D01*
X790360Y474902D01*
X790478Y474929D01*
X790586Y474962D01*
X790682Y475001D01*
X790768Y475046D01*
X790843Y475097D01*
X790907Y475154D01*
Y473054D01*
D02*
G37*
G36*
X568757Y472841D02*
X568781Y472551D01*
X568802Y472422D01*
X568829Y472304D01*
X568862Y472197D01*
X568901Y472100D01*
X568946Y472014D01*
X568997Y471939D01*
X569054Y471875D01*
X566954D01*
X567011Y471939D01*
X567062Y472014D01*
X567107Y472100D01*
X567146Y472197D01*
X567179Y472304D01*
X567206Y472422D01*
X567227Y472551D01*
X567242Y472691D01*
X567254Y473003D01*
X568754D01*
X568757Y472841D01*
D02*
G37*
G36*
X726123Y462362D02*
X726011Y462246D01*
X725823Y462024D01*
X725747Y461918D01*
X725682Y461815D01*
X725629Y461716D01*
X725589Y461620D01*
X725560Y461528D01*
X725543Y461438D01*
X725538Y461353D01*
X724053Y462838D01*
X724138Y462843D01*
X724228Y462860D01*
X724320Y462889D01*
X724416Y462929D01*
X724515Y462982D01*
X724618Y463046D01*
X724724Y463123D01*
X724833Y463211D01*
X725062Y463423D01*
X726123Y462362D01*
D02*
G37*
G36*
X725789Y455828D02*
X725677Y455712D01*
X725489Y455490D01*
X725412Y455384D01*
X725348Y455281D01*
X725295Y455182D01*
X725255Y455086D01*
X725226Y454994D01*
X725209Y454905D01*
X725204Y454819D01*
X723719Y456304D01*
X723804Y456309D01*
X723894Y456326D01*
X723986Y456355D01*
X724082Y456395D01*
X724181Y456448D01*
X724284Y456512D01*
X724390Y456589D01*
X724499Y456677D01*
X724728Y456889D01*
X725789Y455828D01*
D02*
G37*
G36*
X792933Y451354D02*
X792868Y451411D01*
X792793Y451462D01*
X792708Y451507D01*
X792611Y451546D01*
X792504Y451579D01*
X792385Y451606D01*
X792256Y451627D01*
X792117Y451642D01*
X791805Y451654D01*
Y453154D01*
X791966Y453157D01*
X792256Y453181D01*
X792385Y453202D01*
X792504Y453229D01*
X792611Y453262D01*
X792708Y453301D01*
X792793Y453346D01*
X792868Y453397D01*
X792933Y453454D01*
Y451354D01*
D02*
G37*
G36*
X725508Y449248D02*
X725396Y449131D01*
X725206Y448910D01*
X725128Y448804D01*
X725062Y448703D01*
X725007Y448604D01*
X724964Y448510D01*
X724932Y448419D01*
X724912Y448332D01*
X724903Y448248D01*
X723490Y449801D01*
X723577Y449803D01*
X723667Y449816D01*
X723760Y449842D01*
X723857Y449880D01*
X723957Y449930D01*
X724060Y449993D01*
X724167Y450068D01*
X724276Y450155D01*
X724506Y450366D01*
X725508Y449248D01*
D02*
G37*
G36*
X456768Y446272D02*
X456845Y446226D01*
X456932Y446186D01*
X457029Y446151D01*
X457138Y446121D01*
X457257Y446097D01*
X457386Y446078D01*
X457678Y446057D01*
X457840Y446054D01*
X457956Y444554D01*
X457794Y444551D01*
X457505Y444524D01*
X457378Y444502D01*
X457261Y444472D01*
X457155Y444436D01*
X457060Y444394D01*
X456977Y444345D01*
X456904Y444290D01*
X456843Y444228D01*
X456703Y446323D01*
X456768Y446272D01*
D02*
G37*
G36*
X765859Y446103D02*
X765876Y446014D01*
X765905Y445922D01*
X765945Y445826D01*
X765998Y445726D01*
X766062Y445624D01*
X766139Y445518D01*
X766227Y445408D01*
X766439Y445179D01*
X765378Y444118D01*
X765262Y444230D01*
X765040Y444419D01*
X764934Y444495D01*
X764831Y444560D01*
X764732Y444612D01*
X764636Y444653D01*
X764544Y444682D01*
X764454Y444699D01*
X764369Y444704D01*
X765854Y446189D01*
X765859Y446103D01*
D02*
G37*
G36*
X458189Y440628D02*
X458077Y440512D01*
X457889Y440290D01*
X457812Y440184D01*
X457748Y440081D01*
X457695Y439982D01*
X457655Y439886D01*
X457626Y439794D01*
X457609Y439705D01*
X457604Y439619D01*
X456119Y441104D01*
X456204Y441109D01*
X456294Y441126D01*
X456386Y441155D01*
X456482Y441195D01*
X456581Y441248D01*
X456684Y441312D01*
X456790Y441389D01*
X456899Y441477D01*
X457128Y441689D01*
X458189Y440628D01*
D02*
G37*
G36*
X792933Y439054D02*
X792868Y439111D01*
X792793Y439162D01*
X792708Y439207D01*
X792611Y439246D01*
X792504Y439279D01*
X792385Y439306D01*
X792256Y439327D01*
X792117Y439342D01*
X791805Y439354D01*
Y440854D01*
X791966Y440857D01*
X792256Y440881D01*
X792385Y440902D01*
X792504Y440929D01*
X792611Y440962D01*
X792708Y441001D01*
X792793Y441046D01*
X792868Y441097D01*
X792933Y441154D01*
Y439054D01*
D02*
G37*
G36*
X468538Y439496D02*
X468613Y439445D01*
X468699Y439400D01*
X468796Y439361D01*
X468903Y439328D01*
X469021Y439301D01*
X469150Y439280D01*
X469290Y439265D01*
X469602Y439253D01*
Y437753D01*
X469441Y437750D01*
X469150Y437726D01*
X469021Y437705D01*
X468903Y437678D01*
X468796Y437645D01*
X468699Y437606D01*
X468613Y437561D01*
X468538Y437510D01*
X468474Y437453D01*
Y439553D01*
X468538Y439496D01*
D02*
G37*
G36*
X841889Y436604D02*
X841803Y436599D01*
X841714Y436582D01*
X841621Y436553D01*
X841526Y436512D01*
X841426Y436460D01*
X841324Y436395D01*
X841218Y436319D01*
X841108Y436231D01*
X840879Y436018D01*
X839818Y437079D01*
X839930Y437195D01*
X840119Y437418D01*
X840195Y437524D01*
X840260Y437626D01*
X840312Y437726D01*
X840353Y437822D01*
X840382Y437914D01*
X840399Y438003D01*
X840404Y438089D01*
X841889Y436604D01*
D02*
G37*
G36*
X757765Y434020D02*
X757700Y434074D01*
X757624Y434123D01*
X757537Y434165D01*
X757440Y434203D01*
X757332Y434234D01*
X757214Y434260D01*
X757084Y434280D01*
X756793Y434303D01*
X756632Y434306D01*
X756577Y435806D01*
X756738Y435809D01*
X757028Y435834D01*
X757157Y435856D01*
X757274Y435884D01*
X757381Y435918D01*
X757477Y435959D01*
X757561Y436006D01*
X757635Y436059D01*
X757699Y436119D01*
X757765Y434020D01*
D02*
G37*
G36*
X508089Y434228D02*
X507977Y434112D01*
X507789Y433890D01*
X507712Y433784D01*
X507648Y433681D01*
X507595Y433582D01*
X507555Y433486D01*
X507526Y433394D01*
X507509Y433304D01*
X507504Y433219D01*
X506019Y434704D01*
X506105Y434709D01*
X506194Y434726D01*
X506286Y434755D01*
X506382Y434795D01*
X506481Y434848D01*
X506584Y434912D01*
X506690Y434989D01*
X506799Y435077D01*
X507028Y435289D01*
X508089Y434228D01*
D02*
G37*
G36*
X456739Y434697D02*
X456814Y434646D01*
X456900Y434601D01*
X456997Y434562D01*
X457104Y434529D01*
X457222Y434502D01*
X457351Y434481D01*
X457491Y434466D01*
X457803Y434454D01*
Y432954D01*
X457641Y432951D01*
X457351Y432927D01*
X457222Y432906D01*
X457104Y432879D01*
X456997Y432846D01*
X456900Y432807D01*
X456814Y432762D01*
X456739Y432711D01*
X456675Y432654D01*
Y434754D01*
X456739Y434697D01*
D02*
G37*
G36*
X875885Y432004D02*
X876793Y432004D01*
X878574Y431650D01*
X880252Y430955D01*
X881762Y429946D01*
X882404Y429304D01*
X882404Y429304D01*
X883022Y428685D01*
X883994Y427232D01*
X884663Y425616D01*
X885004Y423901D01*
X885004Y423027D01*
X885004Y396019D01*
X885004Y396019D01*
X885004Y394708D01*
X884492Y392135D01*
X883488Y389712D01*
X882031Y387531D01*
X881104Y386604D01*
X880937Y386437D01*
X880546Y386176D01*
X880111Y385996D01*
X879649Y385904D01*
X836222D01*
X834375Y386271D01*
X832635Y386992D01*
X831070Y388038D01*
X830404Y388704D01*
X829904Y389203D01*
X829120Y390378D01*
X828579Y391682D01*
X828304Y393068D01*
Y393774D01*
X828304Y404482D01*
D01*
Y404482D01*
Y404482D01*
X828831Y405011D01*
X830073Y405841D01*
X831453Y406413D01*
X832918Y406704D01*
X833665Y406704D01*
X838004Y406704D01*
X838004D01*
X839234Y406764D01*
X841648Y407244D01*
X843922Y408186D01*
X845968Y409553D01*
X846881Y410381D01*
X867604Y431104D01*
X867604Y431104D01*
X867818Y431318D01*
X868321Y431654D01*
X868880Y431886D01*
X869474Y432004D01*
X869777Y432004D01*
X875885Y432004D01*
X875885Y432004D01*
D02*
G37*
G36*
X508489Y428728D02*
X508377Y428612D01*
X508189Y428390D01*
X508112Y428284D01*
X508048Y428181D01*
X507995Y428082D01*
X507955Y427986D01*
X507926Y427894D01*
X507909Y427804D01*
X507904Y427719D01*
X506419Y429204D01*
X506505Y429209D01*
X506594Y429226D01*
X506686Y429255D01*
X506782Y429295D01*
X506881Y429348D01*
X506984Y429412D01*
X507090Y429489D01*
X507199Y429577D01*
X507428Y429789D01*
X508489Y428728D01*
D02*
G37*
G36*
X764629Y428472D02*
X764517Y428355D01*
X764420Y428242D01*
X764340Y428135D01*
X764275Y428033D01*
X764226Y427936D01*
X764193Y427844D01*
X764175Y427757D01*
X764174Y427675D01*
X764188Y427598D01*
X764218Y427527D01*
X762252Y428155D01*
X763442Y429407D01*
X764629Y428472D01*
D02*
G37*
G36*
X484609Y429103D02*
X484626Y429014D01*
X484655Y428922D01*
X484695Y428826D01*
X484748Y428726D01*
X484812Y428624D01*
X484889Y428518D01*
X484977Y428408D01*
X485189Y428179D01*
X484128Y427118D01*
X484012Y427230D01*
X483790Y427419D01*
X483684Y427495D01*
X483581Y427560D01*
X483482Y427612D01*
X483386Y427653D01*
X483294Y427682D01*
X483204Y427699D01*
X483119Y427704D01*
X484604Y429189D01*
X484609Y429103D01*
D02*
G37*
G36*
X769188Y427728D02*
X769076Y427611D01*
X768887Y427389D01*
X768811Y427283D01*
X768746Y427180D01*
X768694Y427081D01*
X768653Y426985D01*
X768624Y426893D01*
X768607Y426804D01*
X768602Y426718D01*
X767117Y428203D01*
X767203Y428208D01*
X767292Y428225D01*
X767385Y428254D01*
X767480Y428294D01*
X767580Y428347D01*
X767682Y428412D01*
X767788Y428488D01*
X767898Y428576D01*
X768127Y428788D01*
X769188Y427728D01*
D02*
G37*
G36*
X528789Y427078D02*
X528677Y426962D01*
X528489Y426740D01*
X528412Y426634D01*
X528348Y426531D01*
X528295Y426432D01*
X528255Y426336D01*
X528226Y426244D01*
X528209Y426155D01*
X528204Y426069D01*
X526719Y427554D01*
X526805Y427559D01*
X526894Y427576D01*
X526986Y427605D01*
X527082Y427645D01*
X527181Y427698D01*
X527284Y427762D01*
X527390Y427839D01*
X527499Y427927D01*
X527728Y428139D01*
X528789Y427078D01*
D02*
G37*
G36*
X523519Y439778D02*
X523444Y439403D01*
X523677Y438232D01*
X524340Y437240D01*
X525332Y436577D01*
X526503Y436344D01*
X526740Y436391D01*
X528010Y435391D01*
Y430604D01*
X526801Y429395D01*
X526625Y429330D01*
X526437Y429156D01*
X526405Y429131D01*
X526377Y429110D01*
X526376Y429109D01*
X526352Y429099D01*
X526345Y429092D01*
X526322Y429080D01*
X526279Y429028D01*
X525533Y428880D01*
X524541Y428217D01*
X523878Y427224D01*
X523645Y426054D01*
X523878Y424883D01*
X524541Y423891D01*
X525533Y423228D01*
X526704Y422995D01*
X527874Y423228D01*
X528867Y423891D01*
X529530Y424883D01*
X529940Y425151D01*
X531210Y424464D01*
Y421554D01*
X526001Y416345D01*
X525825Y416280D01*
X525637Y416106D01*
X525605Y416081D01*
X525577Y416060D01*
X525576Y416059D01*
X525551Y416049D01*
X525545Y416042D01*
X525522Y416030D01*
X525479Y415978D01*
X524733Y415830D01*
X523741Y415167D01*
X523078Y414174D01*
X522845Y413004D01*
X523078Y411833D01*
X523741Y410841D01*
X524636Y410243D01*
X524730Y409862D01*
X524718Y408886D01*
X523941Y408367D01*
X523278Y407374D01*
X523045Y406204D01*
X523092Y405968D01*
X522091Y404698D01*
X475039D01*
X471863Y409004D01*
X471630Y410174D01*
X470967Y411167D01*
X469974Y411830D01*
X469229Y411978D01*
X469186Y412030D01*
X469163Y412042D01*
X469156Y412049D01*
X469132Y412060D01*
X469131Y412060D01*
X469118Y412069D01*
X468985Y412182D01*
X468906Y412258D01*
X468721Y412331D01*
X451498Y429554D01*
Y432459D01*
X452768Y432584D01*
X452778Y432533D01*
X453441Y431541D01*
X454433Y430878D01*
X455604Y430645D01*
X456774Y430878D01*
X457406Y431300D01*
X457473Y431294D01*
X457498Y431301D01*
X457508Y431301D01*
X457533Y431311D01*
X457534Y431312D01*
X457549Y431314D01*
X457723Y431328D01*
X457833Y431330D01*
X458015Y431410D01*
X479442D01*
X479781Y430990D01*
X480231Y430140D01*
X480045Y429204D01*
X480278Y428033D01*
X480941Y427041D01*
X481933Y426378D01*
X482679Y426230D01*
X482722Y426178D01*
X482745Y426166D01*
X482752Y426158D01*
X482776Y426148D01*
X482777Y426148D01*
X482789Y426139D01*
X482923Y426025D01*
X483002Y425950D01*
X483186Y425877D01*
X485111Y423953D01*
X485855Y423455D01*
X486733Y423281D01*
X493072D01*
X493949Y423455D01*
X494694Y423953D01*
X502113Y431372D01*
X503736Y431199D01*
X503801Y431100D01*
X503866Y430968D01*
X504241Y429867D01*
X504008Y429518D01*
X503578Y428874D01*
X503345Y427704D01*
X503578Y426533D01*
X504241Y425541D01*
X505233Y424878D01*
X506404Y424645D01*
X507574Y424878D01*
X508567Y425541D01*
X509230Y426533D01*
X509378Y427279D01*
X509430Y427322D01*
X509442Y427345D01*
X509449Y427351D01*
X509459Y427376D01*
X509460Y427377D01*
X509469Y427389D01*
X509582Y427523D01*
X509658Y427602D01*
X509731Y427786D01*
X522348Y440404D01*
X523519Y439778D01*
D02*
G37*
G36*
X751509Y424603D02*
X751526Y424514D01*
X751555Y424422D01*
X751595Y424326D01*
X751648Y424226D01*
X751712Y424124D01*
X751789Y424018D01*
X751877Y423908D01*
X752089Y423679D01*
X751028Y422618D01*
X750912Y422730D01*
X750690Y422919D01*
X750584Y422995D01*
X750481Y423060D01*
X750382Y423112D01*
X750286Y423153D01*
X750194Y423182D01*
X750105Y423199D01*
X750019Y423204D01*
X751504Y424689D01*
X751509Y424603D01*
D02*
G37*
G36*
X767657Y420841D02*
X767681Y420551D01*
X767701Y420422D01*
X767728Y420304D01*
X767761Y420197D01*
X767799Y420101D01*
X767844Y420016D01*
X767894Y419941D01*
X767951Y419878D01*
X765857D01*
X765913Y419941D01*
X765964Y420016D01*
X766008Y420101D01*
X766047Y420197D01*
X766080Y420304D01*
X766106Y420422D01*
X766127Y420551D01*
X766142Y420690D01*
X766154Y421003D01*
X767654D01*
X767657Y420841D01*
D02*
G37*
G36*
X416039Y419897D02*
X416114Y419846D01*
X416200Y419801D01*
X416297Y419762D01*
X416404Y419729D01*
X416522Y419702D01*
X416651Y419681D01*
X416791Y419666D01*
X417103Y419654D01*
Y418154D01*
X416941Y418151D01*
X416651Y418127D01*
X416522Y418106D01*
X416404Y418079D01*
X416297Y418046D01*
X416200Y418007D01*
X416114Y417962D01*
X416039Y417911D01*
X415975Y417854D01*
Y419954D01*
X416039Y419897D01*
D02*
G37*
G36*
X425789Y418836D02*
X425816Y418755D01*
X425853Y418670D01*
X425902Y418581D01*
X425961Y418487D01*
X426031Y418388D01*
X426204Y418177D01*
X426306Y418065D01*
X426420Y417949D01*
X425545Y416702D01*
X425429Y416813D01*
X425206Y416996D01*
X425099Y417068D01*
X424995Y417127D01*
X424895Y417173D01*
X424798Y417205D01*
X424704Y417224D01*
X424614Y417230D01*
X424526Y417223D01*
X425774Y418912D01*
X425789Y418836D01*
D02*
G37*
G36*
X750433Y417366D02*
X750361Y417337D01*
X750296Y417292D01*
X750239Y417232D01*
X750190Y417158D01*
X750148Y417070D01*
X750114Y416966D01*
X750088Y416848D01*
X750069Y416715D01*
X750058Y416567D01*
X750054Y416405D01*
X748554Y416577D01*
X748590Y418303D01*
X750433Y417366D01*
D02*
G37*
G36*
X527989Y414028D02*
X527877Y413912D01*
X527689Y413690D01*
X527612Y413584D01*
X527548Y413481D01*
X527495Y413382D01*
X527455Y413286D01*
X527426Y413194D01*
X527409Y413105D01*
X527404Y413019D01*
X525919Y414504D01*
X526004Y414509D01*
X526094Y414526D01*
X526186Y414555D01*
X526282Y414595D01*
X526381Y414648D01*
X526484Y414712D01*
X526590Y414789D01*
X526699Y414877D01*
X526928Y415089D01*
X527989Y414028D01*
D02*
G37*
G36*
X840733Y410854D02*
X840668Y410911D01*
X840593Y410962D01*
X840508Y411007D01*
X840411Y411046D01*
X840304Y411079D01*
X840185Y411106D01*
X840057Y411127D01*
X839917Y411142D01*
X839605Y411154D01*
Y412654D01*
X839766Y412657D01*
X840057Y412681D01*
X840185Y412702D01*
X840304Y412729D01*
X840411Y412762D01*
X840508Y412801D01*
X840593Y412846D01*
X840668Y412897D01*
X840733Y412954D01*
Y410854D01*
D02*
G37*
G36*
X780733Y409354D02*
X780668Y409411D01*
X780593Y409462D01*
X780508Y409507D01*
X780411Y409546D01*
X780304Y409579D01*
X780185Y409606D01*
X780057Y409627D01*
X779917Y409642D01*
X779605Y409654D01*
Y411154D01*
X779766Y411157D01*
X780057Y411181D01*
X780185Y411202D01*
X780304Y411229D01*
X780411Y411262D01*
X780508Y411301D01*
X780593Y411346D01*
X780668Y411397D01*
X780733Y411454D01*
Y409354D01*
D02*
G37*
G36*
X772739Y411397D02*
X772814Y411346D01*
X772900Y411301D01*
X772997Y411262D01*
X773104Y411229D01*
X773222Y411202D01*
X773351Y411181D01*
X773491Y411166D01*
X773803Y411154D01*
Y409654D01*
X773642Y409651D01*
X773351Y409627D01*
X773222Y409606D01*
X773104Y409579D01*
X772997Y409546D01*
X772900Y409507D01*
X772814Y409462D01*
X772739Y409411D01*
X772675Y409354D01*
Y411454D01*
X772739Y411397D01*
D02*
G37*
G36*
X467895Y410977D02*
X468118Y410789D01*
X468224Y410712D01*
X468326Y410648D01*
X468426Y410595D01*
X468521Y410555D01*
X468614Y410526D01*
X468703Y410509D01*
X468789Y410504D01*
X467304Y409019D01*
X467299Y409104D01*
X467282Y409194D01*
X467253Y409286D01*
X467212Y409382D01*
X467160Y409481D01*
X467095Y409584D01*
X467019Y409690D01*
X466931Y409799D01*
X466718Y410028D01*
X467779Y411089D01*
X467895Y410977D01*
D02*
G37*
G36*
X745557Y408442D02*
X745581Y408151D01*
X745602Y408022D01*
X745629Y407904D01*
X745662Y407797D01*
X745701Y407700D01*
X745746Y407614D01*
X745797Y407539D01*
X745854Y407475D01*
X743754D01*
X743811Y407539D01*
X743862Y407614D01*
X743907Y407700D01*
X743946Y407797D01*
X743979Y407904D01*
X744006Y408022D01*
X744027Y408151D01*
X744042Y408291D01*
X744054Y408603D01*
X745554D01*
X745557Y408442D01*
D02*
G37*
G36*
X528189Y407228D02*
X528077Y407112D01*
X527889Y406890D01*
X527812Y406784D01*
X527748Y406681D01*
X527695Y406582D01*
X527655Y406486D01*
X527626Y406394D01*
X527609Y406305D01*
X527604Y406219D01*
X526119Y407704D01*
X526204Y407709D01*
X526294Y407726D01*
X526386Y407755D01*
X526482Y407795D01*
X526581Y407848D01*
X526684Y407912D01*
X526790Y407989D01*
X526899Y408077D01*
X527128Y408289D01*
X528189Y407228D01*
D02*
G37*
G36*
X626859Y404650D02*
X626934Y404599D01*
X627020Y404554D01*
X627117Y404515D01*
X627224Y404482D01*
X627342Y404455D01*
X627471Y404434D01*
X627611Y404420D01*
X627923Y404407D01*
Y402907D01*
X627761Y402905D01*
X627471Y402881D01*
X627342Y402859D01*
X627224Y402832D01*
X627117Y402799D01*
X627020Y402761D01*
X626934Y402715D01*
X626859Y402664D01*
X626795Y402607D01*
Y404707D01*
X626859Y404650D01*
D02*
G37*
G36*
X457409Y402803D02*
X457426Y402714D01*
X457455Y402621D01*
X457495Y402526D01*
X457548Y402426D01*
X457612Y402324D01*
X457689Y402218D01*
X457777Y402108D01*
X457989Y401879D01*
X456928Y400818D01*
X456812Y400930D01*
X456590Y401119D01*
X456484Y401195D01*
X456381Y401260D01*
X456282Y401312D01*
X456186Y401353D01*
X456094Y401382D01*
X456004Y401399D01*
X455919Y401404D01*
X457404Y402889D01*
X457409Y402803D01*
D02*
G37*
G36*
X457442Y397465D02*
X457492Y397399D01*
X457556Y397342D01*
X457634Y397292D01*
X457726Y397250D01*
X457832Y397215D01*
X457952Y397188D01*
X458086Y397169D01*
X458234Y397158D01*
X458396Y397154D01*
X457558Y395654D01*
X456570Y395615D01*
X457406Y397538D01*
X457442Y397465D01*
D02*
G37*
G36*
X458140Y391673D02*
X458026Y391556D01*
X457747Y391236D01*
X457676Y391139D01*
X457565Y390961D01*
X457526Y390879D01*
X457497Y390803D01*
X457479Y390732D01*
X456306Y392473D01*
X456392Y392463D01*
X456482Y392465D01*
X456576Y392482D01*
X456672Y392512D01*
X456772Y392555D01*
X456876Y392612D01*
X456982Y392683D01*
X457092Y392767D01*
X457205Y392865D01*
X457322Y392976D01*
X458140Y391673D01*
D02*
G37*
G36*
X472833Y384054D02*
X472768Y384111D01*
X472693Y384162D01*
X472608Y384207D01*
X472511Y384246D01*
X472404Y384279D01*
X472285Y384306D01*
X472156Y384327D01*
X472017Y384342D01*
X471705Y384354D01*
Y385854D01*
X471866Y385857D01*
X472156Y385881D01*
X472285Y385902D01*
X472404Y385929D01*
X472511Y385962D01*
X472608Y386001D01*
X472693Y386046D01*
X472768Y386097D01*
X472833Y386154D01*
Y384054D01*
D02*
G37*
G36*
X438710Y396554D02*
Y387961D01*
X438884Y387083D01*
X439382Y386339D01*
X454239Y371482D01*
X454239Y371482D01*
X454983Y370984D01*
X455861Y370810D01*
X464972D01*
X465142Y370731D01*
X465399Y370722D01*
X465440Y370717D01*
X465474Y370712D01*
X465475Y370711D01*
X465500Y370701D01*
X465509Y370701D01*
X465534Y370694D01*
X465601Y370700D01*
X466233Y370278D01*
X467404Y370045D01*
X468574Y370278D01*
X469567Y370941D01*
X470230Y371933D01*
X470463Y373104D01*
X470230Y374274D01*
X469567Y375267D01*
X468574Y375930D01*
X467404Y376163D01*
X466233Y375930D01*
X465601Y375507D01*
X465534Y375514D01*
X465509Y375506D01*
X465500Y375506D01*
X465475Y375496D01*
X465474Y375496D01*
X465459Y375494D01*
X465284Y375479D01*
X465174Y375477D01*
X464993Y375398D01*
X456811D01*
X455873Y376336D01*
X456359Y377510D01*
X460704D01*
X461582Y377684D01*
X462326Y378182D01*
X466954Y382810D01*
X471472D01*
X471642Y382731D01*
X471899Y382721D01*
X471940Y382717D01*
X471974Y382712D01*
X471975Y382711D01*
X472000Y382701D01*
X472009Y382701D01*
X472034Y382694D01*
X472101Y382700D01*
X472733Y382278D01*
X473904Y382045D01*
X475074Y382278D01*
X476067Y382941D01*
X476730Y383933D01*
X476963Y385104D01*
X476928Y385275D01*
X477960Y386545D01*
X560236D01*
X561211Y385275D01*
X561153Y384984D01*
X561386Y383813D01*
X562049Y382821D01*
X562428Y382568D01*
X562042Y381298D01*
X528636D01*
X528465Y381376D01*
X528209Y381386D01*
X528168Y381390D01*
X528134Y381396D01*
X528133Y381396D01*
X528108Y381406D01*
X528098Y381406D01*
X528073Y381414D01*
X528006Y381407D01*
X527374Y381830D01*
X526204Y382063D01*
X525033Y381830D01*
X524041Y381167D01*
X523378Y380174D01*
X523145Y379004D01*
X521504Y369663D01*
X520333Y369430D01*
X519341Y368767D01*
X519339Y368764D01*
X518069D01*
X518067Y368767D01*
X517074Y369430D01*
X515904Y369663D01*
X514733Y369430D01*
X513741Y368767D01*
X513078Y367774D01*
X512845Y366604D01*
X513078Y365433D01*
X513385Y364973D01*
X512733Y363703D01*
X432304D01*
X429302Y363308D01*
X426504Y362149D01*
X424102Y360306D01*
X422668Y358437D01*
X421398Y358868D01*
Y382854D01*
X432526Y393982D01*
X433023Y394726D01*
X433198Y395604D01*
Y400269D01*
X434468Y400796D01*
X438710Y396554D01*
D02*
G37*
G36*
X616947Y381868D02*
X616896Y381793D01*
X616851Y381708D01*
X616812Y381611D01*
X616779Y381504D01*
X616752Y381385D01*
X616731Y381256D01*
X616716Y381117D01*
X616704Y380805D01*
X615204D01*
X615201Y380966D01*
X615177Y381256D01*
X615156Y381385D01*
X615129Y381504D01*
X615096Y381611D01*
X615057Y381708D01*
X615012Y381793D01*
X614961Y381868D01*
X614904Y381933D01*
X617004D01*
X616947Y381868D01*
D02*
G37*
G36*
X527339Y379997D02*
X527414Y379946D01*
X527500Y379901D01*
X527597Y379862D01*
X527704Y379829D01*
X527822Y379802D01*
X527951Y379781D01*
X528091Y379766D01*
X528403Y379754D01*
Y378254D01*
X528242Y378251D01*
X527951Y378227D01*
X527822Y378206D01*
X527704Y378179D01*
X527597Y378146D01*
X527500Y378107D01*
X527414Y378062D01*
X527339Y378011D01*
X527275Y377954D01*
Y380054D01*
X527339Y379997D01*
D02*
G37*
G36*
X613953Y385275D02*
X613791Y385167D01*
X613128Y384174D01*
X612895Y383004D01*
X613128Y381833D01*
X613550Y381201D01*
X613544Y381134D01*
X613551Y381109D01*
X613551Y381100D01*
X613561Y381075D01*
X613562Y381073D01*
X613564Y381059D01*
X613578Y380884D01*
X613581Y380774D01*
X613660Y380593D01*
Y378209D01*
X612486Y377723D01*
X609583Y380626D01*
X608839Y381123D01*
X607961Y381298D01*
X566381D01*
X565996Y382568D01*
X566375Y382821D01*
X567038Y383813D01*
X567271Y384984D01*
X567213Y385275D01*
X568188Y386545D01*
X613568D01*
X613953Y385275D01*
D02*
G37*
G36*
X466333Y372054D02*
X466268Y372111D01*
X466193Y372162D01*
X466108Y372207D01*
X466011Y372246D01*
X465904Y372279D01*
X465785Y372306D01*
X465657Y372327D01*
X465517Y372342D01*
X465205Y372354D01*
Y373854D01*
X465366Y373857D01*
X465657Y373881D01*
X465785Y373902D01*
X465904Y373929D01*
X466011Y373962D01*
X466108Y374001D01*
X466193Y374046D01*
X466268Y374097D01*
X466333Y374154D01*
Y372054D01*
D02*
G37*
G36*
X645001Y370417D02*
X644924Y370401D01*
X644843Y370375D01*
X644757Y370338D01*
X644667Y370290D01*
X644573Y370231D01*
X644474Y370161D01*
X644263Y369989D01*
X644151Y369887D01*
X644034Y369773D01*
X642797Y370658D01*
X642908Y370774D01*
X643092Y370997D01*
X643164Y371104D01*
X643223Y371207D01*
X643269Y371308D01*
X643301Y371405D01*
X643321Y371499D01*
X643328Y371589D01*
X643321Y371677D01*
X645001Y370417D01*
D02*
G37*
G36*
X843874Y343354D02*
X843809Y343411D01*
X843734Y343462D01*
X843649Y343507D01*
X843552Y343546D01*
X843445Y343579D01*
X843326Y343606D01*
X843197Y343627D01*
X843058Y343642D01*
X842746Y343654D01*
Y345154D01*
X842907Y345157D01*
X843197Y345181D01*
X843326Y345202D01*
X843445Y345229D01*
X843552Y345262D01*
X843649Y345301D01*
X843734Y345346D01*
X843809Y345397D01*
X843874Y345454D01*
Y343354D01*
D02*
G37*
G36*
X758527Y339736D02*
X758041Y338563D01*
X741671D01*
X732176Y348058D01*
X732608Y349102D01*
X733003Y352104D01*
X732608Y355106D01*
X731449Y357903D01*
X729606Y360306D01*
X727737Y361740D01*
X728168Y363010D01*
X735254D01*
X758527Y339736D01*
D02*
G37*
G36*
X635095Y339077D02*
X635318Y338889D01*
X635424Y338812D01*
X635526Y338748D01*
X635626Y338695D01*
X635722Y338655D01*
X635814Y338626D01*
X635903Y338609D01*
X635989Y338604D01*
X634504Y337119D01*
X634499Y337205D01*
X634482Y337294D01*
X634453Y337386D01*
X634412Y337482D01*
X634360Y337581D01*
X634295Y337684D01*
X634219Y337790D01*
X634131Y337899D01*
X633918Y338128D01*
X634979Y339189D01*
X635095Y339077D01*
D02*
G37*
G36*
X417482Y340582D02*
X420282Y337782D01*
X421026Y337284D01*
X421904Y337110D01*
X488158D01*
X488971Y335840D01*
X488845Y335204D01*
X488867Y335093D01*
X487724Y334329D01*
X487274Y334630D01*
X486104Y334863D01*
X484933Y334630D01*
X483941Y333967D01*
X483278Y332974D01*
X483254Y332968D01*
X481940Y332757D01*
X481074Y333335D01*
X479904Y333568D01*
X478733Y333335D01*
X477741Y332672D01*
X477078Y331680D01*
X476845Y330509D01*
X477078Y329339D01*
X477741Y328346D01*
X478733Y327683D01*
X479904Y327450D01*
X481074Y327683D01*
X482067Y328346D01*
X482730Y329339D01*
X482754Y329345D01*
X484068Y329556D01*
X484933Y328978D01*
X486104Y328745D01*
X487274Y328978D01*
X488267Y329641D01*
X488930Y330633D01*
X489163Y331804D01*
X489141Y331915D01*
X490284Y332678D01*
X490733Y332378D01*
X491904Y332145D01*
X493074Y332378D01*
X494067Y333041D01*
X494730Y334033D01*
X494963Y335204D01*
X494836Y335840D01*
X495649Y337110D01*
X552991D01*
X553992Y335840D01*
X553945Y335604D01*
X554045Y335100D01*
X553833Y333763D01*
X552841Y333100D01*
X552178Y332108D01*
X551945Y330937D01*
X552178Y329767D01*
X552841Y328774D01*
X553833Y328111D01*
X555004Y327879D01*
X556174Y328111D01*
X557167Y328774D01*
X557830Y329767D01*
X558063Y330937D01*
X557962Y331441D01*
X558174Y332778D01*
X559167Y333441D01*
X559830Y334433D01*
X560063Y335604D01*
X561004Y336208D01*
X561945Y335604D01*
X562178Y334433D01*
X562841Y333441D01*
X563833Y332778D01*
X565004Y332545D01*
X566174Y332778D01*
X567167Y333441D01*
X567830Y334433D01*
X568063Y335604D01*
X568016Y335840D01*
X569017Y337110D01*
X632696D01*
X632727Y337025D01*
X632901Y336837D01*
X632927Y336805D01*
X632948Y336777D01*
X632948Y336776D01*
X632958Y336752D01*
X632966Y336745D01*
X632978Y336722D01*
X633030Y336679D01*
X633178Y335933D01*
X633841Y334941D01*
X634833Y334278D01*
X636004Y334045D01*
X637174Y334278D01*
X638167Y334941D01*
X638830Y335933D01*
X639063Y337104D01*
X638830Y338274D01*
X638188Y339235D01*
X638226Y339436D01*
X638600Y340505D01*
X674104D01*
Y306692D01*
X448104D01*
X415737Y339060D01*
Y341089D01*
X416984Y341326D01*
X417482Y340582D01*
D02*
G37*
%LPC*%
G36*
X520664Y772327D02*
Y764504D01*
X528487D01*
X528406Y765114D01*
X527399Y767547D01*
X525796Y769636D01*
X523707Y771239D01*
X521274Y772246D01*
X520664Y772327D01*
D02*
G37*
G36*
X516664D02*
X516053Y772246D01*
X513621Y771239D01*
X511532Y769636D01*
X509929Y767547D01*
X508921Y765114D01*
X508841Y764504D01*
X516664D01*
Y772327D01*
D02*
G37*
G36*
X680064Y771504D02*
X662064D01*
Y753504D01*
X680064D01*
Y771504D01*
D02*
G37*
G36*
X838704Y771581D02*
X836354Y771272D01*
X834165Y770365D01*
X832285Y768923D01*
X830842Y767043D01*
X829936Y764853D01*
X829626Y762504D01*
X829936Y760154D01*
X830842Y757965D01*
X832285Y756085D01*
X834165Y754642D01*
X836354Y753736D01*
X838704Y753426D01*
X841053Y753736D01*
X843243Y754642D01*
X845123Y756085D01*
X846565Y757965D01*
X847472Y760154D01*
X847781Y762504D01*
X847472Y764853D01*
X846565Y767043D01*
X845123Y768923D01*
X843243Y770365D01*
X841053Y771272D01*
X838704Y771581D01*
D02*
G37*
G36*
X813304D02*
X810954Y771272D01*
X808765Y770365D01*
X806885Y768923D01*
X805442Y767043D01*
X804536Y764853D01*
X804226Y762504D01*
X804536Y760154D01*
X805442Y757965D01*
X806885Y756085D01*
X808765Y754642D01*
X810954Y753736D01*
X813304Y753426D01*
X815653Y753736D01*
X817843Y754642D01*
X819723Y756085D01*
X821165Y757965D01*
X822072Y760154D01*
X822381Y762504D01*
X822072Y764853D01*
X821165Y767043D01*
X819723Y768923D01*
X817843Y770365D01*
X815653Y771272D01*
X813304Y771581D01*
D02*
G37*
G36*
X787904D02*
X785554Y771272D01*
X783365Y770365D01*
X781485Y768923D01*
X780042Y767043D01*
X779136Y764853D01*
X778826Y762504D01*
X779136Y760154D01*
X780042Y757965D01*
X781485Y756085D01*
X783365Y754642D01*
X785554Y753736D01*
X787904Y753426D01*
X790253Y753736D01*
X792443Y754642D01*
X794323Y756085D01*
X795765Y757965D01*
X796672Y760154D01*
X796981Y762504D01*
X796672Y764853D01*
X795765Y767043D01*
X794323Y768923D01*
X792443Y770365D01*
X790253Y771272D01*
X787904Y771581D01*
D02*
G37*
G36*
X762504D02*
X760154Y771272D01*
X757965Y770365D01*
X756085Y768923D01*
X754642Y767043D01*
X753736Y764853D01*
X753426Y762504D01*
X753736Y760154D01*
X754642Y757965D01*
X756085Y756085D01*
X757965Y754642D01*
X760154Y753736D01*
X762504Y753426D01*
X764853Y753736D01*
X767043Y754642D01*
X768923Y756085D01*
X770365Y757965D01*
X771272Y760154D01*
X771581Y762504D01*
X771272Y764853D01*
X770365Y767043D01*
X768923Y768923D01*
X767043Y770365D01*
X764853Y771272D01*
X762504Y771581D01*
D02*
G37*
G36*
X737104D02*
X734754Y771272D01*
X732565Y770365D01*
X730685Y768923D01*
X729242Y767043D01*
X728335Y764853D01*
X728026Y762504D01*
X728335Y760154D01*
X729242Y757965D01*
X730685Y756085D01*
X732565Y754642D01*
X734754Y753736D01*
X737104Y753426D01*
X739453Y753736D01*
X741643Y754642D01*
X743523Y756085D01*
X744965Y757965D01*
X745872Y760154D01*
X746181Y762504D01*
X745872Y764853D01*
X744965Y767043D01*
X743523Y768923D01*
X741643Y770365D01*
X739453Y771272D01*
X737104Y771581D01*
D02*
G37*
G36*
X711704D02*
X709354Y771272D01*
X707165Y770365D01*
X705285Y768923D01*
X703842Y767043D01*
X702935Y764853D01*
X702626Y762504D01*
X702935Y760154D01*
X703842Y757965D01*
X705285Y756085D01*
X707165Y754642D01*
X709354Y753736D01*
X711704Y753426D01*
X714053Y753736D01*
X716243Y754642D01*
X718123Y756085D01*
X719565Y757965D01*
X720472Y760154D01*
X720781Y762504D01*
X720472Y764853D01*
X719565Y767043D01*
X718123Y768923D01*
X716243Y770365D01*
X714053Y771272D01*
X711704Y771581D01*
D02*
G37*
G36*
X645664D02*
X643314Y771272D01*
X641125Y770365D01*
X639245Y768923D01*
X637802Y767043D01*
X636895Y764853D01*
X636586Y762504D01*
X636895Y760154D01*
X637802Y757965D01*
X639245Y756085D01*
X641125Y754642D01*
X643314Y753736D01*
X645664Y753426D01*
X648013Y753736D01*
X650203Y754642D01*
X652083Y756085D01*
X653525Y757965D01*
X654432Y760154D01*
X654741Y762504D01*
X654432Y764853D01*
X653525Y767043D01*
X652083Y768923D01*
X650203Y770365D01*
X648013Y771272D01*
X645664Y771581D01*
D02*
G37*
G36*
X444464Y747048D02*
Y739104D01*
X452408D01*
X452323Y739746D01*
X451304Y742207D01*
X449682Y744322D01*
X447567Y745944D01*
X445106Y746963D01*
X444464Y747048D01*
D02*
G37*
G36*
X440464D02*
X439822Y746963D01*
X437360Y745944D01*
X435246Y744322D01*
X433624Y742207D01*
X432604Y739746D01*
X432520Y739104D01*
X440464D01*
Y747048D01*
D02*
G37*
G36*
X452408Y735104D02*
X444464D01*
Y727160D01*
X445106Y727244D01*
X447567Y728264D01*
X449682Y729886D01*
X451304Y732000D01*
X452323Y734462D01*
X452408Y735104D01*
D02*
G37*
G36*
X440464D02*
X432520D01*
X432604Y734462D01*
X433624Y732000D01*
X435246Y729886D01*
X437360Y728264D01*
X439822Y727244D01*
X440464Y727160D01*
Y735104D01*
D02*
G37*
G36*
X842904Y691463D02*
X841733Y691230D01*
X840741Y690567D01*
X840078Y689574D01*
X839845Y688404D01*
X840078Y687233D01*
X840550Y686527D01*
X840548Y686504D01*
X840547Y686495D01*
X840547Y686493D01*
X840546Y686481D01*
X840556Y686450D01*
X840556Y686440D01*
X840563Y686424D01*
X840564Y686421D01*
X840578Y686252D01*
X840581Y686146D01*
X840587Y686130D01*
X840581Y686115D01*
X840660Y685944D01*
Y673584D01*
X840580Y673401D01*
X840579Y673289D01*
X840564Y673108D01*
X840561Y673086D01*
X840559Y673076D01*
X840547Y673045D01*
X840547Y673035D01*
X840542Y673017D01*
X840550Y672948D01*
X840550Y672932D01*
X840178Y672374D01*
X839945Y671204D01*
X840178Y670033D01*
X840841Y669041D01*
X841833Y668378D01*
X843004Y668145D01*
X844174Y668378D01*
X845167Y669041D01*
X845830Y670033D01*
X846063Y671204D01*
X845830Y672374D01*
X845358Y673081D01*
X845359Y673103D01*
X845361Y673112D01*
X845360Y673115D01*
X845361Y673127D01*
X845351Y673158D01*
X845351Y673167D01*
X845344Y673184D01*
X845344Y673187D01*
X845329Y673355D01*
X845327Y673462D01*
X845320Y673477D01*
X845326Y673493D01*
X845248Y673663D01*
Y686024D01*
X845327Y686206D01*
X845329Y686319D01*
X845343Y686500D01*
X845347Y686521D01*
X845349Y686532D01*
X845361Y686563D01*
X845360Y686573D01*
X845366Y686590D01*
X845358Y686660D01*
X845357Y686676D01*
X845730Y687233D01*
X845963Y688404D01*
X845730Y689574D01*
X845067Y690567D01*
X844074Y691230D01*
X842904Y691463D01*
D02*
G37*
G36*
X914904Y627688D02*
X911473Y627351D01*
X908174Y626350D01*
X905134Y624725D01*
X902470Y622538D01*
X900283Y619873D01*
X898658Y616833D01*
X897657Y613534D01*
X897319Y610104D01*
X897657Y606673D01*
X898658Y603374D01*
X900283Y600334D01*
X902470Y597670D01*
X905134Y595483D01*
X908174Y593858D01*
X911473Y592857D01*
X914904Y592519D01*
X918334Y592857D01*
X921633Y593858D01*
X924673Y595483D01*
X927338Y597670D01*
X929525Y600334D01*
X931150Y603374D01*
X932151Y606673D01*
X932488Y610104D01*
X932151Y613534D01*
X931150Y616833D01*
X929525Y619873D01*
X927338Y622538D01*
X924673Y624725D01*
X921633Y626350D01*
X918334Y627351D01*
X914904Y627688D01*
D02*
G37*
G36*
X831204Y572702D02*
X829253Y572314D01*
X827599Y571209D01*
X826494Y569555D01*
X826106Y567604D01*
X826494Y565653D01*
X827599Y563999D01*
X829253Y562894D01*
X831204Y562506D01*
X833155Y562894D01*
X834809Y563999D01*
X835914Y565653D01*
X836302Y567604D01*
X835914Y569555D01*
X834809Y571209D01*
X833155Y572314D01*
X831204Y572702D01*
D02*
G37*
G36*
X914204Y483721D02*
X911863Y483256D01*
X909878Y481930D01*
X908552Y479945D01*
X908086Y477604D01*
X908552Y475263D01*
X909878Y473278D01*
X911863Y471952D01*
X914204Y471486D01*
X916545Y471952D01*
X918530Y473278D01*
X919856Y475263D01*
X920321Y477604D01*
X919856Y479945D01*
X918530Y481930D01*
X916545Y483256D01*
X914204Y483721D01*
D02*
G37*
G36*
X779604Y383963D02*
X778433Y383730D01*
X777441Y383067D01*
X776778Y382074D01*
X776545Y380904D01*
X776778Y379733D01*
X777441Y378741D01*
X793145Y363037D01*
Y357204D01*
X793378Y356033D01*
X794041Y355041D01*
X795033Y354378D01*
X796204Y354145D01*
X797374Y354378D01*
X798367Y355041D01*
X799030Y356033D01*
X799263Y357204D01*
Y364304D01*
X799263Y364304D01*
X799030Y365474D01*
X798367Y366467D01*
X798367Y366467D01*
X781767Y383067D01*
X780774Y383730D01*
X779604Y383963D01*
D02*
G37*
G36*
X914904Y348288D02*
X911473Y347951D01*
X908174Y346950D01*
X905134Y345325D01*
X902470Y343138D01*
X900283Y340473D01*
X898658Y337433D01*
X897657Y334134D01*
X897319Y330704D01*
X897657Y327273D01*
X898658Y323974D01*
X900283Y320934D01*
X902470Y318270D01*
X905134Y316083D01*
X908174Y314458D01*
X911473Y313457D01*
X914904Y313119D01*
X918334Y313457D01*
X921633Y314458D01*
X924673Y316083D01*
X927338Y318270D01*
X929525Y320934D01*
X931150Y323974D01*
X932151Y327273D01*
X932488Y330704D01*
X932151Y334134D01*
X931150Y337433D01*
X929525Y340473D01*
X927338Y343138D01*
X924673Y345325D01*
X921633Y346950D01*
X918334Y347951D01*
X914904Y348288D01*
D02*
G37*
G36*
X688304Y289727D02*
Y281904D01*
X696127D01*
X696046Y282514D01*
X695039Y284947D01*
X693436Y287036D01*
X691347Y288639D01*
X688914Y289646D01*
X688304Y289727D01*
D02*
G37*
G36*
X684304D02*
X683693Y289646D01*
X681261Y288639D01*
X679172Y287036D01*
X677569Y284947D01*
X676561Y282514D01*
X676481Y281904D01*
X684304D01*
Y289727D01*
D02*
G37*
G36*
X662904D02*
Y281904D01*
X670727D01*
X670646Y282514D01*
X669639Y284947D01*
X668036Y287036D01*
X665947Y288639D01*
X663514Y289646D01*
X662904Y289727D01*
D02*
G37*
G36*
X658904D02*
X658293Y289646D01*
X655861Y288639D01*
X653772Y287036D01*
X652169Y284947D01*
X651161Y282514D01*
X651081Y281904D01*
X658904D01*
Y289727D01*
D02*
G37*
G36*
X481604Y286563D02*
X480433Y286330D01*
X479441Y285667D01*
X478778Y284674D01*
X478545Y283504D01*
X478778Y282333D01*
X479441Y281341D01*
X480433Y280678D01*
X481604Y280445D01*
X482774Y280678D01*
X483767Y281341D01*
X484430Y282333D01*
X484663Y283504D01*
X484430Y284674D01*
X483767Y285667D01*
X482774Y286330D01*
X481604Y286563D01*
D02*
G37*
G36*
X771504Y288904D02*
X753504D01*
Y270904D01*
X771504D01*
Y288904D01*
D02*
G37*
G36*
X542904D02*
X524904D01*
Y270904D01*
X542904D01*
Y288904D01*
D02*
G37*
G36*
X889504Y288981D02*
X887154Y288672D01*
X884965Y287765D01*
X883085Y286323D01*
X881642Y284443D01*
X880735Y282253D01*
X880426Y279904D01*
X880735Y277554D01*
X881642Y275365D01*
X883085Y273485D01*
X884965Y272042D01*
X887154Y271136D01*
X889504Y270826D01*
X891853Y271136D01*
X894043Y272042D01*
X895923Y273485D01*
X897365Y275365D01*
X898272Y277554D01*
X898581Y279904D01*
X898272Y282253D01*
X897365Y284443D01*
X895923Y286323D01*
X894043Y287765D01*
X891853Y288672D01*
X889504Y288981D01*
D02*
G37*
G36*
X864104D02*
X861754Y288672D01*
X859565Y287765D01*
X857685Y286323D01*
X856242Y284443D01*
X855335Y282253D01*
X855026Y279904D01*
X855335Y277554D01*
X856242Y275365D01*
X857685Y273485D01*
X859565Y272042D01*
X861754Y271136D01*
X864104Y270826D01*
X866453Y271136D01*
X868643Y272042D01*
X870523Y273485D01*
X871965Y275365D01*
X872872Y277554D01*
X873181Y279904D01*
X872872Y282253D01*
X871965Y284443D01*
X870523Y286323D01*
X868643Y287765D01*
X866453Y288672D01*
X864104Y288981D01*
D02*
G37*
G36*
X838704D02*
X836354Y288672D01*
X834165Y287765D01*
X832285Y286323D01*
X830842Y284443D01*
X829936Y282253D01*
X829626Y279904D01*
X829936Y277554D01*
X830842Y275365D01*
X832285Y273485D01*
X834165Y272042D01*
X836354Y271136D01*
X838704Y270826D01*
X841053Y271136D01*
X843243Y272042D01*
X845123Y273485D01*
X846565Y275365D01*
X847472Y277554D01*
X847781Y279904D01*
X847472Y282253D01*
X846565Y284443D01*
X845123Y286323D01*
X843243Y287765D01*
X841053Y288672D01*
X838704Y288981D01*
D02*
G37*
G36*
X813304D02*
X810954Y288672D01*
X808765Y287765D01*
X806885Y286323D01*
X805442Y284443D01*
X804536Y282253D01*
X804226Y279904D01*
X804536Y277554D01*
X805442Y275365D01*
X806885Y273485D01*
X808765Y272042D01*
X810954Y271136D01*
X813304Y270826D01*
X815653Y271136D01*
X817843Y272042D01*
X819723Y273485D01*
X821165Y275365D01*
X822072Y277554D01*
X822381Y279904D01*
X822072Y282253D01*
X821165Y284443D01*
X819723Y286323D01*
X817843Y287765D01*
X815653Y288672D01*
X813304Y288981D01*
D02*
G37*
G36*
X787904D02*
X785554Y288672D01*
X783365Y287765D01*
X781485Y286323D01*
X780042Y284443D01*
X779136Y282253D01*
X778826Y279904D01*
X779136Y277554D01*
X780042Y275365D01*
X781485Y273485D01*
X783365Y272042D01*
X785554Y271136D01*
X787904Y270826D01*
X790253Y271136D01*
X792443Y272042D01*
X794323Y273485D01*
X795765Y275365D01*
X796672Y277554D01*
X796981Y279904D01*
X796672Y282253D01*
X795765Y284443D01*
X794323Y286323D01*
X792443Y287765D01*
X790253Y288672D01*
X787904Y288981D01*
D02*
G37*
G36*
X711704D02*
X709354Y288672D01*
X707165Y287765D01*
X705285Y286323D01*
X703842Y284443D01*
X702935Y282253D01*
X702626Y279904D01*
X702935Y277554D01*
X703842Y275365D01*
X705285Y273485D01*
X707165Y272042D01*
X709354Y271136D01*
X711704Y270826D01*
X714053Y271136D01*
X716243Y272042D01*
X718123Y273485D01*
X719565Y275365D01*
X720472Y277554D01*
X720781Y279904D01*
X720472Y282253D01*
X719565Y284443D01*
X718123Y286323D01*
X716243Y287765D01*
X714053Y288672D01*
X711704Y288981D01*
D02*
G37*
G36*
X635504D02*
X633154Y288672D01*
X630965Y287765D01*
X629085Y286323D01*
X627642Y284443D01*
X626735Y282253D01*
X626426Y279904D01*
X626735Y277554D01*
X627642Y275365D01*
X629085Y273485D01*
X630965Y272042D01*
X633154Y271136D01*
X635504Y270826D01*
X637853Y271136D01*
X640043Y272042D01*
X641923Y273485D01*
X643365Y275365D01*
X644272Y277554D01*
X644581Y279904D01*
X644272Y282253D01*
X643365Y284443D01*
X641923Y286323D01*
X640043Y287765D01*
X637853Y288672D01*
X635504Y288981D01*
D02*
G37*
G36*
X610104D02*
X607754Y288672D01*
X605565Y287765D01*
X603685Y286323D01*
X602242Y284443D01*
X601335Y282253D01*
X601026Y279904D01*
X601335Y277554D01*
X602242Y275365D01*
X603685Y273485D01*
X605565Y272042D01*
X607754Y271136D01*
X610104Y270826D01*
X612453Y271136D01*
X614643Y272042D01*
X616523Y273485D01*
X617965Y275365D01*
X618872Y277554D01*
X619181Y279904D01*
X618872Y282253D01*
X617965Y284443D01*
X616523Y286323D01*
X614643Y287765D01*
X612453Y288672D01*
X610104Y288981D01*
D02*
G37*
G36*
X584704D02*
X582354Y288672D01*
X580165Y287765D01*
X578285Y286323D01*
X576842Y284443D01*
X575936Y282253D01*
X575626Y279904D01*
X575936Y277554D01*
X576842Y275365D01*
X578285Y273485D01*
X580165Y272042D01*
X582354Y271136D01*
X584704Y270826D01*
X587053Y271136D01*
X589243Y272042D01*
X591123Y273485D01*
X592565Y275365D01*
X593472Y277554D01*
X593781Y279904D01*
X593472Y282253D01*
X592565Y284443D01*
X591123Y286323D01*
X589243Y287765D01*
X587053Y288672D01*
X584704Y288981D01*
D02*
G37*
G36*
X559304D02*
X556954Y288672D01*
X554765Y287765D01*
X552885Y286323D01*
X551442Y284443D01*
X550536Y282253D01*
X550226Y279904D01*
X550536Y277554D01*
X551442Y275365D01*
X552885Y273485D01*
X554765Y272042D01*
X556954Y271136D01*
X559304Y270826D01*
X561653Y271136D01*
X563843Y272042D01*
X565723Y273485D01*
X567165Y275365D01*
X568072Y277554D01*
X568381Y279904D01*
X568072Y282253D01*
X567165Y284443D01*
X565723Y286323D01*
X563843Y287765D01*
X561653Y288672D01*
X559304Y288981D01*
D02*
G37*
G36*
X696127Y277904D02*
X688304D01*
Y270081D01*
X688914Y270161D01*
X691347Y271169D01*
X693436Y272772D01*
X695039Y274861D01*
X696046Y277293D01*
X696127Y277904D01*
D02*
G37*
G36*
X684304D02*
X676481D01*
X676561Y277293D01*
X677569Y274861D01*
X679172Y272772D01*
X681261Y271169D01*
X683693Y270161D01*
X684304Y270081D01*
Y277904D01*
D02*
G37*
G36*
X670727D02*
X662904D01*
Y270081D01*
X663514Y270161D01*
X665947Y271169D01*
X668036Y272772D01*
X669639Y274861D01*
X670646Y277293D01*
X670727Y277904D01*
D02*
G37*
G36*
X658904D02*
X651081D01*
X651161Y277293D01*
X652169Y274861D01*
X653772Y272772D01*
X655861Y271169D01*
X658293Y270161D01*
X658904Y270081D01*
Y277904D01*
D02*
G37*
G36*
X471204Y269463D02*
X470033Y269230D01*
X469041Y268567D01*
X468378Y267574D01*
X468145Y266404D01*
X468378Y265233D01*
X469041Y264241D01*
X470033Y263578D01*
X471204Y263345D01*
X472374Y263578D01*
X473367Y264241D01*
X474030Y265233D01*
X474263Y266404D01*
X474030Y267574D01*
X473367Y268567D01*
X472374Y269230D01*
X471204Y269463D01*
D02*
G37*
%LPD*%
G36*
X843935Y687303D02*
X843886Y687227D01*
X843844Y687141D01*
X843806Y687044D01*
X843775Y686936D01*
X843749Y686817D01*
X843729Y686687D01*
X843707Y686396D01*
X843704Y686235D01*
X842204Y686177D01*
X842201Y686338D01*
X842176Y686628D01*
X842154Y686757D01*
X842125Y686874D01*
X842091Y686981D01*
X842050Y687076D01*
X842003Y687161D01*
X841950Y687235D01*
X841890Y687298D01*
X843989Y687368D01*
X843935Y687303D01*
D02*
G37*
G36*
X843707Y673269D02*
X843732Y672980D01*
X843754Y672851D01*
X843782Y672734D01*
X843817Y672627D01*
X843857Y672531D01*
X843905Y672446D01*
X843958Y672372D01*
X844017Y672309D01*
X841919Y672239D01*
X841973Y672305D01*
X842021Y672380D01*
X842064Y672467D01*
X842101Y672564D01*
X842132Y672672D01*
X842158Y672791D01*
X842178Y672920D01*
X842201Y673211D01*
X842204Y673373D01*
X843704Y673430D01*
X843707Y673269D01*
D02*
G37*
%LPC*%
G36*
X528608Y709704D02*
X520664D01*
Y701760D01*
X521306Y701844D01*
X523768Y702864D01*
X525882Y704486D01*
X527504Y706600D01*
X528523Y709062D01*
X528608Y709704D01*
D02*
G37*
G36*
X516664D02*
X508720D01*
X508804Y709062D01*
X509824Y706600D01*
X511446Y704486D01*
X513560Y702864D01*
X516022Y701844D01*
X516664Y701760D01*
Y709704D01*
D02*
G37*
G36*
X493264Y695502D02*
X490883Y695189D01*
X488665Y694270D01*
X486759Y692808D01*
X485298Y690903D01*
X484379Y688685D01*
X484065Y686304D01*
X484379Y683923D01*
X485298Y681704D01*
X486759Y679799D01*
X488665Y678337D01*
X490883Y677419D01*
X493264Y677105D01*
X495645Y677419D01*
X497863Y678337D01*
X499768Y679799D01*
X501230Y681704D01*
X502149Y683923D01*
X502463Y686304D01*
X502149Y688685D01*
X501230Y690903D01*
X499768Y692808D01*
X497863Y694270D01*
X495645Y695189D01*
X493264Y695502D01*
D02*
G37*
G36*
Y670102D02*
X490883Y669789D01*
X488665Y668870D01*
X486759Y667408D01*
X485298Y665503D01*
X484379Y663285D01*
X484065Y660904D01*
X484379Y658523D01*
X485298Y656304D01*
X486759Y654399D01*
X488665Y652937D01*
X490883Y652019D01*
X493264Y651705D01*
X495645Y652019D01*
X497863Y652937D01*
X499768Y654399D01*
X501230Y656304D01*
X502149Y658523D01*
X502463Y660904D01*
X502149Y663285D01*
X501230Y665503D01*
X499768Y667408D01*
X497863Y668870D01*
X495645Y669789D01*
X493264Y670102D01*
D02*
G37*
G36*
Y644703D02*
X490883Y644389D01*
X488665Y643470D01*
X486759Y642008D01*
X485298Y640103D01*
X484379Y637885D01*
X484065Y635504D01*
X484379Y633123D01*
X485298Y630905D01*
X486759Y628999D01*
X488665Y627537D01*
X490883Y626619D01*
X493264Y626305D01*
X495645Y626619D01*
X497863Y627537D01*
X499768Y628999D01*
X501230Y630905D01*
X502149Y633123D01*
X502463Y635504D01*
X502149Y637885D01*
X501230Y640103D01*
X499768Y642008D01*
X497863Y643470D01*
X495645Y644389D01*
X493264Y644703D01*
D02*
G37*
G36*
X709504Y682363D02*
X708333Y682130D01*
X707341Y681467D01*
X706678Y680474D01*
X706445Y679304D01*
X706678Y678133D01*
X707115Y677479D01*
X706778Y676974D01*
X706545Y675804D01*
X706778Y674633D01*
X707441Y673641D01*
X708433Y672978D01*
X709604Y672745D01*
X710774Y672978D01*
X711767Y673641D01*
X712430Y674633D01*
X712663Y675804D01*
X712430Y676974D01*
X711993Y677629D01*
X712330Y678133D01*
X712563Y679304D01*
X712330Y680474D01*
X711667Y681467D01*
X710674Y682130D01*
X709504Y682363D01*
D02*
G37*
G36*
X697004Y678284D02*
X695833Y678051D01*
X694841Y677388D01*
X694178Y676396D01*
X693945Y675225D01*
X694178Y674055D01*
X694841Y673063D01*
X695833Y672400D01*
X697004Y672167D01*
X698174Y672400D01*
X699167Y673063D01*
X699830Y674055D01*
X700063Y675225D01*
X699830Y676396D01*
X699167Y677388D01*
X698174Y678051D01*
X697004Y678284D01*
D02*
G37*
G36*
X583414Y643963D02*
X582243Y643730D01*
X581251Y643067D01*
X580588Y642074D01*
X580355Y640904D01*
X580588Y639733D01*
X581251Y638741D01*
X582243Y638078D01*
X583414Y637845D01*
X584584Y638078D01*
X585577Y638741D01*
X586240Y639733D01*
X586473Y640904D01*
X586240Y642074D01*
X585577Y643067D01*
X584584Y643730D01*
X583414Y643963D01*
D02*
G37*
G36*
X589204Y577663D02*
X588033Y577430D01*
X587041Y576767D01*
X586378Y575774D01*
X586145Y574604D01*
X586378Y573433D01*
X587041Y572441D01*
X588033Y571778D01*
X589204Y571545D01*
X590374Y571778D01*
X591367Y572441D01*
X592030Y573433D01*
X592263Y574604D01*
X592030Y575774D01*
X591367Y576767D01*
X590374Y577430D01*
X589204Y577663D01*
D02*
G37*
G36*
X556304Y503463D02*
X555133Y503230D01*
X554141Y502567D01*
X553478Y501574D01*
X553245Y500404D01*
X553478Y499233D01*
X554141Y498241D01*
X555133Y497578D01*
X556304Y497345D01*
X557474Y497578D01*
X558467Y498241D01*
X559130Y499233D01*
X559363Y500404D01*
X559130Y501574D01*
X558467Y502567D01*
X557474Y503230D01*
X556304Y503463D01*
D02*
G37*
G36*
X700904Y491304D02*
X673904D01*
Y477304D01*
X678744Y477277D01*
X678991Y477005D01*
X679398Y476396D01*
X679678Y475719D01*
X679821Y475000D01*
X679839Y474634D01*
Y472011D01*
X679806Y471345D01*
X679547Y470038D01*
X679037Y468808D01*
X678426Y467893D01*
X677592Y466968D01*
X622478D01*
X622404Y467043D01*
X622203D01*
X621809Y466965D01*
X621438Y466811D01*
X621104Y466588D01*
X620962Y466446D01*
X620820Y466304D01*
X620597Y465970D01*
X620443Y465599D01*
X620365Y465205D01*
Y458148D01*
X620475Y457594D01*
X620691Y457073D01*
X620691Y457072D01*
X621004Y456603D01*
X621204Y456404D01*
X621204Y456404D01*
X621320Y456288D01*
X622371Y455236D01*
X624845Y453583D01*
X627593Y452445D01*
X630511Y451865D01*
X677145D01*
X682053Y452841D01*
X686675Y454755D01*
X690835Y457535D01*
X692604Y459304D01*
X692604D01*
X693402Y460102D01*
X694185Y461274D01*
X694725Y462576D01*
X694999Y463959D01*
Y474285D01*
X695020Y474703D01*
X695183Y475524D01*
X695504Y476297D01*
X695969Y476993D01*
X696250Y477304D01*
X700904D01*
Y491304D01*
D02*
G37*
G36*
X608997Y465104D02*
X602008D01*
X601942Y465091D01*
X601880Y465065D01*
X601824Y465028D01*
X601800Y465004D01*
X601502Y464706D01*
X601033Y464004D01*
X600710Y463225D01*
X600546Y462398D01*
Y451017D01*
X600529Y450668D01*
X600393Y449984D01*
X600126Y449339D01*
X599738Y448759D01*
X599504Y448501D01*
X599033Y448074D01*
X597977Y447369D01*
X596804Y446883D01*
X595559Y446635D01*
X594924Y446604D01*
X561228D01*
X560173Y446394D01*
X559179Y445982D01*
X558284Y445384D01*
X557904Y445004D01*
X557426Y444526D01*
X556675Y443402D01*
X556158Y442153D01*
X555894Y440828D01*
Y436049D01*
X556110Y434966D01*
X556532Y433945D01*
X557146Y433027D01*
X557536Y432636D01*
X557536D01*
X558734Y431439D01*
X575404D01*
X575429Y431465D01*
X616552D01*
X616844Y431523D01*
X617119Y431636D01*
X617366Y431801D01*
X618325Y432760D01*
X618383Y432847D01*
X618423Y432944D01*
X618443Y433046D01*
Y456598D01*
X610602Y464439D01*
X610114Y464765D01*
X609572Y464989D01*
X608997Y465104D01*
D02*
G37*
G36*
X509204Y373763D02*
X508033Y373530D01*
X507041Y372867D01*
X506378Y371874D01*
X506145Y370704D01*
X506378Y369533D01*
X507041Y368541D01*
X508033Y367878D01*
X509204Y367645D01*
X510374Y367878D01*
X511367Y368541D01*
X512030Y369533D01*
X512263Y370704D01*
X512030Y371874D01*
X511367Y372867D01*
X510374Y373530D01*
X509204Y373763D01*
D02*
G37*
G36*
X497704Y332663D02*
X496533Y332430D01*
X495541Y331767D01*
X494878Y330774D01*
X494645Y329604D01*
X494878Y328433D01*
X495541Y327441D01*
X496533Y326778D01*
X497704Y326545D01*
X498874Y326778D01*
X499867Y327441D01*
X500530Y328433D01*
X500763Y329604D01*
X500530Y330774D01*
X499867Y331767D01*
X498874Y332430D01*
X497704Y332663D01*
D02*
G37*
G36*
X547904Y331563D02*
X546733Y331330D01*
X545741Y330667D01*
X545078Y329674D01*
X544845Y328504D01*
X545078Y327333D01*
X545741Y326341D01*
X546733Y325678D01*
X547904Y325445D01*
X549074Y325678D01*
X550067Y326341D01*
X550730Y327333D01*
X550963Y328504D01*
X550730Y329674D01*
X550067Y330667D01*
X549074Y331330D01*
X547904Y331563D01*
D02*
G37*
G36*
X455803Y326362D02*
X454632Y326129D01*
X453640Y325466D01*
X452977Y324473D01*
X452744Y323303D01*
X452977Y322132D01*
X453640Y321140D01*
Y321068D01*
X452741Y320467D01*
X452078Y319474D01*
X451845Y318304D01*
X452078Y317133D01*
X452741Y316141D01*
X453733Y315478D01*
X454904Y315245D01*
X456074Y315478D01*
X457067Y316141D01*
X457730Y317133D01*
X457963Y318304D01*
X457730Y319474D01*
X457067Y320467D01*
Y320539D01*
X457966Y321140D01*
X458629Y322132D01*
X458862Y323303D01*
X458629Y324473D01*
X457966Y325466D01*
X456974Y326129D01*
X455803Y326362D01*
D02*
G37*
G36*
X515304Y314963D02*
X514133Y314730D01*
X513141Y314067D01*
X512531Y313153D01*
X512015Y313066D01*
X511178Y313051D01*
X510767Y313667D01*
X509774Y314330D01*
X508604Y314563D01*
X507433Y314330D01*
X506441Y313667D01*
X505778Y312674D01*
X505545Y311504D01*
X505778Y310333D01*
X506441Y309341D01*
X507433Y308678D01*
X508604Y308445D01*
X509774Y308678D01*
X510767Y309341D01*
X511377Y310254D01*
X511893Y310342D01*
X512729Y310357D01*
X513141Y309741D01*
X514133Y309078D01*
X515304Y308845D01*
X516474Y309078D01*
X517467Y309741D01*
X518130Y310733D01*
X518363Y311904D01*
X518130Y313074D01*
X517467Y314067D01*
X516474Y314730D01*
X515304Y314963D01*
D02*
G37*
%LPD*%
D10*
X625457Y408694D02*
X689897D01*
X619167Y402404D02*
X625457Y408694D01*
X568004Y470804D02*
Y611564D01*
X544064Y635504D02*
X568004Y611564D01*
X723454Y448254D02*
X765603Y490403D01*
X665604Y708804D02*
X671004Y714204D01*
X651504Y694704D02*
X665604Y708804D01*
X659704Y691704D02*
X679204Y711204D01*
X684304Y705204D02*
X706404D01*
X664804Y685704D02*
X684304Y705204D01*
X572043Y685704D02*
X664804D01*
X682904Y708204D02*
X707712D01*
X663404Y688704D02*
X682904Y708204D01*
X573285Y688704D02*
X663404D01*
X679204Y711204D02*
X708955D01*
X574528Y691704D02*
X659704D01*
X671004Y714204D02*
X710198D01*
X575771Y694704D02*
X651504D01*
X666539Y725839D02*
X715239D01*
X647404Y706704D02*
X666539Y725839D01*
X619701Y706704D02*
X647404D01*
X665404Y729304D02*
X713304D01*
X645904Y709804D02*
X665404Y729304D01*
X621704Y709804D02*
X645904D01*
X759191Y428488D02*
X787906Y457204D01*
X766904Y421201D02*
X771654Y425951D01*
Y426100D02*
X782006Y436453D01*
X771654Y425951D02*
Y426100D01*
X763191Y428095D02*
X787500Y452404D01*
X763191Y427091D02*
Y428095D01*
X762904Y426804D02*
X763191Y427091D01*
X759191Y427497D02*
Y428488D01*
X758904Y427210D02*
X759191Y427497D01*
X758904Y426804D02*
Y427210D01*
X764354Y446204D02*
X770254Y440304D01*
X787906Y457204D02*
X799604D01*
X787500Y452404D02*
X794004D01*
X780503Y440104D02*
X794004D01*
X767102Y426703D02*
X780503Y440104D01*
X792351Y436453D02*
X792701Y436104D01*
X782006Y436453D02*
X792351D01*
X766904Y418804D02*
Y421201D01*
X744804Y424807D02*
X755052Y435056D01*
X758755D01*
X758802Y435103D01*
X744804Y406404D02*
Y424807D01*
X774654Y424858D02*
X783249Y433453D01*
X774654Y417251D02*
Y424858D01*
X771557Y414154D02*
X774654Y417251D01*
X770051Y414154D02*
X771557D01*
X767854Y411957D02*
X770051Y414154D01*
X771604Y410404D02*
X781804D01*
X757054Y402154D02*
X785221D01*
X755554Y399154D02*
X786464D01*
X767854Y411190D02*
Y411957D01*
X783249Y433453D02*
X791109D01*
X767789Y411190D02*
X767854D01*
X767502Y410903D02*
X767789Y411190D01*
X749304Y405404D02*
X755554Y399154D01*
X786464D02*
X796004Y408694D01*
X749304Y405404D02*
Y418054D01*
X752304Y406904D02*
X757054Y402154D01*
X785221D02*
X793004Y409936D01*
X752304Y406904D02*
Y415004D01*
X753804Y416504D01*
X749304Y418054D02*
X750054Y418804D01*
X492579Y429325D02*
X516004Y452750D01*
X490804Y429325D02*
X492579D01*
X530304Y429654D02*
Y527674D01*
X526704Y426054D02*
X530304Y429654D01*
X516104Y541874D02*
X530304Y527674D01*
X544004Y686244D02*
Y686304D01*
X533504Y420604D02*
Y529104D01*
X525904Y413004D02*
X533504Y420604D01*
X519254Y543354D02*
X533504Y529104D01*
X525004Y446304D02*
Y528732D01*
X506404Y427704D02*
X525004Y446304D01*
X513104Y540632D02*
X525004Y528732D01*
X522004Y449204D02*
Y527489D01*
X506004Y433204D02*
X522004Y449204D01*
X510104Y539389D02*
X522004Y527489D01*
X574904Y563504D02*
Y630064D01*
X505804Y622644D02*
X518664Y635504D01*
X505804Y561304D02*
Y622644D01*
X495904Y551404D02*
X505804Y561304D01*
X495904Y545104D02*
Y551404D01*
Y545104D02*
X516004Y525004D01*
X773654Y606497D02*
X798404Y631246D01*
X773654Y504754D02*
Y606497D01*
X723704Y454804D02*
X773654Y504754D01*
X776654Y605254D02*
X801404Y630004D01*
X776654Y501354D02*
Y605254D01*
X765703Y490403D02*
X776654Y501354D01*
X779654Y603054D02*
X809104Y632504D01*
X779654Y498451D02*
Y603054D01*
X689897Y408694D02*
X779654Y498451D01*
X456004Y391004D02*
X456410D01*
X458810Y393404D01*
X455904Y402904D02*
X459404Y399404D01*
X456704Y408704D02*
X463004Y402404D01*
X619167D01*
X440204Y408704D02*
X456704D01*
X426404Y422504D02*
X440204Y408704D01*
X421304Y422504D02*
X426404D01*
X417704Y418904D02*
X421304Y422504D01*
X459404Y399404D02*
X689234D01*
X763934Y474104D01*
X456004Y397004D02*
X456604Y396404D01*
X783602Y585203D02*
X795104Y573701D01*
X770654Y507954D02*
Y607739D01*
X724038Y461338D02*
X770654Y507954D01*
X419104Y342204D02*
X421904Y339404D01*
X419104Y342204D02*
Y383804D01*
X421904Y339404D02*
X633704D01*
X423604Y408504D02*
X430904Y401204D01*
X414704Y408504D02*
X423604D01*
X408154Y415054D02*
X414704Y408504D01*
X430904Y395604D02*
Y401204D01*
X419104Y383804D02*
X430904Y395604D01*
X526204Y379004D02*
X607961D01*
X621661Y365304D02*
X736204D01*
X607961Y379004D02*
X621661Y365304D01*
X441004Y387961D02*
Y397504D01*
X424404Y414104D02*
X441004Y397504D01*
X414400Y414104D02*
X424404D01*
X411154Y417351D02*
X414400Y414104D01*
X633704Y339404D02*
X636004Y337104D01*
X736204Y365304D02*
X762254Y339254D01*
X537704Y519604D02*
X556204Y538104D01*
X537704Y417804D02*
Y519604D01*
X526104Y406204D02*
X537704Y417804D01*
X519254Y543354D02*
Y557154D01*
X516104Y541874D02*
Y586161D01*
X562034Y555504D02*
X562304D01*
X557934Y551404D02*
X562034Y555504D01*
X513104Y540632D02*
Y587404D01*
X493072Y425575D02*
X519004Y451507D01*
X486733Y425575D02*
X493072D01*
X483104Y429204D02*
X486733Y425575D01*
X519004Y451507D02*
Y526246D01*
X516004Y452750D02*
Y525004D01*
X492715Y433704D02*
X513004Y453992D01*
Y523632D01*
X455604Y433704D02*
X492715D01*
X493272Y438503D02*
X509804Y455035D01*
Y522589D01*
X492779Y442253D02*
X506804Y456278D01*
Y521346D01*
X491587Y445304D02*
X503804Y457520D01*
Y520104D01*
X455704Y445304D02*
X491587D01*
X458753Y442253D02*
X492779D01*
X467403Y438503D02*
X493272D01*
X510104Y539389D02*
Y601544D01*
X500904Y544346D02*
X519004Y526246D01*
X500904Y544346D02*
Y550504D01*
X467864Y568772D02*
X513004Y523632D01*
X454104Y578289D02*
X509804Y522589D01*
X442464Y585686D02*
X506804Y521346D01*
X432594Y591314D02*
X503804Y520104D01*
X427604Y592061D02*
X500804Y518861D01*
Y459504D02*
Y518861D01*
X490254Y448954D02*
X500804Y459504D01*
X424604Y590819D02*
X497804Y517619D01*
Y461704D02*
Y517619D01*
X488304Y452204D02*
X497804Y461704D01*
X421604Y589576D02*
X494804Y516376D01*
Y463601D02*
Y516376D01*
X486407Y455204D02*
X494804Y463601D01*
X454151Y448954D02*
X490254D01*
X523404Y551404D02*
X557934D01*
X519254Y557154D02*
X522004Y559904D01*
X510104Y601544D02*
X518664Y610104D01*
X513104Y587404D02*
X530304Y604604D01*
X516104Y586161D02*
X533304Y603361D01*
X544064Y660904D02*
X574904Y630064D01*
X533304Y603361D02*
Y675544D01*
X530304Y604604D02*
Y697944D01*
X533304Y675544D02*
X544004Y686244D01*
Y686304D02*
X544064D01*
X530304Y697944D02*
X544064Y711704D01*
X456104Y439604D02*
X458753Y442253D01*
X432404Y455204D02*
X486407D01*
X408154Y430954D02*
X432404Y455204D01*
X434804Y452204D02*
X488304D01*
X411154Y428554D02*
X434804Y452204D01*
X449204Y444007D02*
X454151Y448954D01*
X449204Y428604D02*
Y444007D01*
Y428604D02*
X468804Y409004D01*
X408154Y415054D02*
Y430954D01*
X411154Y417351D02*
Y428554D01*
X414904Y418904D02*
X417704D01*
X455861Y373104D02*
X467404D01*
X441004Y387961D02*
X455861Y373104D01*
X439804Y648404D02*
X455364D01*
X427604Y636204D02*
X439804Y648404D01*
X427604Y592061D02*
Y636204D01*
X439835Y655535D02*
Y658275D01*
X424604Y640304D02*
X439835Y655535D01*
X424604Y590819D02*
Y640304D01*
X421604Y644329D02*
X431304Y654029D01*
X421604Y589576D02*
Y644329D01*
X432594Y591314D02*
Y625634D01*
X442464Y585686D02*
Y610104D01*
X454104Y578289D02*
Y621744D01*
X467864Y568772D02*
Y610104D01*
X439835Y658275D02*
X442464Y660904D01*
X432594Y625634D02*
X442464Y635504D01*
X455364Y648404D02*
X467864Y660904D01*
X454104Y621744D02*
X467864Y635504D01*
X431304Y674204D02*
X442464Y685364D01*
X431304Y654029D02*
Y674204D01*
X442464Y685364D02*
Y686304D01*
Y660904D02*
X456004Y674444D01*
X424604Y418704D02*
X444204Y399104D01*
Y389004D02*
Y399104D01*
Y389004D02*
X453404Y379804D01*
X456004Y674444D02*
Y718705D01*
X459803Y722504D01*
X456264Y725504D02*
X552846D01*
X560704Y701285D02*
Y717646D01*
X552846Y725504D02*
X560704Y717646D01*
X551604Y722504D02*
X557704Y716404D01*
Y700043D02*
Y716404D01*
Y700043D02*
X572043Y685704D01*
X724804Y686804D02*
X781404D01*
X791304Y676904D01*
X795404Y632489D02*
Y679804D01*
X798404Y631246D02*
Y682404D01*
X801404Y630004D02*
Y683646D01*
X770654Y607739D02*
X795404Y632489D01*
X785404Y689804D02*
X795404Y679804D01*
X787804Y693004D02*
X798404Y682404D01*
X787646Y697404D02*
X801404Y683646D01*
X726112Y689804D02*
X785404D01*
X706404Y705204D02*
X724804Y686804D01*
X707712Y708204D02*
X726112Y689804D01*
X727155Y693004D02*
X787804D01*
X708955Y711204D02*
X727155Y693004D01*
X726998Y697404D02*
X787646D01*
X710198Y714204D02*
X726998Y697404D01*
X560704Y701285D02*
X573285Y688704D01*
X563704Y702528D02*
X574528Y691704D01*
X566704Y703771D02*
X575771Y694704D01*
X459803Y722504D02*
X551604D01*
X442464Y711704D02*
X456264Y725504D01*
X563704Y702528D02*
Y732704D01*
X548304Y748104D02*
X563704Y732704D01*
X549546Y751104D02*
X566704Y733946D01*
Y703771D02*
Y733946D01*
X783404Y497904D02*
Y578804D01*
X689157Y403657D02*
X783404Y497904D01*
X625724Y403657D02*
X689157D01*
X690477Y396404D02*
X764427Y470354D01*
X692004Y393404D02*
X765954Y467354D01*
X479264Y751104D02*
X549546D01*
X467864Y762504D02*
X479264Y751104D01*
X456864Y748104D02*
X548304D01*
X442464Y762504D02*
X456864Y748104D01*
X765603Y490403D02*
X765703D01*
X809104Y632504D02*
Y696104D01*
X715239Y725839D02*
X723404Y734004D01*
X713304Y729304D02*
X721004Y737004D01*
X838604D01*
X723404Y734004D02*
X839846D01*
X456604Y396404D02*
X690477D01*
X763934Y474104D02*
X791979D01*
X764427Y470354D02*
X793532D01*
X609404Y717001D02*
X619701Y706704D01*
X614304Y717204D02*
X621704Y709804D01*
X630707Y714004D02*
X634304Y717600D01*
X627704Y714004D02*
X630707D01*
X591904Y749804D02*
X627704Y714004D01*
X839846Y734004D02*
X856146Y750304D01*
X838604Y737004D02*
X864104Y762504D01*
X842954Y671254D02*
X843004Y671204D01*
X842954Y671254D02*
Y688354D01*
X842904Y688404D02*
X842954Y688354D01*
X620264Y745186D02*
X643782Y721668D01*
Y718040D02*
Y721668D01*
Y718040D02*
X643904Y717918D01*
X600504Y774904D02*
X607604Y767804D01*
Y753604D02*
Y767804D01*
Y753604D02*
X639304Y721904D01*
X813504Y447611D02*
Y588704D01*
X869804Y645004D01*
X798996Y433104D02*
X813504Y447611D01*
X582164Y749804D02*
X591904D01*
X569464Y762504D02*
X582164Y749804D01*
X556464Y774904D02*
X600504D01*
X544064Y762504D02*
X556464Y774904D01*
X614304Y717204D02*
Y717404D01*
X609404Y717001D02*
Y717404D01*
X629104Y717904D02*
X629304D01*
X594864Y752144D02*
X629104Y717904D01*
X594864Y752144D02*
Y762504D01*
X620264Y745186D02*
Y762504D01*
X639304Y717918D02*
Y721904D01*
X634304Y717600D02*
Y717918D01*
X856146Y750304D02*
X877304D01*
X889504Y762504D01*
X424288Y418704D02*
X424604D01*
X460704Y379804D02*
X466004Y385104D01*
X453404Y379804D02*
X460704D01*
X458810Y393404D02*
X692004D01*
X466004Y385104D02*
X473904D01*
X795104Y542704D02*
Y573701D01*
Y542704D02*
X810504Y527304D01*
Y448854D02*
Y527304D01*
X807404Y465004D02*
Y524604D01*
X791604Y540404D02*
X807404Y524604D01*
X791604Y540404D02*
Y569925D01*
X787352Y574177D02*
X791604Y569925D01*
X809254Y588054D02*
X809404Y588204D01*
X791254Y588054D02*
X809254D01*
X791104Y587904D02*
X791254Y588054D01*
X791458Y433104D02*
X798996D01*
X791109Y433453D02*
X791458Y433104D01*
X797754Y436104D02*
X810504Y448854D01*
X792701Y436104D02*
X797754D01*
X799604Y457204D02*
X807404Y465004D01*
X765954Y467354D02*
X794774D01*
X644804Y371604D02*
Y371904D01*
X641504Y368304D02*
X644804Y371604D01*
X622904Y368304D02*
X641504D01*
X615954Y375254D02*
X622904Y368304D01*
X615954Y375254D02*
Y383004D01*
X809446Y432946D02*
X836746D01*
X793004Y416504D02*
X809446Y432946D01*
X836746D02*
X841904Y438104D01*
X827562Y429946D02*
X834504Y423004D01*
X811046Y429946D02*
X827562D01*
X796004Y414904D02*
X811046Y429946D01*
X834504Y416104D02*
Y423004D01*
Y416104D02*
X838704Y411904D01*
X841804D01*
X796004Y408694D02*
Y414904D01*
X793004Y409936D02*
Y416504D01*
X750004Y424704D02*
X753804Y420904D01*
Y416504D02*
Y420904D01*
X809002Y334906D02*
X828923D01*
X804654Y339254D02*
X809002Y334906D01*
X762254Y339254D02*
X804654D01*
X828923Y334906D02*
X838421Y344404D01*
X844945D01*
X794774Y467354D02*
X799904Y472483D01*
X793532Y470354D02*
X796904Y473726D01*
X799904Y472483D02*
Y495994D01*
X796904Y473726D02*
Y479479D01*
X791504Y504394D02*
X799904Y495994D01*
X791979Y484404D02*
X796904Y479479D01*
D12*
X589404Y680504D02*
X602904Y667004D01*
X732004D01*
D14*
X759904Y405904D02*
X783668D01*
X784802Y429703D02*
X786304Y428201D01*
X756304Y409504D02*
X759904Y405904D01*
X783668D02*
X786304Y408540D01*
X456194Y384794D02*
X461004Y389604D01*
X693704D02*
X767704Y463604D01*
X461004Y389604D02*
X693704D01*
X791154Y534254D02*
X803654Y521754D01*
Y470930D02*
Y521754D01*
X791104Y534254D02*
X791154D01*
X767704Y463604D02*
X796328D01*
X796204Y357204D02*
Y364304D01*
X779604Y380904D02*
X796204Y364304D01*
X786304Y408540D02*
Y428201D01*
X803068Y335504D02*
X816818Y321754D01*
X740404Y335504D02*
X803068D01*
X816818Y321754D02*
X840804D01*
X725804Y350104D02*
X740404Y335504D01*
X796328Y463604D02*
X803654Y470930D01*
D15*
X817554Y411454D02*
X817854D01*
X629503Y372238D02*
X633568Y376304D01*
X629504Y380304D02*
X751004D01*
X629503Y372103D02*
Y372238D01*
X625304Y376104D02*
X629504Y380304D01*
X633568Y376304D02*
X752661D01*
X794504Y388404D02*
X817554Y411454D01*
X764761Y388404D02*
X794504D01*
X792304Y392404D02*
X817654Y417754D01*
X763104Y392404D02*
X792304D01*
X752661Y376304D02*
X764761Y388404D01*
X751004Y380304D02*
X763104Y392404D01*
D60*
X446204Y302104D02*
X801204D01*
X823218D01*
X832704Y311590D01*
X411148Y337159D02*
X446204Y302104D01*
X411148Y337159D02*
Y386648D01*
X424004Y399504D01*
D61*
X576488Y700704D02*
X648904D01*
X639004Y443804D02*
X646104Y436704D01*
X708604D02*
X717204Y445304D01*
X646104Y436704D02*
X708604D01*
X765904Y597704D02*
X765904Y597704D01*
X667204Y719004D02*
X710404D01*
X648904Y700704D02*
X667204Y719004D01*
X765904Y513104D02*
Y597704D01*
X717204Y464404D02*
X765904Y513104D01*
X717204Y445304D02*
Y464404D01*
X716904Y719004D02*
X727154Y729254D01*
X710404Y719004D02*
X716904D01*
X727154Y729254D02*
X791254D01*
X818204Y649354D02*
Y702304D01*
X791254Y729254D02*
X818204Y702304D01*
D85*
X918354Y411854D02*
D03*
D86*
X899604Y366504D02*
D03*
D87*
X874854Y373904D02*
D03*
D88*
X892404Y458504D02*
D03*
D89*
X874954Y451954D02*
D03*
D116*
X620264Y762504D02*
D03*
X442464D02*
D03*
X467864D02*
D03*
X518664D02*
D03*
X544064D02*
D03*
X569464D02*
D03*
X594864D02*
D03*
X864104D02*
D03*
X660904Y279904D02*
D03*
X686304D02*
D03*
D117*
X889504Y762504D02*
D03*
D118*
X879894Y371994D02*
D03*
Y451874D02*
D03*
D119*
X873694Y368734D02*
D03*
Y455134D02*
D03*
D120*
X924194Y368734D02*
D03*
Y455134D02*
D03*
D121*
X442464Y737104D02*
D03*
X467864D02*
D03*
X544064Y711704D02*
D03*
X518664D02*
D03*
X442464D02*
D03*
X544064Y686304D02*
D03*
X442464D02*
D03*
X544064Y660904D02*
D03*
X467864D02*
D03*
X442464D02*
D03*
X544064Y635504D02*
D03*
X518664D02*
D03*
X467864D02*
D03*
X442464D02*
D03*
X518664Y610104D02*
D03*
X467864D02*
D03*
X442464D02*
D03*
D123*
X614704Y464704D02*
D03*
X621404Y426804D02*
D03*
X621504Y440504D02*
D03*
Y433604D02*
D03*
X709804Y486404D02*
D03*
X646304Y470404D02*
D03*
X639004Y443804D02*
D03*
X765904Y597704D02*
D03*
X568004Y470804D02*
D03*
X665604Y708804D02*
D03*
X676694Y708904D02*
D03*
X668304Y484704D02*
D03*
X709504Y448254D02*
D03*
X688104Y521037D02*
D03*
X767102Y426703D02*
D03*
X762502Y437103D02*
D03*
X758802Y435103D02*
D03*
X771604Y410404D02*
D03*
X784802Y429703D02*
D03*
X579004Y334904D02*
D03*
X592604Y295904D02*
D03*
X466954Y309404D02*
D03*
X419604Y292704D02*
D03*
X812804Y317404D02*
D03*
X837404Y333204D02*
D03*
X890904Y349404D02*
D03*
X890504Y300604D02*
D03*
X788004Y517804D02*
D03*
X784604Y479004D02*
D03*
X874104Y486504D02*
D03*
X843304Y455304D02*
D03*
X821104Y461804D02*
D03*
X905404Y513804D02*
D03*
X824304Y510304D02*
D03*
X872204Y594404D02*
D03*
X871965Y623504D02*
D03*
X904704Y553504D02*
D03*
X840004D02*
D03*
X809804Y727404D02*
D03*
X696204Y737204D02*
D03*
X587704Y736004D02*
D03*
X530004Y593404D02*
D03*
X486404D02*
D03*
X746804Y679604D02*
D03*
X736304Y675104D02*
D03*
X686504Y634296D02*
D03*
X739804Y575978D02*
D03*
X687304D02*
D03*
X628804Y575745D02*
D03*
X793279Y423804D02*
D03*
X434004Y460604D02*
D03*
X461904Y366204D02*
D03*
X497904Y365504D02*
D03*
X526004Y432904D02*
D03*
X539454Y308804D02*
D03*
X632004Y322304D02*
D03*
X651504Y313704D02*
D03*
X526526Y420604D02*
D03*
X491704Y421004D02*
D03*
X526104Y384984D02*
D03*
X491104D02*
D03*
X479204Y373045D02*
D03*
X482604Y377204D02*
D03*
X580404Y384004D02*
D03*
X569904Y415004D02*
D03*
X449904Y367004D02*
D03*
X469204Y467667D02*
D03*
X569904Y451004D02*
D03*
X756304Y392704D02*
D03*
X892404Y680604D02*
D03*
X857685Y666104D02*
D03*
X565804Y668623D02*
D03*
X565704Y678504D02*
D03*
X934404Y375504D02*
D03*
Y295504D02*
D03*
Y315504D02*
D03*
Y335504D02*
D03*
Y355504D02*
D03*
Y395504D02*
D03*
Y415504D02*
D03*
Y435504D02*
D03*
Y475504D02*
D03*
Y535504D02*
D03*
Y555504D02*
D03*
Y575504D02*
D03*
Y595504D02*
D03*
Y615504D02*
D03*
Y635504D02*
D03*
X909404Y642504D02*
D03*
Y702504D02*
D03*
Y722504D02*
D03*
Y742504D02*
D03*
Y762504D02*
D03*
X872204Y783904D02*
D03*
X852204D02*
D03*
X832204D02*
D03*
X812204D02*
D03*
X792204D02*
D03*
X772204D02*
D03*
X752204D02*
D03*
X732204D02*
D03*
X712204D02*
D03*
X692204D02*
D03*
X672204D02*
D03*
X652204D02*
D03*
X632204D02*
D03*
X612204D02*
D03*
X592204D02*
D03*
X572204D02*
D03*
X552204D02*
D03*
X532204D02*
D03*
X512204D02*
D03*
X492204D02*
D03*
X472204D02*
D03*
X452204D02*
D03*
X432204D02*
D03*
X412204D02*
D03*
X892603Y259304D02*
D03*
X872604D02*
D03*
X852604D02*
D03*
X832604D02*
D03*
X812604D02*
D03*
X792604D02*
D03*
X772604D02*
D03*
X752604D02*
D03*
X732604D02*
D03*
X712604D02*
D03*
X692604D02*
D03*
X672604D02*
D03*
X652604D02*
D03*
X632604D02*
D03*
X612604D02*
D03*
X592604D02*
D03*
X572604D02*
D03*
X552604D02*
D03*
X532604D02*
D03*
X512604D02*
D03*
X472604D02*
D03*
X452604D02*
D03*
X412604D02*
D03*
X392604D02*
D03*
X392204Y303304D02*
D03*
Y313304D02*
D03*
Y323304D02*
D03*
Y333304D02*
D03*
Y343304D02*
D03*
Y353304D02*
D03*
Y363304D02*
D03*
Y373304D02*
D03*
Y383304D02*
D03*
Y393304D02*
D03*
Y403304D02*
D03*
Y413304D02*
D03*
Y423304D02*
D03*
Y433304D02*
D03*
Y443304D02*
D03*
Y453304D02*
D03*
Y463304D02*
D03*
Y473304D02*
D03*
Y483304D02*
D03*
Y493304D02*
D03*
Y783904D02*
D03*
Y774904D02*
D03*
Y744904D02*
D03*
Y734904D02*
D03*
Y724904D02*
D03*
Y714904D02*
D03*
Y704904D02*
D03*
Y694904D02*
D03*
Y684904D02*
D03*
Y674904D02*
D03*
Y664904D02*
D03*
Y654904D02*
D03*
Y644904D02*
D03*
Y614904D02*
D03*
Y604904D02*
D03*
Y594904D02*
D03*
Y584904D02*
D03*
Y574904D02*
D03*
Y564904D02*
D03*
Y554904D02*
D03*
Y544904D02*
D03*
X861104Y382904D02*
D03*
X861075Y440604D02*
D03*
X874504Y382904D02*
D03*
X875004Y438504D02*
D03*
X822282Y411004D02*
D03*
X893404Y426004D02*
D03*
Y398004D02*
D03*
Y383904D02*
D03*
Y437604D02*
D03*
X392204Y534904D02*
D03*
X407804Y534704D02*
D03*
X425404Y534804D02*
D03*
X445106Y534704D02*
D03*
X463004Y532804D02*
D03*
X476704Y522904D02*
D03*
X485804Y512404D02*
D03*
X490304Y500204D02*
D03*
X490504Y488704D02*
D03*
Y478604D02*
D03*
X392204Y503304D02*
D03*
X406104Y503404D02*
D03*
X422704Y503504D02*
D03*
X437604Y503704D02*
D03*
X451004Y502804D02*
D03*
X463404Y500517D02*
D03*
X467404Y488604D02*
D03*
X467525Y478904D02*
D03*
X574904Y563504D02*
D03*
X801204Y302104D02*
D03*
X506004Y433204D02*
D03*
X526704Y426054D02*
D03*
X506404Y427704D02*
D03*
X456004Y391004D02*
D03*
X455904Y402904D02*
D03*
X456004Y397004D02*
D03*
X732004Y667004D02*
D03*
X589404Y680504D02*
D03*
X765804Y316204D02*
D03*
X783602Y585203D02*
D03*
X758904Y426804D02*
D03*
X562304Y555504D02*
D03*
X500904Y550504D02*
D03*
X523404Y551404D02*
D03*
X483104Y429204D02*
D03*
X490804Y429325D02*
D03*
X556204Y538104D02*
D03*
X526104Y406204D02*
D03*
X525904Y413004D02*
D03*
X522004Y559904D02*
D03*
X526204Y379004D02*
D03*
X582704Y449404D02*
D03*
X455604Y433704D02*
D03*
X456104Y439604D02*
D03*
X467403Y438503D02*
D03*
X490604Y467817D02*
D03*
X414904Y418904D02*
D03*
X455704Y445204D02*
D03*
X468804Y409004D02*
D03*
X424004Y399504D02*
D03*
X467404Y373104D02*
D03*
X636004Y337104D02*
D03*
X724038Y461338D02*
D03*
X723704Y454804D02*
D03*
X703104Y701304D02*
D03*
X791304Y676904D02*
D03*
X723404Y448304D02*
D03*
X818204Y649354D02*
D03*
X710404Y719004D02*
D03*
X576488Y700604D02*
D03*
X842904Y688404D02*
D03*
X843004Y671204D02*
D03*
X643904Y717918D02*
D03*
X629304Y717904D02*
D03*
X634304Y717918D02*
D03*
X639304D02*
D03*
X614304Y717404D02*
D03*
X609404D02*
D03*
X809104Y696104D02*
D03*
X424288Y418704D02*
D03*
X783404Y578804D02*
D03*
X625724Y403657D02*
D03*
X473904Y385104D02*
D03*
X787352Y574177D02*
D03*
X791104Y587904D02*
D03*
X809404Y588204D02*
D03*
X650504Y429909D02*
D03*
X629503Y372103D02*
D03*
X660304Y338604D02*
D03*
X649604D02*
D03*
X655004D02*
D03*
X644804Y371904D02*
D03*
X615954Y383004D02*
D03*
X456194Y384794D02*
D03*
X625304Y376104D02*
D03*
X817704Y411604D02*
D03*
X817654Y417754D02*
D03*
X869804Y645004D02*
D03*
X794004Y440104D02*
D03*
X766904Y418804D02*
D03*
X767502Y410903D02*
D03*
X744804Y406404D02*
D03*
X750004Y418804D02*
D03*
X762904Y426804D02*
D03*
X750004Y424704D02*
D03*
X764354Y446204D02*
D03*
X844945Y344404D02*
D03*
X840804Y321754D02*
D03*
X832704Y311590D02*
D03*
X791979Y474104D02*
D03*
Y484404D02*
D03*
X791504Y504394D02*
D03*
X791104Y534254D02*
D03*
X756304Y409504D02*
D03*
X794004Y452404D02*
D03*
X781804Y410404D02*
D03*
X796204Y357204D02*
D03*
X779604Y380904D02*
D03*
X703104Y697204D02*
D03*
X822204Y424404D02*
D03*
X601704Y350904D02*
D03*
X432304Y355404D02*
D03*
X428204D02*
D03*
Y351604D02*
D03*
X432304Y351704D02*
D03*
X725804Y350104D02*
D03*
X721704Y350004D02*
D03*
X725804Y353804D02*
D03*
X721704D02*
D03*
X841904Y438104D02*
D03*
X841804Y411904D02*
D03*
X841204Y401504D02*
D03*
Y397904D02*
D03*
X837104D02*
D03*
Y401504D02*
D03*
X833004Y397904D02*
D03*
Y401504D02*
D03*
X877194Y398334D02*
D03*
X872694Y425634D02*
D03*
Y400634D02*
D03*
X877194Y423204D02*
D03*
X823104Y339704D02*
D03*
Y344304D02*
D03*
X770704Y316204D02*
D03*
X744704Y349804D02*
D03*
X582104Y426904D02*
D03*
X583204Y470904D02*
D03*
X709704Y500804D02*
D03*
X688504D02*
D03*
X668378Y500404D02*
D03*
X632504Y426852D02*
D03*
X611454D02*
D03*
X598304Y426804D02*
D03*
X682604Y448104D02*
D03*
X667104D02*
D03*
X650504D02*
D03*
X700804Y448004D02*
D03*
X709604Y461304D02*
D03*
X709704Y474504D02*
D03*
X662604Y470904D02*
D03*
X631504Y471004D02*
D03*
X619204D02*
D03*
X600430D02*
D03*
D124*
X601704Y352104D02*
X721404D01*
X432304Y352104D02*
X601704Y352104D01*
M02*
