M48
;Layer_Color=9474304
;FILE_FORMAT=4:4
METRIC,LZ
;TYPE=PLATED
T1F00S00C0.1500
T4F00S00C0.7620
T5F00S00C0.9000
;TYPE=NON_PLATED
T7F00S00C0.6000
T8F00S00C0.7000
T9F00S00C0.9000
T10F00S00C3.2000
%
T01
X00392604Y00259304
X00392204Y00303304
Y00313304
Y00323304
Y00333304
Y00343304
Y00353304
Y00363304
Y00373304
Y00383304
Y00393304
X00456004Y00391004
X00456194Y00384794
X00473904Y00385104
X00482604Y00377204
X00479204Y00373045
X00467404Y00373104
X00461904Y00366204
X00449904Y00367004
X00432304Y00355404
Y00351704
X00428204Y00351604
Y00355404
X00455803Y00323303
X00454904Y00318304
X00466954Y00309404
X00479904Y00330509
X00486104Y00331804
X00491904Y00335204
X00497704Y00329604
X00508604Y00311504
X00515304Y00311904
X00512604Y00295304
Y00259304
X00532604
X00552604
X00572604
X00592604
X00612604
X00632604
X00652604
X00672604
X00692604
X00712604
X00732604
X00752604
X00772604
X00792604
X00770704Y00316204
X00765804
X00744704Y00349804
X00725804Y00350104
Y00353804
X00721704
Y00350004
X00660304Y00338604
X00655004
X00649604
X00636004Y00337104
X00632004Y00322304
X00651504Y00313704
X00644804Y00371904
X00629503Y00372103
X00625304Y00376104
X00615954Y00383004
X00580404Y00384004
X00564212Y00384984
X00526104
X00526204Y00379004
X00526304Y00366504
X00521504Y00366604
X00515904
X00509204Y00370704
X00497904Y00365504
X00491104Y00384984
X00481604Y00283504
X00471204Y00266404
X00472604Y00259304
X00452604
X00412604
X00419604Y00292704
X00539454Y00308804
X00547904Y00328504
X00555004Y00330937
X00557004Y00335604
X00565004
X00579004Y00334904
X00601704Y00350904
X00592604Y00295904
X00756304Y00392704
X00779604Y00380904
X00796204Y00357204
X00823104Y00344304
Y00339704
X00837404Y00333204
X00840804Y00321754
X00832704Y0031159
X00812804Y00317404
X00801204Y00302104
X00812604Y00259304
X00832604
X00852604
X00872604
X00892603
X00890504Y00300604
X00934404Y00295504
Y00315504
Y00335504
Y00355504
Y00375504
Y00395504
X00893404Y00383904
X00874504Y00382904
X00861104
X00844945Y00344404
X00890904Y00349404
X00893404Y00398004
X00877194Y00398334
X00872694Y00400634
Y00425634
X00877194Y00423204
X00875004Y00438504
X00861075Y00440604
X00841904Y00438104
X00843304Y00455304
X00821104Y00461804
X00794004Y00452404
Y00440104
X00822204Y00424404
X00817654Y00417754
X00817704Y00411604
X00822282Y00411004
X00833004Y00401504
Y00397904
X00837104
Y00401504
X00841204
Y00397904
X00841804Y00411904
X00841904Y00416904
X00890194Y00418134
Y00413204
X00893404Y00426004
Y00437604
X00934404Y00435504
Y00415504
Y00475504
Y00535504
Y00555504
Y00575504
Y00595504
Y00615504
Y00635504
X00909404Y00642504
X00869804Y00645004
X00871965Y00623504
X00872204Y00594404
X00809404Y00588204
X00840004Y00553504
X00824304Y00510304
X00874104Y00486504
X00905404Y00513804
X00904704Y00553504
X00892404Y00680604
X00909404Y00702504
Y00722504
Y00742504
Y00762504
X00872204Y00783904
X00852204
X00832204
X00812204
X00809804Y00727404
X00809104Y00696104
X00842904Y00688404
X00843004Y00671204
X00857685Y00666104
X00818204Y00649354
X00791304Y00676904
X00746804Y00679604
X00736304Y00675104
X00732004Y00667004
X00709604Y00675804
X00709504Y00679304
X00697004Y00675225
X00703104Y00697204
Y00701304
X00710404Y00719004
X00721802Y00707902
X00721804Y00707904
X00676694Y00708904
X00665604Y00708804
X00643904Y00717918
X00639304
X00634304
X00629304Y00717904
X00614304Y00717404
X00609404
X00609354Y00681904
X00614304
X00589404Y00680504
X00565704Y00678504
X00565804Y00668623
X00572174Y00640904
X00583414
X00576488Y00700604
X00587704Y00736004
X00592204Y00783904
X00612204
X00632204
X00652204
X00672204
X00692204
X00712204
X00732204
X00752204
X00772204
X00792204
X00696204Y00737204
X00686504Y00634296
X00687304Y00575978
X00739804
X00783404Y00578804
X00783602Y00585203
X00791104Y00587904
X00787352Y00574177
X00791104Y00534254
X00788004Y00517804
X00791504Y00504394
X00791979Y00484404
Y00474104
X00784604Y00479004
X00784802Y00429703
X00793279Y00423804
X00781804Y00410404
X00771604
X00767502Y00410903
X00766904Y00418804
X00770904
X00767102Y00426703
X00762904Y00426804
X00758904
X00758802Y00435103
X00762502Y00437103
X00764354Y00446204
X00750004Y00424704
Y00418804
X00756304Y00409504
X00744804Y00406404
X00723404Y00448304
X00723704Y00454804
X00724038Y00461338
X00709604Y00461304
X00709504Y00448254
X00700804Y00448004
X00682604Y00448104
X00667104
X00650504
X00639004Y00443804
X00621504Y00440504
Y00433604
X00621404Y00426804
X00611454Y00426852
X00598304Y00426804
X00582104Y00426904
X00582704Y00449404
X00569904Y00451004
X00568004Y00470804
X00583204Y00470904
X0060043Y00471004
X00619204
X00614704Y00464704
X00631504Y00471004
X00646304Y00470404
X00662604Y00470904
X00668304Y00484704
X00668378Y00500404
X00688504Y00500804
X00688104Y00521037
X00709704Y00500804
X00709804Y00486404
X00709704Y00474504
X00650504Y00429909
X00632504Y00426852
X00625724Y00403657
X00569904Y00415004
X00525904Y00413004
X00526104Y00406204
X00526526Y00420604
X00526704Y00426054
X00526004Y00432904
X00526503Y00439403
X00506004Y00433204
X00506404Y00427704
X00490804Y00429325
X00483104Y00429204
X00491704Y00421004
X00468804Y00409004
X00455904Y00402904
X00456004Y00397004
X00424004Y00399504
X00424288Y00418704
X00414904Y00418904
X00455604Y00433704
X00456104Y00439604
X00455704Y00445204
X00467403Y00438503
X00469204Y00467667
X00467525Y00478904
X00467404Y00488604
X00463404Y00500517
X00451004Y00502804
X00437604Y00503704
X00422704Y00503504
X00406104Y00503404
X00407804Y00534704
X00425404Y00534804
X00445106Y00534704
X00463004Y00532804
X00476704Y00522904
X00485804Y00512404
X00490304Y00500204
X00490504Y00488704
Y00478604
X00490604Y00467817
X00434004Y00460604
X00437504Y00593604
X00486404Y00593404
X00530004
X00522004Y00559904
X00523404Y00551404
X00500904Y00550504
X00562304Y00555504
X00574904Y00563504
X00589204Y00574604
X00628804Y00575745
X00635802Y00673903
X00636802Y00677903
X00639804Y00675104
X00644502Y00675102
X00572204Y00783904
X00552204
X00532204
X00512204
X00492204
X00472204
X00452204
X00432204
X00412204
X00556204Y00538104
X00556304Y00500404
X00765904Y00597704
X00392204Y00594904
Y00604904
Y00614904
Y00644904
Y00654904
Y00664904
Y00674904
Y00684904
Y00694904
Y00704904
Y00714904
Y00724904
Y00734904
Y00744904
Y00774904
Y00783904
Y00584904
Y00574904
Y00564904
Y00554904
Y00544904
Y00534904
Y00503304
Y00493304
Y00483304
Y00473304
Y00463304
Y00453304
Y00443304
Y00433304
Y00423304
Y00413304
Y00403304
T04
X00442464Y00610104
Y00635504
Y00660904
Y00686304
Y00711704
Y00737104
X00467864
X00493264
X00518664
X00544064
Y00711704
X00518664
X00493264
X00467864
Y00686304
X00493264
X00518664
X00544064
Y00660904
X00518664
X00493264
X00467864
Y00635504
X00493264
X00518664
X00544064
Y00610104
X00518664
X00493264
X00467864
T05
X00533904Y00279904
X00559304
X00584704
X00610104
X00635504
X00660904
X00686304
X00711704
X00762504
X00787904
X00813304
X00838704
X00864104
X00889504
Y00762504
X00864104
X00838704
X00813304
X00787904
X00762504
X00737104
X00711704
X00671064
X00645664
X00620264
X00594864
X00569464
X00544064
X00518664
X00493264
X00467864
X00442464
T07
X00893694Y00375934
T08
X00831204Y00567604
T09
X00914204Y00477604
T10
X00394204Y00279904
X00914904Y00330704
Y00610104
X00406904Y00762504
M30
