G04*
G04 #@! TF.GenerationSoftware,Altium Limited,Altium Designer,19.0.15 (446)*
G04*
G04 Layer_Physical_Order=3*
G04 Layer_Color=16440176*
%FSLAX44Y44*%
%MOMM*%
G71*
G01*
G75*
%ADD85R,3.9700X10.0300*%
%ADD86R,7.7200X0.9600*%
%ADD87R,2.7700X1.2000*%
%ADD88R,6.3000X0.7000*%
%ADD89R,2.8100X1.6300*%
%ADD116C,1.5000*%
%ADD118O,1.1000X1.4500*%
%ADD119O,2.3000X1.2000*%
%ADD120O,2.6000X1.3000*%
%ADD121C,1.5240*%
%ADD123C,0.3000*%
G36*
X912865Y761659D02*
Y647004D01*
X913020Y646223D01*
X913462Y645562D01*
X914123Y645120D01*
X914904Y644965D01*
X927959D01*
X938265Y634659D01*
Y463668D01*
X938204Y463627D01*
X860904D01*
X859756Y463152D01*
X859280Y462004D01*
Y455004D01*
Y443804D01*
X859756Y442656D01*
X860904Y442180D01*
X889004D01*
X890152Y442656D01*
X890820Y442859D01*
X891483Y442416D01*
X893044Y442105D01*
X894605Y442416D01*
X895610Y443088D01*
X896679Y442689D01*
X896880Y442525D01*
Y380564D01*
X895760Y379965D01*
X895450Y380173D01*
X893694Y380522D01*
X891938Y380173D01*
X891584Y379936D01*
X891380Y379931D01*
X890094Y380468D01*
X889852Y381052D01*
X888704Y381527D01*
X861004D01*
X859856Y381052D01*
X859380Y379904D01*
Y371304D01*
Y361704D01*
X859856Y360556D01*
X861004Y360080D01*
X938204D01*
X938265Y360040D01*
Y293449D01*
X913462Y268646D01*
X913020Y267984D01*
X912865Y267204D01*
Y256543D01*
X390204D01*
Y261631D01*
X391474Y262588D01*
X394204Y262319D01*
X397634Y262657D01*
X400933Y263658D01*
X403973Y265283D01*
X406638Y267470D01*
X408825Y270134D01*
X410450Y273174D01*
X411451Y276473D01*
X411788Y279904D01*
X411451Y283334D01*
X410450Y286633D01*
X408825Y289673D01*
X406638Y292338D01*
X403973Y294525D01*
X400933Y296150D01*
X397634Y297151D01*
X394204Y297488D01*
X391474Y297220D01*
X390204Y298177D01*
Y516239D01*
X454897D01*
Y516004D01*
X455074D01*
X455625Y515977D01*
X456708Y515761D01*
X457728Y515339D01*
X458645Y514726D01*
X459055Y514355D01*
X467115Y506294D01*
X469353Y503605D01*
X471003Y500517D01*
X472020Y497167D01*
X472339Y493683D01*
Y474504D01*
X473904Y457004D01*
X485904D01*
X487468Y474504D01*
X487505Y493683D01*
X487099Y498845D01*
X485890Y503881D01*
X483909Y508665D01*
X481203Y513081D01*
X477813Y516992D01*
X469782Y525082D01*
X466456Y527811D01*
X462662Y529839D01*
X458545Y531088D01*
X454264Y531469D01*
X397004Y531368D01*
X390204D01*
Y753929D01*
X391474Y754248D01*
X392283Y752734D01*
X394470Y750070D01*
X397134Y747883D01*
X400174Y746258D01*
X403473Y745257D01*
X406904Y744919D01*
X410334Y745257D01*
X413633Y746258D01*
X416673Y747883D01*
X419338Y750070D01*
X421525Y752734D01*
X423150Y755774D01*
X424151Y759073D01*
X424488Y762504D01*
X424151Y765934D01*
X423150Y769233D01*
X421525Y772273D01*
X419338Y774938D01*
X416673Y777125D01*
X413633Y778750D01*
X410334Y779751D01*
X406904Y780089D01*
X403473Y779751D01*
X400174Y778750D01*
X397134Y777125D01*
X394470Y774938D01*
X392283Y772273D01*
X391474Y770760D01*
X390204Y771078D01*
Y785865D01*
X888659D01*
X912865Y761659D01*
D02*
G37*
%LPC*%
G36*
X520664Y772327D02*
Y764504D01*
X528487D01*
X528406Y765114D01*
X527399Y767547D01*
X525796Y769636D01*
X523707Y771239D01*
X521274Y772246D01*
X520664Y772327D01*
D02*
G37*
G36*
X516664D02*
X516053Y772246D01*
X513621Y771239D01*
X511532Y769636D01*
X509929Y767547D01*
X508921Y765114D01*
X508841Y764504D01*
X516664D01*
Y772327D01*
D02*
G37*
G36*
X898504Y771504D02*
X880504D01*
Y753504D01*
X898504D01*
Y771504D01*
D02*
G37*
G36*
X680064D02*
X662064D01*
Y753504D01*
X680064D01*
Y771504D01*
D02*
G37*
G36*
X864104Y771581D02*
X861754Y771272D01*
X859565Y770365D01*
X857685Y768923D01*
X856242Y767043D01*
X855335Y764853D01*
X855026Y762504D01*
X855335Y760154D01*
X856242Y757965D01*
X857685Y756085D01*
X859565Y754642D01*
X861754Y753736D01*
X864104Y753426D01*
X866453Y753736D01*
X868643Y754642D01*
X870523Y756085D01*
X871965Y757965D01*
X872872Y760154D01*
X873181Y762504D01*
X872872Y764853D01*
X871965Y767043D01*
X870523Y768923D01*
X868643Y770365D01*
X866453Y771272D01*
X864104Y771581D01*
D02*
G37*
G36*
X838704D02*
X836354Y771272D01*
X834165Y770365D01*
X832285Y768923D01*
X830842Y767043D01*
X829936Y764853D01*
X829626Y762504D01*
X829936Y760154D01*
X830842Y757965D01*
X832285Y756085D01*
X834165Y754642D01*
X836354Y753736D01*
X838704Y753426D01*
X841053Y753736D01*
X843243Y754642D01*
X845123Y756085D01*
X846565Y757965D01*
X847472Y760154D01*
X847781Y762504D01*
X847472Y764853D01*
X846565Y767043D01*
X845123Y768923D01*
X843243Y770365D01*
X841053Y771272D01*
X838704Y771581D01*
D02*
G37*
G36*
X813304D02*
X810954Y771272D01*
X808765Y770365D01*
X806885Y768923D01*
X805442Y767043D01*
X804536Y764853D01*
X804226Y762504D01*
X804536Y760154D01*
X805442Y757965D01*
X806885Y756085D01*
X808765Y754642D01*
X810954Y753736D01*
X813304Y753426D01*
X815653Y753736D01*
X817843Y754642D01*
X819723Y756085D01*
X821165Y757965D01*
X822072Y760154D01*
X822381Y762504D01*
X822072Y764853D01*
X821165Y767043D01*
X819723Y768923D01*
X817843Y770365D01*
X815653Y771272D01*
X813304Y771581D01*
D02*
G37*
G36*
X787904D02*
X785554Y771272D01*
X783365Y770365D01*
X781485Y768923D01*
X780042Y767043D01*
X779136Y764853D01*
X778826Y762504D01*
X779136Y760154D01*
X780042Y757965D01*
X781485Y756085D01*
X783365Y754642D01*
X785554Y753736D01*
X787904Y753426D01*
X790253Y753736D01*
X792443Y754642D01*
X794323Y756085D01*
X795765Y757965D01*
X796672Y760154D01*
X796981Y762504D01*
X796672Y764853D01*
X795765Y767043D01*
X794323Y768923D01*
X792443Y770365D01*
X790253Y771272D01*
X787904Y771581D01*
D02*
G37*
G36*
X762504D02*
X760154Y771272D01*
X757965Y770365D01*
X756085Y768923D01*
X754642Y767043D01*
X753736Y764853D01*
X753426Y762504D01*
X753736Y760154D01*
X754642Y757965D01*
X756085Y756085D01*
X757965Y754642D01*
X760154Y753736D01*
X762504Y753426D01*
X764853Y753736D01*
X767043Y754642D01*
X768923Y756085D01*
X770365Y757965D01*
X771272Y760154D01*
X771581Y762504D01*
X771272Y764853D01*
X770365Y767043D01*
X768923Y768923D01*
X767043Y770365D01*
X764853Y771272D01*
X762504Y771581D01*
D02*
G37*
G36*
X737104D02*
X734754Y771272D01*
X732565Y770365D01*
X730685Y768923D01*
X729242Y767043D01*
X728335Y764853D01*
X728026Y762504D01*
X728335Y760154D01*
X729242Y757965D01*
X730685Y756085D01*
X732565Y754642D01*
X734754Y753736D01*
X737104Y753426D01*
X739453Y753736D01*
X741643Y754642D01*
X743523Y756085D01*
X744965Y757965D01*
X745872Y760154D01*
X746181Y762504D01*
X745872Y764853D01*
X744965Y767043D01*
X743523Y768923D01*
X741643Y770365D01*
X739453Y771272D01*
X737104Y771581D01*
D02*
G37*
G36*
X711704D02*
X709354Y771272D01*
X707165Y770365D01*
X705285Y768923D01*
X703842Y767043D01*
X702935Y764853D01*
X702626Y762504D01*
X702935Y760154D01*
X703842Y757965D01*
X705285Y756085D01*
X707165Y754642D01*
X709354Y753736D01*
X711704Y753426D01*
X714053Y753736D01*
X716243Y754642D01*
X718123Y756085D01*
X719565Y757965D01*
X720472Y760154D01*
X720781Y762504D01*
X720472Y764853D01*
X719565Y767043D01*
X718123Y768923D01*
X716243Y770365D01*
X714053Y771272D01*
X711704Y771581D01*
D02*
G37*
G36*
X645664D02*
X643314Y771272D01*
X641125Y770365D01*
X639245Y768923D01*
X637802Y767043D01*
X636895Y764853D01*
X636586Y762504D01*
X636895Y760154D01*
X637802Y757965D01*
X639245Y756085D01*
X641125Y754642D01*
X643314Y753736D01*
X645664Y753426D01*
X648013Y753736D01*
X650203Y754642D01*
X652083Y756085D01*
X653525Y757965D01*
X654432Y760154D01*
X654741Y762504D01*
X654432Y764853D01*
X653525Y767043D01*
X652083Y768923D01*
X650203Y770365D01*
X648013Y771272D01*
X645664Y771581D01*
D02*
G37*
G36*
X620264D02*
X617914Y771272D01*
X615725Y770365D01*
X613845Y768923D01*
X612402Y767043D01*
X611496Y764853D01*
X611186Y762504D01*
X611496Y760154D01*
X612402Y757965D01*
X613845Y756085D01*
X615725Y754642D01*
X617914Y753736D01*
X620264Y753426D01*
X622613Y753736D01*
X624803Y754642D01*
X626683Y756085D01*
X628125Y757965D01*
X629032Y760154D01*
X629341Y762504D01*
X629032Y764853D01*
X628125Y767043D01*
X626683Y768923D01*
X624803Y770365D01*
X622613Y771272D01*
X620264Y771581D01*
D02*
G37*
G36*
X594864D02*
X592514Y771272D01*
X590325Y770365D01*
X588445Y768923D01*
X587002Y767043D01*
X586096Y764853D01*
X585786Y762504D01*
X586096Y760154D01*
X587002Y757965D01*
X588445Y756085D01*
X590325Y754642D01*
X592514Y753736D01*
X594864Y753426D01*
X597213Y753736D01*
X599403Y754642D01*
X601283Y756085D01*
X602725Y757965D01*
X603632Y760154D01*
X603941Y762504D01*
X603632Y764853D01*
X602725Y767043D01*
X601283Y768923D01*
X599403Y770365D01*
X597213Y771272D01*
X594864Y771581D01*
D02*
G37*
G36*
X569464D02*
X567114Y771272D01*
X564925Y770365D01*
X563045Y768923D01*
X561602Y767043D01*
X560695Y764853D01*
X560386Y762504D01*
X560695Y760154D01*
X561602Y757965D01*
X563045Y756085D01*
X564925Y754642D01*
X567114Y753736D01*
X569464Y753426D01*
X571813Y753736D01*
X574003Y754642D01*
X575883Y756085D01*
X577325Y757965D01*
X578232Y760154D01*
X578541Y762504D01*
X578232Y764853D01*
X577325Y767043D01*
X575883Y768923D01*
X574003Y770365D01*
X571813Y771272D01*
X569464Y771581D01*
D02*
G37*
G36*
X544064D02*
X541714Y771272D01*
X539525Y770365D01*
X537645Y768923D01*
X536202Y767043D01*
X535295Y764853D01*
X534986Y762504D01*
X535295Y760154D01*
X536202Y757965D01*
X537645Y756085D01*
X539525Y754642D01*
X541714Y753736D01*
X544064Y753426D01*
X546413Y753736D01*
X548603Y754642D01*
X550483Y756085D01*
X551925Y757965D01*
X552832Y760154D01*
X553141Y762504D01*
X552832Y764853D01*
X551925Y767043D01*
X550483Y768923D01*
X548603Y770365D01*
X546413Y771272D01*
X544064Y771581D01*
D02*
G37*
G36*
X493264D02*
X490914Y771272D01*
X488725Y770365D01*
X486845Y768923D01*
X485402Y767043D01*
X484496Y764853D01*
X484186Y762504D01*
X484496Y760154D01*
X485402Y757965D01*
X486845Y756085D01*
X488725Y754642D01*
X490914Y753736D01*
X493264Y753426D01*
X495613Y753736D01*
X497803Y754642D01*
X499683Y756085D01*
X501125Y757965D01*
X502032Y760154D01*
X502341Y762504D01*
X502032Y764853D01*
X501125Y767043D01*
X499683Y768923D01*
X497803Y770365D01*
X495613Y771272D01*
X493264Y771581D01*
D02*
G37*
G36*
X467864D02*
X465514Y771272D01*
X463325Y770365D01*
X461445Y768923D01*
X460002Y767043D01*
X459095Y764853D01*
X458786Y762504D01*
X459095Y760154D01*
X460002Y757965D01*
X461445Y756085D01*
X463325Y754642D01*
X465514Y753736D01*
X467864Y753426D01*
X470213Y753736D01*
X472403Y754642D01*
X474283Y756085D01*
X475725Y757965D01*
X476632Y760154D01*
X476941Y762504D01*
X476632Y764853D01*
X475725Y767043D01*
X474283Y768923D01*
X472403Y770365D01*
X470213Y771272D01*
X467864Y771581D01*
D02*
G37*
G36*
X442464D02*
X440114Y771272D01*
X437925Y770365D01*
X436045Y768923D01*
X434602Y767043D01*
X433695Y764853D01*
X433386Y762504D01*
X433695Y760154D01*
X434602Y757965D01*
X436045Y756085D01*
X437925Y754642D01*
X440114Y753736D01*
X442464Y753426D01*
X444813Y753736D01*
X447003Y754642D01*
X448883Y756085D01*
X450325Y757965D01*
X451232Y760154D01*
X451541Y762504D01*
X451232Y764853D01*
X450325Y767043D01*
X448883Y768923D01*
X447003Y770365D01*
X444813Y771272D01*
X442464Y771581D01*
D02*
G37*
G36*
X528487Y760504D02*
X520664D01*
Y752681D01*
X521274Y752761D01*
X523707Y753769D01*
X525796Y755372D01*
X527399Y757461D01*
X528406Y759893D01*
X528487Y760504D01*
D02*
G37*
G36*
X516664D02*
X508841D01*
X508921Y759893D01*
X509929Y757461D01*
X511532Y755372D01*
X513621Y753769D01*
X516053Y752761D01*
X516664Y752681D01*
Y760504D01*
D02*
G37*
G36*
X546064Y747048D02*
Y739104D01*
X554008D01*
X553923Y739746D01*
X552904Y742207D01*
X551282Y744322D01*
X549168Y745944D01*
X546706Y746963D01*
X546064Y747048D01*
D02*
G37*
G36*
X542064D02*
X541422Y746963D01*
X538960Y745944D01*
X536846Y744322D01*
X535224Y742207D01*
X534204Y739746D01*
X534120Y739104D01*
X542064D01*
Y747048D01*
D02*
G37*
G36*
X520664D02*
Y739104D01*
X528608D01*
X528523Y739746D01*
X527504Y742207D01*
X525882Y744322D01*
X523768Y745944D01*
X521306Y746963D01*
X520664Y747048D01*
D02*
G37*
G36*
X516664D02*
X516022Y746963D01*
X513560Y745944D01*
X511446Y744322D01*
X509824Y742207D01*
X508804Y739746D01*
X508720Y739104D01*
X516664D01*
Y747048D01*
D02*
G37*
G36*
X495264D02*
Y739104D01*
X503208D01*
X503123Y739746D01*
X502104Y742207D01*
X500481Y744322D01*
X498368Y745944D01*
X495906Y746963D01*
X495264Y747048D01*
D02*
G37*
G36*
X491264D02*
X490622Y746963D01*
X488160Y745944D01*
X486046Y744322D01*
X484424Y742207D01*
X483404Y739746D01*
X483320Y739104D01*
X491264D01*
Y747048D01*
D02*
G37*
G36*
X469864D02*
Y739104D01*
X477808D01*
X477723Y739746D01*
X476704Y742207D01*
X475081Y744322D01*
X472967Y745944D01*
X470506Y746963D01*
X469864Y747048D01*
D02*
G37*
G36*
X465864D02*
X465222Y746963D01*
X462760Y745944D01*
X460646Y744322D01*
X459024Y742207D01*
X458004Y739746D01*
X457920Y739104D01*
X465864D01*
Y747048D01*
D02*
G37*
G36*
X444464D02*
Y739104D01*
X452408D01*
X452323Y739746D01*
X451304Y742207D01*
X449682Y744322D01*
X447567Y745944D01*
X445106Y746963D01*
X444464Y747048D01*
D02*
G37*
G36*
X440464D02*
X439822Y746963D01*
X437360Y745944D01*
X435246Y744322D01*
X433624Y742207D01*
X432604Y739746D01*
X432520Y739104D01*
X440464D01*
Y747048D01*
D02*
G37*
G36*
X554008Y735104D02*
X546064D01*
Y727160D01*
X546706Y727244D01*
X549168Y728264D01*
X551282Y729886D01*
X552904Y732000D01*
X553923Y734462D01*
X554008Y735104D01*
D02*
G37*
G36*
X542064D02*
X534120D01*
X534204Y734462D01*
X535224Y732000D01*
X536846Y729886D01*
X538960Y728264D01*
X541422Y727244D01*
X542064Y727160D01*
Y735104D01*
D02*
G37*
G36*
X528608D02*
X520664D01*
Y727160D01*
X521306Y727244D01*
X523768Y728264D01*
X525882Y729886D01*
X527504Y732000D01*
X528523Y734462D01*
X528608Y735104D01*
D02*
G37*
G36*
X516664D02*
X508720D01*
X508804Y734462D01*
X509824Y732000D01*
X511446Y729886D01*
X513560Y728264D01*
X516022Y727244D01*
X516664Y727160D01*
Y735104D01*
D02*
G37*
G36*
X503208D02*
X495264D01*
Y727160D01*
X495906Y727244D01*
X498368Y728264D01*
X500481Y729886D01*
X502104Y732000D01*
X503123Y734462D01*
X503208Y735104D01*
D02*
G37*
G36*
X491264D02*
X483320D01*
X483404Y734462D01*
X484424Y732000D01*
X486046Y729886D01*
X488160Y728264D01*
X490622Y727244D01*
X491264Y727160D01*
Y735104D01*
D02*
G37*
G36*
X477808D02*
X469864D01*
Y727160D01*
X470506Y727244D01*
X472967Y728264D01*
X475081Y729886D01*
X476704Y732000D01*
X477723Y734462D01*
X477808Y735104D01*
D02*
G37*
G36*
X465864D02*
X457920D01*
X458004Y734462D01*
X459024Y732000D01*
X460646Y729886D01*
X462760Y728264D01*
X465222Y727244D01*
X465864Y727160D01*
Y735104D01*
D02*
G37*
G36*
X452408D02*
X444464D01*
Y727160D01*
X445106Y727244D01*
X447567Y728264D01*
X449682Y729886D01*
X451304Y732000D01*
X452323Y734462D01*
X452408Y735104D01*
D02*
G37*
G36*
X440464D02*
X432520D01*
X432604Y734462D01*
X433624Y732000D01*
X435246Y729886D01*
X437360Y728264D01*
X439822Y727244D01*
X440464Y727160D01*
Y735104D01*
D02*
G37*
G36*
X643904Y720977D02*
X642733Y720744D01*
X642607Y720660D01*
X641604Y720151D01*
X640600Y720660D01*
X640474Y720744D01*
X639304Y720977D01*
X638133Y720744D01*
X637731Y720475D01*
X636804Y720186D01*
X635877Y720475D01*
X635474Y720744D01*
X634304Y720977D01*
X633133Y720744D01*
X632141Y720081D01*
X632131Y720067D01*
X631467D01*
X630474Y720730D01*
X629304Y720963D01*
X628133Y720730D01*
X627141Y720067D01*
X626478Y719074D01*
X626245Y717904D01*
X626478Y716733D01*
X627141Y715741D01*
X628133Y715078D01*
X629304Y714845D01*
X630474Y715078D01*
X630883Y715351D01*
X632141Y715755D01*
X633133Y715092D01*
X634304Y714859D01*
X635474Y715092D01*
X636467Y715755D01*
X637141D01*
X638133Y715092D01*
X639304Y714859D01*
X640474Y715092D01*
X640600Y715176D01*
X641604Y715686D01*
X642607Y715176D01*
X642733Y715092D01*
X643904Y714859D01*
X645074Y715092D01*
X646067Y715755D01*
X646730Y716748D01*
X646963Y717918D01*
X646730Y719089D01*
X646067Y720081D01*
X645074Y720744D01*
X643904Y720977D01*
D02*
G37*
G36*
X614304Y720463D02*
X613133Y720230D01*
X612800Y720007D01*
X611854Y719669D01*
X610908Y720007D01*
X610574Y720230D01*
X609404Y720463D01*
X608233Y720230D01*
X607241Y719567D01*
X606578Y718574D01*
X606345Y717404D01*
X606578Y716233D01*
X607241Y715241D01*
X608233Y714578D01*
X609404Y714345D01*
X610574Y714578D01*
X611567Y715241D01*
X612141D01*
X613133Y714578D01*
X614304Y714345D01*
X615474Y714578D01*
X616467Y715241D01*
X617130Y716233D01*
X617363Y717404D01*
X617130Y718574D01*
X616467Y719567D01*
X615474Y720230D01*
X614304Y720463D01*
D02*
G37*
G36*
X710404Y722063D02*
X709233Y721830D01*
X708241Y721167D01*
X707578Y720174D01*
X707345Y719004D01*
X707578Y717833D01*
X708241Y716841D01*
X709233Y716178D01*
X710404Y715945D01*
X711574Y716178D01*
X712567Y716841D01*
X713230Y717833D01*
X713463Y719004D01*
X713230Y720174D01*
X712567Y721167D01*
X711574Y721830D01*
X710404Y722063D01*
D02*
G37*
G36*
X520664Y721648D02*
Y713704D01*
X528608D01*
X528523Y714346D01*
X527504Y716807D01*
X525882Y718922D01*
X523768Y720544D01*
X521306Y721563D01*
X520664Y721648D01*
D02*
G37*
G36*
X516664D02*
X516022Y721563D01*
X513560Y720544D01*
X511446Y718922D01*
X509824Y716807D01*
X508804Y714346D01*
X508720Y713704D01*
X516664D01*
Y721648D01*
D02*
G37*
G36*
X676694Y711963D02*
X675523Y711730D01*
X674531Y711067D01*
X673868Y710074D01*
X673635Y708904D01*
X673868Y707733D01*
X674531Y706741D01*
X675523Y706078D01*
X676694Y705845D01*
X677864Y706078D01*
X678857Y706741D01*
X679520Y707733D01*
X679753Y708904D01*
X679520Y710074D01*
X678857Y711067D01*
X677864Y711730D01*
X676694Y711963D01*
D02*
G37*
G36*
X665604Y711863D02*
X664433Y711630D01*
X663441Y710967D01*
X662778Y709974D01*
X662545Y708804D01*
X662778Y707633D01*
X663441Y706641D01*
X664433Y705978D01*
X665604Y705745D01*
X666774Y705978D01*
X667767Y706641D01*
X668430Y707633D01*
X668663Y708804D01*
X668430Y709974D01*
X667767Y710967D01*
X666774Y711630D01*
X665604Y711863D01*
D02*
G37*
G36*
X721804Y710963D02*
X720633Y710730D01*
X719641Y710067D01*
X719640Y710066D01*
X719640Y710065D01*
X718976Y709073D01*
X718744Y707902D01*
X718976Y706732D01*
X719640Y705740D01*
X720632Y705077D01*
X721802Y704844D01*
X722973Y705077D01*
X723965Y705740D01*
X723966Y705740D01*
X723967Y705741D01*
X724630Y706733D01*
X724863Y707904D01*
X724630Y709074D01*
X723967Y710067D01*
X722974Y710730D01*
X721804Y710963D01*
D02*
G37*
G36*
X544064Y720902D02*
X541683Y720589D01*
X539464Y719670D01*
X537559Y718208D01*
X536097Y716303D01*
X535179Y714085D01*
X534865Y711704D01*
X535179Y709323D01*
X536097Y707104D01*
X537559Y705199D01*
X539464Y703737D01*
X541683Y702819D01*
X544064Y702505D01*
X546445Y702819D01*
X548663Y703737D01*
X550568Y705199D01*
X552030Y707104D01*
X552949Y709323D01*
X553262Y711704D01*
X552949Y714085D01*
X552030Y716303D01*
X550568Y718208D01*
X548663Y719670D01*
X546445Y720589D01*
X544064Y720902D01*
D02*
G37*
G36*
X493264D02*
X490883Y720589D01*
X488665Y719670D01*
X486759Y718208D01*
X485298Y716303D01*
X484379Y714085D01*
X484065Y711704D01*
X484379Y709323D01*
X485298Y707104D01*
X486759Y705199D01*
X488665Y703737D01*
X490883Y702819D01*
X493264Y702505D01*
X495645Y702819D01*
X497863Y703737D01*
X499768Y705199D01*
X501230Y707104D01*
X502149Y709323D01*
X502463Y711704D01*
X502149Y714085D01*
X501230Y716303D01*
X499768Y718208D01*
X497863Y719670D01*
X495645Y720589D01*
X493264Y720902D01*
D02*
G37*
G36*
X467864D02*
X465483Y720589D01*
X463265Y719670D01*
X461359Y718208D01*
X459897Y716303D01*
X458979Y714085D01*
X458665Y711704D01*
X458979Y709323D01*
X459897Y707104D01*
X461359Y705199D01*
X463265Y703737D01*
X465483Y702819D01*
X467864Y702505D01*
X470245Y702819D01*
X472463Y703737D01*
X474368Y705199D01*
X475830Y707104D01*
X476749Y709323D01*
X477062Y711704D01*
X476749Y714085D01*
X475830Y716303D01*
X474368Y718208D01*
X472463Y719670D01*
X470245Y720589D01*
X467864Y720902D01*
D02*
G37*
G36*
X442464D02*
X440083Y720589D01*
X437864Y719670D01*
X435959Y718208D01*
X434497Y716303D01*
X433579Y714085D01*
X433265Y711704D01*
X433579Y709323D01*
X434497Y707104D01*
X435959Y705199D01*
X437864Y703737D01*
X440083Y702819D01*
X442464Y702505D01*
X444845Y702819D01*
X447063Y703737D01*
X448968Y705199D01*
X450430Y707104D01*
X451349Y709323D01*
X451662Y711704D01*
X451349Y714085D01*
X450430Y716303D01*
X448968Y718208D01*
X447063Y719670D01*
X444845Y720589D01*
X442464Y720902D01*
D02*
G37*
G36*
X528608Y709704D02*
X520664D01*
Y701760D01*
X521306Y701844D01*
X523768Y702864D01*
X525882Y704486D01*
X527504Y706600D01*
X528523Y709062D01*
X528608Y709704D01*
D02*
G37*
G36*
X516664D02*
X508720D01*
X508804Y709062D01*
X509824Y706600D01*
X511446Y704486D01*
X513560Y702864D01*
X516022Y701844D01*
X516664Y701760D01*
Y709704D01*
D02*
G37*
G36*
X576488Y703663D02*
X575318Y703430D01*
X574325Y702767D01*
X573662Y701774D01*
X573429Y700604D01*
X573662Y699433D01*
X574325Y698441D01*
X575318Y697778D01*
X576488Y697545D01*
X577659Y697778D01*
X578651Y698441D01*
X579314Y699433D01*
X579547Y700604D01*
X579314Y701774D01*
X578651Y702767D01*
X577659Y703430D01*
X576488Y703663D01*
D02*
G37*
G36*
X809104Y699163D02*
X807933Y698930D01*
X806941Y698267D01*
X806278Y697274D01*
X806045Y696104D01*
X806278Y694933D01*
X806941Y693941D01*
X807933Y693278D01*
X809104Y693045D01*
X810274Y693278D01*
X811267Y693941D01*
X811930Y694933D01*
X812163Y696104D01*
X811930Y697274D01*
X811267Y698267D01*
X810274Y698930D01*
X809104Y699163D01*
D02*
G37*
G36*
X842904Y691463D02*
X841733Y691230D01*
X840741Y690567D01*
X840078Y689574D01*
X839845Y688404D01*
X840078Y687233D01*
X840741Y686241D01*
X841733Y685578D01*
X842904Y685345D01*
X844074Y685578D01*
X845067Y686241D01*
X845730Y687233D01*
X845963Y688404D01*
X845730Y689574D01*
X845067Y690567D01*
X844074Y691230D01*
X842904Y691463D01*
D02*
G37*
G36*
X614304Y684963D02*
X613133Y684730D01*
X612141Y684067D01*
X611517D01*
X610524Y684730D01*
X609354Y684963D01*
X608183Y684730D01*
X607191Y684067D01*
X606528Y683074D01*
X606295Y681904D01*
X606528Y680733D01*
X607191Y679741D01*
X608183Y679078D01*
X609354Y678845D01*
X610524Y679078D01*
X611517Y679741D01*
X612141D01*
X613133Y679078D01*
X614304Y678845D01*
X615474Y679078D01*
X616467Y679741D01*
X617130Y680733D01*
X617363Y681904D01*
X617130Y683074D01*
X616467Y684067D01*
X615474Y684730D01*
X614304Y684963D01*
D02*
G37*
G36*
X589404Y683563D02*
X588233Y683330D01*
X587241Y682667D01*
X586578Y681674D01*
X586345Y680504D01*
X586578Y679333D01*
X587241Y678341D01*
X588233Y677678D01*
X589404Y677445D01*
X590574Y677678D01*
X591567Y678341D01*
X592230Y679333D01*
X592463Y680504D01*
X592230Y681674D01*
X591567Y682667D01*
X590574Y683330D01*
X589404Y683563D01*
D02*
G37*
G36*
X544064Y695502D02*
X541683Y695189D01*
X539464Y694270D01*
X537559Y692808D01*
X536097Y690903D01*
X535179Y688685D01*
X534865Y686304D01*
X535179Y683923D01*
X536097Y681704D01*
X537559Y679799D01*
X539464Y678337D01*
X541683Y677419D01*
X544064Y677105D01*
X546445Y677419D01*
X548663Y678337D01*
X550568Y679799D01*
X552030Y681704D01*
X552949Y683923D01*
X553262Y686304D01*
X552949Y688685D01*
X552030Y690903D01*
X550568Y692808D01*
X548663Y694270D01*
X546445Y695189D01*
X544064Y695502D01*
D02*
G37*
G36*
X518664D02*
X516283Y695189D01*
X514064Y694270D01*
X512159Y692808D01*
X510698Y690903D01*
X509779Y688685D01*
X509465Y686304D01*
X509779Y683923D01*
X510698Y681704D01*
X512159Y679799D01*
X514064Y678337D01*
X516283Y677419D01*
X518664Y677105D01*
X521045Y677419D01*
X523263Y678337D01*
X525168Y679799D01*
X526630Y681704D01*
X527549Y683923D01*
X527863Y686304D01*
X527549Y688685D01*
X526630Y690903D01*
X525168Y692808D01*
X523263Y694270D01*
X521045Y695189D01*
X518664Y695502D01*
D02*
G37*
G36*
X493264D02*
X490883Y695189D01*
X488665Y694270D01*
X486759Y692808D01*
X485298Y690903D01*
X484379Y688685D01*
X484065Y686304D01*
X484379Y683923D01*
X485298Y681704D01*
X486759Y679799D01*
X488665Y678337D01*
X490883Y677419D01*
X493264Y677105D01*
X495645Y677419D01*
X497863Y678337D01*
X499768Y679799D01*
X501230Y681704D01*
X502149Y683923D01*
X502463Y686304D01*
X502149Y688685D01*
X501230Y690903D01*
X499768Y692808D01*
X497863Y694270D01*
X495645Y695189D01*
X493264Y695502D01*
D02*
G37*
G36*
X467864D02*
X465483Y695189D01*
X463265Y694270D01*
X461359Y692808D01*
X459897Y690903D01*
X458979Y688685D01*
X458665Y686304D01*
X458979Y683923D01*
X459897Y681704D01*
X461359Y679799D01*
X463265Y678337D01*
X465483Y677419D01*
X467864Y677105D01*
X470245Y677419D01*
X472463Y678337D01*
X474368Y679799D01*
X475830Y681704D01*
X476749Y683923D01*
X477062Y686304D01*
X476749Y688685D01*
X475830Y690903D01*
X474368Y692808D01*
X472463Y694270D01*
X470245Y695189D01*
X467864Y695502D01*
D02*
G37*
G36*
X442464D02*
X440083Y695189D01*
X437864Y694270D01*
X435959Y692808D01*
X434497Y690903D01*
X433579Y688685D01*
X433265Y686304D01*
X433579Y683923D01*
X434497Y681704D01*
X435959Y679799D01*
X437864Y678337D01*
X440083Y677419D01*
X442464Y677105D01*
X444845Y677419D01*
X447063Y678337D01*
X448968Y679799D01*
X450430Y681704D01*
X451349Y683923D01*
X451662Y686304D01*
X451349Y688685D01*
X450430Y690903D01*
X448968Y692808D01*
X447063Y694270D01*
X444845Y695189D01*
X442464Y695502D01*
D02*
G37*
G36*
X791304Y679963D02*
X790133Y679730D01*
X789141Y679067D01*
X788478Y678074D01*
X788245Y676904D01*
X788478Y675733D01*
X789141Y674741D01*
X790133Y674078D01*
X791304Y673845D01*
X792474Y674078D01*
X793467Y674741D01*
X794130Y675733D01*
X794363Y676904D01*
X794130Y678074D01*
X793467Y679067D01*
X792474Y679730D01*
X791304Y679963D01*
D02*
G37*
G36*
X709504Y682363D02*
X708333Y682130D01*
X707341Y681467D01*
X706678Y680474D01*
X706445Y679304D01*
X706678Y678133D01*
X707115Y677479D01*
X706778Y676974D01*
X706545Y675804D01*
X706778Y674633D01*
X707441Y673641D01*
X708433Y672978D01*
X709604Y672745D01*
X710774Y672978D01*
X711767Y673641D01*
X712430Y674633D01*
X712663Y675804D01*
X712430Y676974D01*
X711993Y677629D01*
X712330Y678133D01*
X712563Y679304D01*
X712330Y680474D01*
X711667Y681467D01*
X710674Y682130D01*
X709504Y682363D01*
D02*
G37*
G36*
X697004Y678284D02*
X695833Y678051D01*
X694841Y677388D01*
X694178Y676396D01*
X693945Y675225D01*
X694178Y674055D01*
X694841Y673063D01*
X695833Y672400D01*
X697004Y672167D01*
X698174Y672400D01*
X699167Y673063D01*
X699830Y674055D01*
X700063Y675225D01*
X699830Y676396D01*
X699167Y677388D01*
X698174Y678051D01*
X697004Y678284D01*
D02*
G37*
G36*
X636802Y680961D02*
X635632Y680728D01*
X634640Y680065D01*
X633977Y679073D01*
X633744Y677903D01*
X633977Y676732D01*
X634180Y676427D01*
X633640Y676065D01*
X632977Y675073D01*
X632744Y673903D01*
X632977Y672732D01*
X633640Y671740D01*
X634632Y671077D01*
X635802Y670844D01*
X636973Y671077D01*
X637965Y671740D01*
X638420Y672420D01*
X638633Y672278D01*
X639804Y672045D01*
X640974Y672278D01*
X641168Y672407D01*
X642154Y672855D01*
X643137Y672407D01*
X643332Y672277D01*
X644502Y672044D01*
X645673Y672277D01*
X646665Y672940D01*
X647328Y673932D01*
X647561Y675102D01*
X647328Y676273D01*
X646665Y677265D01*
X645673Y677928D01*
X644502Y678161D01*
X643332Y677928D01*
X643138Y677799D01*
X642152Y677351D01*
X641169Y677800D01*
X640974Y677930D01*
X639810Y678161D01*
X639628Y679073D01*
X638965Y680065D01*
X637973Y680728D01*
X636802Y680961D01*
D02*
G37*
G36*
X843004Y674263D02*
X841833Y674030D01*
X840841Y673367D01*
X840178Y672374D01*
X839945Y671204D01*
X840178Y670033D01*
X840841Y669041D01*
X841833Y668378D01*
X843004Y668145D01*
X844174Y668378D01*
X845167Y669041D01*
X845830Y670033D01*
X846063Y671204D01*
X845830Y672374D01*
X845167Y673367D01*
X844174Y674030D01*
X843004Y674263D01*
D02*
G37*
G36*
X732004Y670063D02*
X730833Y669830D01*
X729841Y669167D01*
X729178Y668174D01*
X728945Y667004D01*
X729178Y665833D01*
X729841Y664841D01*
X730833Y664178D01*
X732004Y663945D01*
X733174Y664178D01*
X734167Y664841D01*
X734830Y665833D01*
X735063Y667004D01*
X734830Y668174D01*
X734167Y669167D01*
X733174Y669830D01*
X732004Y670063D01*
D02*
G37*
G36*
X544064Y670102D02*
X541683Y669789D01*
X539464Y668870D01*
X537559Y667408D01*
X536097Y665503D01*
X535179Y663285D01*
X534865Y660904D01*
X535179Y658523D01*
X536097Y656304D01*
X537559Y654399D01*
X539464Y652937D01*
X541683Y652019D01*
X544064Y651705D01*
X546445Y652019D01*
X548663Y652937D01*
X550568Y654399D01*
X552030Y656304D01*
X552949Y658523D01*
X553262Y660904D01*
X552949Y663285D01*
X552030Y665503D01*
X550568Y667408D01*
X548663Y668870D01*
X546445Y669789D01*
X544064Y670102D01*
D02*
G37*
G36*
X518664D02*
X516283Y669789D01*
X514064Y668870D01*
X512159Y667408D01*
X510698Y665503D01*
X509779Y663285D01*
X509465Y660904D01*
X509779Y658523D01*
X510698Y656304D01*
X512159Y654399D01*
X514064Y652937D01*
X516283Y652019D01*
X518664Y651705D01*
X521045Y652019D01*
X523263Y652937D01*
X525168Y654399D01*
X526630Y656304D01*
X527549Y658523D01*
X527863Y660904D01*
X527549Y663285D01*
X526630Y665503D01*
X525168Y667408D01*
X523263Y668870D01*
X521045Y669789D01*
X518664Y670102D01*
D02*
G37*
G36*
X493264D02*
X490883Y669789D01*
X488665Y668870D01*
X486759Y667408D01*
X485298Y665503D01*
X484379Y663285D01*
X484065Y660904D01*
X484379Y658523D01*
X485298Y656304D01*
X486759Y654399D01*
X488665Y652937D01*
X490883Y652019D01*
X493264Y651705D01*
X495645Y652019D01*
X497863Y652937D01*
X499768Y654399D01*
X501230Y656304D01*
X502149Y658523D01*
X502463Y660904D01*
X502149Y663285D01*
X501230Y665503D01*
X499768Y667408D01*
X497863Y668870D01*
X495645Y669789D01*
X493264Y670102D01*
D02*
G37*
G36*
X467864D02*
X465483Y669789D01*
X463265Y668870D01*
X461359Y667408D01*
X459897Y665503D01*
X458979Y663285D01*
X458665Y660904D01*
X458979Y658523D01*
X459897Y656304D01*
X461359Y654399D01*
X463265Y652937D01*
X465483Y652019D01*
X467864Y651705D01*
X470245Y652019D01*
X472463Y652937D01*
X474368Y654399D01*
X475830Y656304D01*
X476749Y658523D01*
X477062Y660904D01*
X476749Y663285D01*
X475830Y665503D01*
X474368Y667408D01*
X472463Y668870D01*
X470245Y669789D01*
X467864Y670102D01*
D02*
G37*
G36*
X442464D02*
X440083Y669789D01*
X437864Y668870D01*
X435959Y667408D01*
X434497Y665503D01*
X433579Y663285D01*
X433265Y660904D01*
X433579Y658523D01*
X434497Y656304D01*
X435959Y654399D01*
X437864Y652937D01*
X440083Y652019D01*
X442464Y651705D01*
X444845Y652019D01*
X447063Y652937D01*
X448968Y654399D01*
X450430Y656304D01*
X451349Y658523D01*
X451662Y660904D01*
X451349Y663285D01*
X450430Y665503D01*
X448968Y667408D01*
X447063Y668870D01*
X444845Y669789D01*
X442464Y670102D01*
D02*
G37*
G36*
X818204Y652413D02*
X817033Y652180D01*
X816041Y651517D01*
X815378Y650524D01*
X815145Y649354D01*
X815378Y648183D01*
X816041Y647191D01*
X817033Y646528D01*
X818204Y646295D01*
X819374Y646528D01*
X820367Y647191D01*
X821030Y648183D01*
X821263Y649354D01*
X821030Y650524D01*
X820367Y651517D01*
X819374Y652180D01*
X818204Y652413D01*
D02*
G37*
G36*
X869804Y648063D02*
X868633Y647830D01*
X867641Y647167D01*
X866978Y646174D01*
X866745Y645004D01*
X866978Y643833D01*
X867641Y642841D01*
X868633Y642178D01*
X869804Y641945D01*
X870974Y642178D01*
X871967Y642841D01*
X872630Y643833D01*
X872863Y645004D01*
X872630Y646174D01*
X871967Y647167D01*
X870974Y647830D01*
X869804Y648063D01*
D02*
G37*
G36*
X583414Y643963D02*
X582243Y643730D01*
X581251Y643067D01*
X580588Y642074D01*
X580355Y640904D01*
X580588Y639733D01*
X581251Y638741D01*
X582243Y638078D01*
X583414Y637845D01*
X584584Y638078D01*
X585577Y638741D01*
X586240Y639733D01*
X586473Y640904D01*
X586240Y642074D01*
X585577Y643067D01*
X584584Y643730D01*
X583414Y643963D01*
D02*
G37*
G36*
X572174D02*
X571003Y643730D01*
X570011Y643067D01*
X569348Y642074D01*
X569115Y640904D01*
X569348Y639733D01*
X570011Y638741D01*
X571003Y638078D01*
X572174Y637845D01*
X573344Y638078D01*
X574337Y638741D01*
X575000Y639733D01*
X575233Y640904D01*
X575000Y642074D01*
X574337Y643067D01*
X573344Y643730D01*
X572174Y643963D01*
D02*
G37*
G36*
X544064Y644703D02*
X541683Y644389D01*
X539464Y643470D01*
X537559Y642008D01*
X536097Y640103D01*
X535179Y637885D01*
X534865Y635504D01*
X535179Y633123D01*
X536097Y630905D01*
X537559Y628999D01*
X539464Y627537D01*
X541683Y626619D01*
X544064Y626305D01*
X546445Y626619D01*
X548663Y627537D01*
X550568Y628999D01*
X552030Y630905D01*
X552949Y633123D01*
X553262Y635504D01*
X552949Y637885D01*
X552030Y640103D01*
X550568Y642008D01*
X548663Y643470D01*
X546445Y644389D01*
X544064Y644703D01*
D02*
G37*
G36*
X518664D02*
X516283Y644389D01*
X514064Y643470D01*
X512159Y642008D01*
X510698Y640103D01*
X509779Y637885D01*
X509465Y635504D01*
X509779Y633123D01*
X510698Y630905D01*
X512159Y628999D01*
X514064Y627537D01*
X516283Y626619D01*
X518664Y626305D01*
X521045Y626619D01*
X523263Y627537D01*
X525168Y628999D01*
X526630Y630905D01*
X527549Y633123D01*
X527863Y635504D01*
X527549Y637885D01*
X526630Y640103D01*
X525168Y642008D01*
X523263Y643470D01*
X521045Y644389D01*
X518664Y644703D01*
D02*
G37*
G36*
X493264D02*
X490883Y644389D01*
X488665Y643470D01*
X486759Y642008D01*
X485298Y640103D01*
X484379Y637885D01*
X484065Y635504D01*
X484379Y633123D01*
X485298Y630905D01*
X486759Y628999D01*
X488665Y627537D01*
X490883Y626619D01*
X493264Y626305D01*
X495645Y626619D01*
X497863Y627537D01*
X499768Y628999D01*
X501230Y630905D01*
X502149Y633123D01*
X502463Y635504D01*
X502149Y637885D01*
X501230Y640103D01*
X499768Y642008D01*
X497863Y643470D01*
X495645Y644389D01*
X493264Y644703D01*
D02*
G37*
G36*
X467864D02*
X465483Y644389D01*
X463265Y643470D01*
X461359Y642008D01*
X459897Y640103D01*
X458979Y637885D01*
X458665Y635504D01*
X458979Y633123D01*
X459897Y630905D01*
X461359Y628999D01*
X463265Y627537D01*
X465483Y626619D01*
X467864Y626305D01*
X470245Y626619D01*
X472463Y627537D01*
X474368Y628999D01*
X475830Y630905D01*
X476749Y633123D01*
X477062Y635504D01*
X476749Y637885D01*
X475830Y640103D01*
X474368Y642008D01*
X472463Y643470D01*
X470245Y644389D01*
X467864Y644703D01*
D02*
G37*
G36*
X442464D02*
X440083Y644389D01*
X437864Y643470D01*
X435959Y642008D01*
X434497Y640103D01*
X433579Y637885D01*
X433265Y635504D01*
X433579Y633123D01*
X434497Y630905D01*
X435959Y628999D01*
X437864Y627537D01*
X440083Y626619D01*
X442464Y626305D01*
X444845Y626619D01*
X447063Y627537D01*
X448968Y628999D01*
X450430Y630905D01*
X451349Y633123D01*
X451662Y635504D01*
X451349Y637885D01*
X450430Y640103D01*
X448968Y642008D01*
X447063Y643470D01*
X444845Y644389D01*
X442464Y644703D01*
D02*
G37*
G36*
X544064Y619302D02*
X541683Y618989D01*
X539464Y618070D01*
X537559Y616608D01*
X536097Y614703D01*
X535179Y612485D01*
X534865Y610104D01*
X535179Y607723D01*
X536097Y605504D01*
X537559Y603599D01*
X539464Y602137D01*
X541683Y601219D01*
X544064Y600905D01*
X546445Y601219D01*
X548663Y602137D01*
X550568Y603599D01*
X552030Y605504D01*
X552949Y607723D01*
X553262Y610104D01*
X552949Y612485D01*
X552030Y614703D01*
X550568Y616608D01*
X548663Y618070D01*
X546445Y618989D01*
X544064Y619302D01*
D02*
G37*
G36*
X518664D02*
X516283Y618989D01*
X514064Y618070D01*
X512159Y616608D01*
X510698Y614703D01*
X509779Y612485D01*
X509465Y610104D01*
X509779Y607723D01*
X510698Y605504D01*
X512159Y603599D01*
X514064Y602137D01*
X516283Y601219D01*
X518664Y600905D01*
X521045Y601219D01*
X523263Y602137D01*
X525168Y603599D01*
X526630Y605504D01*
X527549Y607723D01*
X527863Y610104D01*
X527549Y612485D01*
X526630Y614703D01*
X525168Y616608D01*
X523263Y618070D01*
X521045Y618989D01*
X518664Y619302D01*
D02*
G37*
G36*
X493264D02*
X490883Y618989D01*
X488665Y618070D01*
X486759Y616608D01*
X485298Y614703D01*
X484379Y612485D01*
X484065Y610104D01*
X484379Y607723D01*
X485298Y605504D01*
X486759Y603599D01*
X488665Y602137D01*
X490883Y601219D01*
X493264Y600905D01*
X495645Y601219D01*
X497863Y602137D01*
X499768Y603599D01*
X501230Y605504D01*
X502149Y607723D01*
X502463Y610104D01*
X502149Y612485D01*
X501230Y614703D01*
X499768Y616608D01*
X497863Y618070D01*
X495645Y618989D01*
X493264Y619302D01*
D02*
G37*
G36*
X467864D02*
X465483Y618989D01*
X463265Y618070D01*
X461359Y616608D01*
X459897Y614703D01*
X458979Y612485D01*
X458665Y610104D01*
X458979Y607723D01*
X459897Y605504D01*
X461359Y603599D01*
X463265Y602137D01*
X465483Y601219D01*
X467864Y600905D01*
X470245Y601219D01*
X472463Y602137D01*
X474368Y603599D01*
X475830Y605504D01*
X476749Y607723D01*
X477062Y610104D01*
X476749Y612485D01*
X475830Y614703D01*
X474368Y616608D01*
X472463Y618070D01*
X470245Y618989D01*
X467864Y619302D01*
D02*
G37*
G36*
X442464D02*
X440083Y618989D01*
X437864Y618070D01*
X435959Y616608D01*
X434497Y614703D01*
X433579Y612485D01*
X433265Y610104D01*
X433579Y607723D01*
X434497Y605504D01*
X435959Y603599D01*
X437864Y602137D01*
X440083Y601219D01*
X442464Y600905D01*
X444845Y601219D01*
X447063Y602137D01*
X448968Y603599D01*
X450430Y605504D01*
X451349Y607723D01*
X451662Y610104D01*
X451349Y612485D01*
X450430Y614703D01*
X448968Y616608D01*
X447063Y618070D01*
X444845Y618989D01*
X442464Y619302D01*
D02*
G37*
G36*
X765904Y600763D02*
X764733Y600530D01*
X763741Y599867D01*
X763078Y598874D01*
X762845Y597704D01*
X763078Y596533D01*
X763741Y595541D01*
X764733Y594878D01*
X765904Y594645D01*
X767074Y594878D01*
X768067Y595541D01*
X768730Y596533D01*
X768963Y597704D01*
X768730Y598874D01*
X768067Y599867D01*
X767074Y600530D01*
X765904Y600763D01*
D02*
G37*
G36*
X914904Y627688D02*
X911473Y627351D01*
X908174Y626350D01*
X905134Y624725D01*
X902470Y622538D01*
X900283Y619873D01*
X898658Y616833D01*
X897657Y613534D01*
X897319Y610104D01*
X897657Y606673D01*
X898658Y603374D01*
X900283Y600334D01*
X902470Y597670D01*
X905134Y595483D01*
X908174Y593858D01*
X911473Y592857D01*
X914904Y592519D01*
X918334Y592857D01*
X921633Y593858D01*
X924673Y595483D01*
X927338Y597670D01*
X929525Y600334D01*
X931150Y603374D01*
X932151Y606673D01*
X932488Y610104D01*
X932151Y613534D01*
X931150Y616833D01*
X929525Y619873D01*
X927338Y622538D01*
X924673Y624725D01*
X921633Y626350D01*
X918334Y627351D01*
X914904Y627688D01*
D02*
G37*
G36*
X809404Y591263D02*
X808233Y591030D01*
X807241Y590367D01*
X806578Y589374D01*
X806345Y588204D01*
X806578Y587033D01*
X807241Y586041D01*
X808233Y585378D01*
X809404Y585145D01*
X810574Y585378D01*
X811567Y586041D01*
X812230Y587033D01*
X812463Y588204D01*
X812230Y589374D01*
X811567Y590367D01*
X810574Y591030D01*
X809404Y591263D01*
D02*
G37*
G36*
X791104Y590963D02*
X789933Y590730D01*
X788941Y590067D01*
X788278Y589074D01*
X788045Y587904D01*
X788278Y586733D01*
X788941Y585741D01*
X789933Y585078D01*
X791104Y584845D01*
X792274Y585078D01*
X793267Y585741D01*
X793930Y586733D01*
X794163Y587904D01*
X793930Y589074D01*
X793267Y590067D01*
X792274Y590730D01*
X791104Y590963D01*
D02*
G37*
G36*
X589204Y577663D02*
X588033Y577430D01*
X587041Y576767D01*
X586378Y575774D01*
X586145Y574604D01*
X586378Y573433D01*
X587041Y572441D01*
X588033Y571778D01*
X589204Y571545D01*
X590374Y571778D01*
X591367Y572441D01*
X592030Y573433D01*
X592263Y574604D01*
X592030Y575774D01*
X591367Y576767D01*
X590374Y577430D01*
X589204Y577663D01*
D02*
G37*
G36*
X783602Y588261D02*
X782432Y588029D01*
X781439Y587365D01*
X780776Y586373D01*
X780544Y585203D01*
X780776Y584032D01*
X781439Y583040D01*
X781835Y582775D01*
X781863Y582694D01*
X781760Y581314D01*
X781241Y580967D01*
X780578Y579974D01*
X780345Y578804D01*
X780578Y577633D01*
X781241Y576641D01*
X782158Y576028D01*
X782233Y575978D01*
X783384Y575749D01*
X783408Y575741D01*
X784387Y574646D01*
X784294Y574177D01*
X784526Y573007D01*
X785189Y572014D01*
X786182Y571351D01*
X787352Y571118D01*
X788523Y571351D01*
X789515Y572014D01*
X790178Y573007D01*
X790411Y574177D01*
X790178Y575348D01*
X789515Y576340D01*
X788598Y576953D01*
X788523Y577003D01*
X787372Y577232D01*
X787348Y577240D01*
X786369Y578335D01*
X786463Y578804D01*
X786230Y579974D01*
X785567Y580967D01*
X785171Y581231D01*
X785143Y581312D01*
X785246Y582693D01*
X785765Y583040D01*
X786428Y584032D01*
X786661Y585203D01*
X786428Y586373D01*
X785765Y587365D01*
X784773Y588029D01*
X783602Y588261D01*
D02*
G37*
G36*
X831204Y572702D02*
X829253Y572314D01*
X827599Y571209D01*
X826494Y569555D01*
X826106Y567604D01*
X826494Y565653D01*
X827599Y563999D01*
X829253Y562894D01*
X831204Y562506D01*
X833155Y562894D01*
X834809Y563999D01*
X835914Y565653D01*
X836302Y567604D01*
X835914Y569555D01*
X834809Y571209D01*
X833155Y572314D01*
X831204Y572702D01*
D02*
G37*
G36*
X574904Y566563D02*
X573733Y566330D01*
X572741Y565667D01*
X572078Y564674D01*
X571845Y563504D01*
X572078Y562333D01*
X572741Y561341D01*
X573733Y560678D01*
X574904Y560445D01*
X576074Y560678D01*
X577067Y561341D01*
X577730Y562333D01*
X577963Y563504D01*
X577730Y564674D01*
X577067Y565667D01*
X576074Y566330D01*
X574904Y566563D01*
D02*
G37*
G36*
X522004Y562963D02*
X520833Y562730D01*
X519841Y562067D01*
X519178Y561074D01*
X518945Y559904D01*
X519178Y558733D01*
X519841Y557741D01*
X520833Y557078D01*
X522004Y556845D01*
X523174Y557078D01*
X524167Y557741D01*
X524830Y558733D01*
X525063Y559904D01*
X524830Y561074D01*
X524167Y562067D01*
X523174Y562730D01*
X522004Y562963D01*
D02*
G37*
G36*
X562304Y558563D02*
X561133Y558330D01*
X560141Y557667D01*
X559478Y556674D01*
X559245Y555504D01*
X559478Y554333D01*
X560141Y553341D01*
X561133Y552678D01*
X562304Y552445D01*
X563474Y552678D01*
X564467Y553341D01*
X565130Y554333D01*
X565363Y555504D01*
X565130Y556674D01*
X564467Y557667D01*
X563474Y558330D01*
X562304Y558563D01*
D02*
G37*
G36*
X523404Y554463D02*
X522233Y554230D01*
X521241Y553567D01*
X520578Y552574D01*
X520345Y551404D01*
X520578Y550233D01*
X521241Y549241D01*
X522233Y548578D01*
X523404Y548345D01*
X524574Y548578D01*
X525567Y549241D01*
X526230Y550233D01*
X526463Y551404D01*
X526230Y552574D01*
X525567Y553567D01*
X524574Y554230D01*
X523404Y554463D01*
D02*
G37*
G36*
X500904Y553563D02*
X499733Y553330D01*
X498741Y552667D01*
X498078Y551674D01*
X497845Y550504D01*
X498078Y549333D01*
X498741Y548341D01*
X499733Y547678D01*
X500904Y547445D01*
X502074Y547678D01*
X503067Y548341D01*
X503730Y549333D01*
X503963Y550504D01*
X503730Y551674D01*
X503067Y552667D01*
X502074Y553330D01*
X500904Y553563D01*
D02*
G37*
G36*
X556204Y541163D02*
X555033Y540930D01*
X554041Y540267D01*
X553378Y539274D01*
X553145Y538104D01*
X553378Y536933D01*
X554041Y535941D01*
X555033Y535278D01*
X556204Y535045D01*
X557374Y535278D01*
X558367Y535941D01*
X559030Y536933D01*
X559263Y538104D01*
X559030Y539274D01*
X558367Y540267D01*
X557374Y540930D01*
X556204Y541163D01*
D02*
G37*
G36*
X791104Y537313D02*
X789933Y537080D01*
X788941Y536417D01*
X788278Y535424D01*
X788045Y534254D01*
X788278Y533083D01*
X788941Y532091D01*
X789933Y531428D01*
X791104Y531195D01*
X792274Y531428D01*
X793267Y532091D01*
X793930Y533083D01*
X794163Y534254D01*
X793930Y535424D01*
X793267Y536417D01*
X792274Y537080D01*
X791104Y537313D01*
D02*
G37*
G36*
X791504Y507453D02*
X790333Y507220D01*
X789341Y506557D01*
X788678Y505565D01*
X788445Y504394D01*
X788678Y503224D01*
X789341Y502231D01*
X790333Y501568D01*
X791504Y501335D01*
X792674Y501568D01*
X793667Y502231D01*
X794330Y503224D01*
X794563Y504394D01*
X794330Y505565D01*
X793667Y506557D01*
X792674Y507220D01*
X791504Y507453D01*
D02*
G37*
G36*
X556304Y503463D02*
X555133Y503230D01*
X554141Y502567D01*
X553478Y501574D01*
X553245Y500404D01*
X553478Y499233D01*
X554141Y498241D01*
X555133Y497578D01*
X556304Y497345D01*
X557474Y497578D01*
X558467Y498241D01*
X559130Y499233D01*
X559363Y500404D01*
X559130Y501574D01*
X558467Y502567D01*
X557474Y503230D01*
X556304Y503463D01*
D02*
G37*
G36*
X791979Y487463D02*
X790808Y487230D01*
X789816Y486567D01*
X789153Y485574D01*
X788920Y484404D01*
X789153Y483233D01*
X789816Y482241D01*
X790808Y481578D01*
X791979Y481345D01*
X793149Y481578D01*
X794141Y482241D01*
X794805Y483233D01*
X795037Y484404D01*
X794805Y485574D01*
X794141Y486567D01*
X793149Y487230D01*
X791979Y487463D01*
D02*
G37*
G36*
X914204Y483721D02*
X911863Y483256D01*
X909878Y481930D01*
X908552Y479945D01*
X908086Y477604D01*
X908552Y475263D01*
X909878Y473278D01*
X911863Y471952D01*
X914204Y471486D01*
X916545Y471952D01*
X918530Y473278D01*
X919856Y475263D01*
X920321Y477604D01*
X919856Y479945D01*
X918530Y481930D01*
X916545Y483256D01*
X914204Y483721D01*
D02*
G37*
G36*
X791979Y477163D02*
X790808Y476930D01*
X789816Y476267D01*
X789153Y475274D01*
X788920Y474104D01*
X789153Y472933D01*
X789816Y471941D01*
X790808Y471278D01*
X791979Y471045D01*
X793149Y471278D01*
X794141Y471941D01*
X794805Y472933D01*
X795037Y474104D01*
X794805Y475274D01*
X794141Y476267D01*
X793149Y476930D01*
X791979Y477163D01*
D02*
G37*
G36*
X568004Y473863D02*
X566833Y473630D01*
X565841Y472967D01*
X565178Y471974D01*
X564945Y470804D01*
X565178Y469633D01*
X565841Y468641D01*
X566833Y467978D01*
X568004Y467745D01*
X569174Y467978D01*
X570167Y468641D01*
X570830Y469633D01*
X571063Y470804D01*
X570830Y471974D01*
X570167Y472967D01*
X569174Y473630D01*
X568004Y473863D01*
D02*
G37*
G36*
X700904Y491304D02*
X673904D01*
Y477304D01*
X678744Y477277D01*
X678991Y477005D01*
X679398Y476396D01*
X679678Y475719D01*
X679821Y475000D01*
X679839Y474634D01*
Y472011D01*
X679806Y471345D01*
X679547Y470038D01*
X679037Y468808D01*
X678426Y467893D01*
X677592Y466968D01*
X622478D01*
X622404Y467043D01*
X622203D01*
X621809Y466965D01*
X621438Y466811D01*
X621104Y466588D01*
X620962Y466446D01*
X620820Y466304D01*
X620597Y465970D01*
X620443Y465599D01*
X620365Y465205D01*
Y458148D01*
X620475Y457594D01*
X620691Y457073D01*
X620691Y457072D01*
X621004Y456603D01*
X621204Y456404D01*
X621204Y456404D01*
X621320Y456288D01*
X622371Y455236D01*
X624845Y453583D01*
X627593Y452445D01*
X630511Y451865D01*
X677145D01*
X682053Y452841D01*
X686675Y454755D01*
X690835Y457535D01*
X692604Y459304D01*
X692604D01*
X693402Y460102D01*
X694185Y461274D01*
X694725Y462576D01*
X694999Y463959D01*
Y474285D01*
X695020Y474703D01*
X695183Y475524D01*
X695504Y476297D01*
X695969Y476993D01*
X696250Y477304D01*
X700904D01*
Y491304D01*
D02*
G37*
G36*
X794004Y455463D02*
X792833Y455230D01*
X791841Y454567D01*
X791178Y453574D01*
X790945Y452404D01*
X791178Y451233D01*
X791841Y450241D01*
X792833Y449578D01*
X794004Y449345D01*
X795174Y449578D01*
X796167Y450241D01*
X796830Y451233D01*
X797063Y452404D01*
X796830Y453574D01*
X796167Y454567D01*
X795174Y455230D01*
X794004Y455463D01*
D02*
G37*
G36*
X724038Y464397D02*
X722867Y464164D01*
X721875Y463501D01*
X721212Y462508D01*
X720979Y461338D01*
X721212Y460167D01*
X721875Y459175D01*
X722315Y458881D01*
X722385Y458478D01*
X722248Y457439D01*
X721541Y456967D01*
X720878Y455974D01*
X720645Y454804D01*
X720878Y453633D01*
X721541Y452641D01*
X721962Y452360D01*
X722033Y452037D01*
X721900Y450907D01*
X721241Y450467D01*
X720578Y449474D01*
X720345Y448304D01*
X720578Y447133D01*
X721241Y446141D01*
X722233Y445478D01*
X723404Y445245D01*
X724574Y445478D01*
X725567Y446141D01*
X726230Y447133D01*
X726463Y448304D01*
X726230Y449474D01*
X725567Y450467D01*
X725146Y450748D01*
X725075Y451070D01*
X725207Y452200D01*
X725867Y452641D01*
X726530Y453633D01*
X726763Y454804D01*
X726530Y455974D01*
X725867Y456967D01*
X725427Y457261D01*
X725357Y457663D01*
X725494Y458703D01*
X726201Y459175D01*
X726864Y460167D01*
X727097Y461338D01*
X726864Y462508D01*
X726201Y463501D01*
X725208Y464164D01*
X724038Y464397D01*
D02*
G37*
G36*
X764354Y449263D02*
X763183Y449030D01*
X762191Y448367D01*
X761528Y447374D01*
X761295Y446204D01*
X761528Y445033D01*
X762191Y444041D01*
X763183Y443378D01*
X764354Y443145D01*
X765524Y443378D01*
X766517Y444041D01*
X767180Y445033D01*
X767413Y446204D01*
X767180Y447374D01*
X766517Y448367D01*
X765524Y449030D01*
X764354Y449263D01*
D02*
G37*
G36*
X639004Y446863D02*
X637833Y446630D01*
X636841Y445967D01*
X636178Y444974D01*
X635945Y443804D01*
X636178Y442633D01*
X636841Y441641D01*
X637833Y440978D01*
X639004Y440745D01*
X640174Y440978D01*
X641167Y441641D01*
X641830Y442633D01*
X642063Y443804D01*
X641830Y444974D01*
X641167Y445967D01*
X640174Y446630D01*
X639004Y446863D01*
D02*
G37*
G36*
X794004Y443163D02*
X792833Y442930D01*
X791841Y442267D01*
X791178Y441274D01*
X790945Y440104D01*
X791178Y438933D01*
X791841Y437941D01*
X792833Y437278D01*
X794004Y437045D01*
X795174Y437278D01*
X796167Y437941D01*
X796830Y438933D01*
X797063Y440104D01*
X796830Y441274D01*
X796167Y442267D01*
X795174Y442930D01*
X794004Y443163D01*
D02*
G37*
G36*
X526503Y442462D02*
X525332Y442229D01*
X524340Y441566D01*
X523677Y440574D01*
X523444Y439403D01*
X523677Y438232D01*
X524340Y437240D01*
X525332Y436577D01*
X526503Y436344D01*
X527673Y436577D01*
X528666Y437240D01*
X529329Y438232D01*
X529562Y439403D01*
X529329Y440574D01*
X528666Y441566D01*
X527673Y442229D01*
X526503Y442462D01*
D02*
G37*
G36*
X467403Y441562D02*
X466232Y441329D01*
X465240Y440666D01*
X464577Y439674D01*
X464344Y438503D01*
X464577Y437332D01*
X465240Y436340D01*
X466232Y435677D01*
X467403Y435444D01*
X468573Y435677D01*
X469566Y436340D01*
X470229Y437332D01*
X470462Y438503D01*
X470229Y439674D01*
X469566Y440666D01*
X468573Y441329D01*
X467403Y441562D01*
D02*
G37*
G36*
X841904Y441163D02*
X840733Y440930D01*
X839741Y440267D01*
X839078Y439274D01*
X838845Y438104D01*
X839078Y436933D01*
X839741Y435941D01*
X840733Y435278D01*
X841904Y435045D01*
X843074Y435278D01*
X844067Y435941D01*
X844730Y436933D01*
X844963Y438104D01*
X844730Y439274D01*
X844067Y440267D01*
X843074Y440930D01*
X841904Y441163D01*
D02*
G37*
G36*
X875885Y433627D02*
X869777Y433627D01*
X869474Y433627D01*
X869320Y433564D01*
X869157Y433596D01*
X868564Y433478D01*
X868425Y433386D01*
X868259D01*
X867700Y433154D01*
X867582Y433036D01*
X867419Y433004D01*
X866916Y432668D01*
X866823Y432529D01*
X866669Y432466D01*
X866456Y432252D01*
X866456Y432252D01*
X846067Y411863D01*
X845979Y411866D01*
X844957Y412218D01*
X844769Y412372D01*
X844630Y413074D01*
X844392Y413431D01*
X844128Y414492D01*
X844430Y415285D01*
X844730Y415733D01*
X844963Y416904D01*
X844730Y418074D01*
X844067Y419067D01*
X843074Y419730D01*
X841904Y419963D01*
X840733Y419730D01*
X839741Y419067D01*
X839078Y418074D01*
X838845Y416904D01*
X839078Y415733D01*
X839316Y415377D01*
X839579Y414316D01*
X839278Y413523D01*
X838978Y413074D01*
X838745Y411904D01*
X838978Y410733D01*
X839641Y409741D01*
X839310Y408435D01*
X839035Y408380D01*
X837964Y408327D01*
X833666Y408327D01*
X832919Y408328D01*
X832765Y408264D01*
X832601Y408297D01*
X831136Y408006D01*
X830998Y407913D01*
X830831Y407913D01*
X829451Y407341D01*
X829333Y407223D01*
X829170Y407191D01*
X827928Y406360D01*
X827836Y406222D01*
X827682Y406158D01*
X827156Y405630D01*
X827156Y405630D01*
X827156Y405630D01*
X827154Y405629D01*
X826924Y405070D01*
X826680Y404482D01*
X826680Y393068D01*
X826744Y392914D01*
X826711Y392751D01*
X826987Y391366D01*
X827079Y391227D01*
Y391061D01*
X827620Y389756D01*
X827737Y389638D01*
X827770Y389475D01*
X828555Y388301D01*
X828693Y388209D01*
X828756Y388055D01*
X829256Y387556D01*
X829921Y386890D01*
X830075Y386826D01*
X830168Y386688D01*
X831733Y385642D01*
X831896Y385609D01*
X832014Y385492D01*
X833754Y384771D01*
X833920D01*
X834058Y384679D01*
X835905Y384311D01*
X836068Y384344D01*
X836222Y384280D01*
X879649D01*
X879803Y384344D01*
X879966Y384311D01*
X880428Y384403D01*
X880566Y384496D01*
X880732D01*
X881167Y384676D01*
X881285Y384793D01*
X881448Y384826D01*
X881839Y385087D01*
X881932Y385226D01*
X882085Y385289D01*
X883179Y386383D01*
X883243Y386537D01*
X883381Y386629D01*
X884838Y388810D01*
X884871Y388973D01*
X884988Y389091D01*
X885992Y391514D01*
Y391680D01*
X886084Y391819D01*
X886596Y394391D01*
X886564Y394554D01*
X886627Y394708D01*
X886627Y396019D01*
X886627Y396019D01*
X886627Y410856D01*
X887897Y411241D01*
X888031Y411041D01*
X889024Y410378D01*
X890194Y410145D01*
X891365Y410378D01*
X892357Y411041D01*
X893020Y412033D01*
X893253Y413204D01*
X893020Y414374D01*
X892783Y414728D01*
X892461Y415669D01*
X892783Y416609D01*
X893020Y416963D01*
X893253Y418134D01*
X893020Y419304D01*
X892357Y420297D01*
X891365Y420960D01*
X890194Y421193D01*
X889024Y420960D01*
X888031Y420297D01*
X887897Y420097D01*
X886627Y420482D01*
Y423027D01*
X886627Y423901D01*
X886564Y424055D01*
X886596Y424218D01*
X886255Y425933D01*
X886163Y426071D01*
Y426237D01*
X885493Y427853D01*
X885376Y427971D01*
X885343Y428134D01*
X884372Y429588D01*
X884234Y429680D01*
X884170Y429834D01*
X883552Y430452D01*
X883552Y430452D01*
X882910Y431094D01*
X882756Y431157D01*
X882664Y431296D01*
X881154Y432305D01*
X880991Y432337D01*
X880873Y432455D01*
X879196Y433150D01*
X879029D01*
X878891Y433242D01*
X877110Y433596D01*
X876947Y433564D01*
X876793Y433627D01*
X875886Y433627D01*
X875885Y433627D01*
D02*
G37*
G36*
X758802Y438162D02*
X757632Y437929D01*
X756639Y437266D01*
X755976Y436273D01*
X755743Y435103D01*
X755976Y433932D01*
X756639Y432940D01*
X757632Y432277D01*
X758802Y432044D01*
X759973Y432277D01*
X760965Y432940D01*
X761628Y433932D01*
X761861Y435103D01*
X761628Y436273D01*
X760965Y437266D01*
X759973Y437929D01*
X758802Y438162D01*
D02*
G37*
G36*
X608997Y465104D02*
X602008D01*
X601942Y465091D01*
X601880Y465065D01*
X601824Y465028D01*
X601800Y465004D01*
X601502Y464706D01*
X601033Y464004D01*
X600710Y463225D01*
X600546Y462398D01*
Y451017D01*
X600529Y450668D01*
X600393Y449984D01*
X600126Y449339D01*
X599738Y448759D01*
X599504Y448501D01*
X599033Y448074D01*
X597977Y447369D01*
X596804Y446883D01*
X595559Y446635D01*
X594924Y446604D01*
X561228D01*
X560173Y446394D01*
X559179Y445982D01*
X558284Y445384D01*
X557904Y445004D01*
X557426Y444526D01*
X556675Y443402D01*
X556158Y442153D01*
X555894Y440828D01*
Y436049D01*
X556110Y434966D01*
X556532Y433945D01*
X557146Y433027D01*
X557536Y432636D01*
X557536D01*
X558734Y431439D01*
X575404D01*
X575429Y431465D01*
X616552D01*
X616844Y431523D01*
X617119Y431636D01*
X617366Y431801D01*
X618325Y432760D01*
X618383Y432847D01*
X618423Y432944D01*
X618443Y433046D01*
Y456598D01*
X610602Y464439D01*
X610114Y464765D01*
X609572Y464989D01*
X608997Y465104D01*
D02*
G37*
G36*
X455704Y448263D02*
X454533Y448030D01*
X453541Y447367D01*
X452878Y446374D01*
X452645Y445204D01*
X452878Y444033D01*
X453541Y443041D01*
X453551Y443034D01*
X453941Y441767D01*
X453278Y440774D01*
X453045Y439604D01*
X453278Y438433D01*
X453862Y437559D01*
X453938Y437422D01*
X453726Y436057D01*
X453441Y435867D01*
X452778Y434874D01*
X452545Y433704D01*
X452778Y432533D01*
X453441Y431541D01*
X454433Y430878D01*
X455604Y430645D01*
X456774Y430878D01*
X457767Y431541D01*
X458430Y432533D01*
X458663Y433704D01*
X458430Y434874D01*
X457846Y435748D01*
X457770Y435886D01*
X457982Y437251D01*
X458267Y437441D01*
X458930Y438433D01*
X459163Y439604D01*
X458930Y440774D01*
X458267Y441767D01*
X458256Y441774D01*
X457867Y443041D01*
X458530Y444033D01*
X458763Y445204D01*
X458530Y446374D01*
X457867Y447367D01*
X456874Y448030D01*
X455704Y448263D01*
D02*
G37*
G36*
X762904Y429863D02*
X761733Y429630D01*
X760904Y429076D01*
X760074Y429630D01*
X758904Y429863D01*
X757733Y429630D01*
X756741Y428967D01*
X756078Y427974D01*
X755845Y426804D01*
X756078Y425633D01*
X756741Y424641D01*
X757733Y423978D01*
X758904Y423745D01*
X760074Y423978D01*
X760904Y424532D01*
X761733Y423978D01*
X762904Y423745D01*
X764074Y423978D01*
X764932Y424551D01*
X764939Y424540D01*
X765932Y423877D01*
X767102Y423644D01*
X768273Y423877D01*
X769265Y424540D01*
X769928Y425532D01*
X770161Y426703D01*
X769928Y427873D01*
X769265Y428866D01*
X768273Y429529D01*
X767102Y429762D01*
X765932Y429529D01*
X765074Y428956D01*
X765067Y428967D01*
X764074Y429630D01*
X762904Y429863D01*
D02*
G37*
G36*
X784802Y432762D02*
X783632Y432529D01*
X782639Y431866D01*
X781976Y430873D01*
X781743Y429703D01*
X781976Y428532D01*
X782639Y427540D01*
X783632Y426877D01*
X784802Y426644D01*
X785973Y426877D01*
X786965Y427540D01*
X787628Y428532D01*
X787861Y429703D01*
X787628Y430873D01*
X786965Y431866D01*
X785973Y432529D01*
X784802Y432762D01*
D02*
G37*
G36*
X490804Y432384D02*
X489633Y432151D01*
X488641Y431488D01*
X487978Y430495D01*
X487745Y429325D01*
X487978Y428154D01*
X488641Y427162D01*
X489633Y426499D01*
X490804Y426266D01*
X491974Y426499D01*
X492967Y427162D01*
X493630Y428154D01*
X493863Y429325D01*
X493630Y430495D01*
X492967Y431488D01*
X491974Y432151D01*
X490804Y432384D01*
D02*
G37*
G36*
X483104Y432263D02*
X481933Y432030D01*
X480941Y431367D01*
X480278Y430374D01*
X480045Y429204D01*
X480278Y428033D01*
X480941Y427041D01*
X481933Y426378D01*
X483104Y426145D01*
X484274Y426378D01*
X485267Y427041D01*
X485930Y428033D01*
X486163Y429204D01*
X485930Y430374D01*
X485267Y431367D01*
X484274Y432030D01*
X483104Y432263D01*
D02*
G37*
G36*
X506004Y436263D02*
X504833Y436030D01*
X503841Y435367D01*
X503178Y434374D01*
X502945Y433204D01*
X503178Y432033D01*
X503801Y431100D01*
X503866Y430968D01*
X504241Y429867D01*
X504008Y429518D01*
X503578Y428874D01*
X503345Y427704D01*
X503578Y426533D01*
X504241Y425541D01*
X505233Y424878D01*
X506404Y424645D01*
X507574Y424878D01*
X508567Y425541D01*
X509230Y426533D01*
X509463Y427704D01*
X509230Y428874D01*
X508606Y429807D01*
X508542Y429939D01*
X508167Y431041D01*
X508400Y431390D01*
X508830Y432033D01*
X509063Y433204D01*
X508830Y434374D01*
X508167Y435367D01*
X507174Y436030D01*
X506004Y436263D01*
D02*
G37*
G36*
X526704Y429113D02*
X525533Y428880D01*
X524541Y428217D01*
X523878Y427224D01*
X523645Y426054D01*
X523878Y424883D01*
X524541Y423891D01*
X525533Y423228D01*
X526704Y422995D01*
X527874Y423228D01*
X528867Y423891D01*
X529530Y424883D01*
X529763Y426054D01*
X529530Y427224D01*
X528867Y428217D01*
X527874Y428880D01*
X526704Y429113D01*
D02*
G37*
G36*
X414904Y421963D02*
X413733Y421730D01*
X412741Y421067D01*
X412078Y420074D01*
X411845Y418904D01*
X412078Y417733D01*
X412741Y416741D01*
X413733Y416078D01*
X414904Y415845D01*
X416074Y416078D01*
X417067Y416741D01*
X417730Y417733D01*
X417963Y418904D01*
X417730Y420074D01*
X417067Y421067D01*
X416074Y421730D01*
X414904Y421963D01*
D02*
G37*
G36*
X766904Y421863D02*
X765733Y421630D01*
X764741Y420967D01*
X764078Y419974D01*
X763845Y418804D01*
X764078Y417633D01*
X764741Y416641D01*
X765733Y415978D01*
X766904Y415745D01*
X768074Y415978D01*
X769067Y416641D01*
X769730Y417633D01*
X769963Y418804D01*
X769730Y419974D01*
X769067Y420967D01*
X768074Y421630D01*
X766904Y421863D01*
D02*
G37*
G36*
X750004Y427763D02*
X748833Y427530D01*
X747841Y426867D01*
X747178Y425874D01*
X746945Y424704D01*
X747178Y423533D01*
X747841Y422541D01*
X747876Y422518D01*
Y420990D01*
X747841Y420967D01*
X747178Y419974D01*
X746945Y418804D01*
X747178Y417633D01*
X747841Y416641D01*
X748833Y415978D01*
X750004Y415745D01*
X751174Y415978D01*
X752167Y416641D01*
X752830Y417633D01*
X753063Y418804D01*
X752830Y419974D01*
X752167Y420967D01*
X752132Y420990D01*
Y422518D01*
X752167Y422541D01*
X752830Y423533D01*
X753063Y424704D01*
X752830Y425874D01*
X752167Y426867D01*
X751174Y427530D01*
X750004Y427763D01*
D02*
G37*
G36*
X424288Y421763D02*
X423117Y421530D01*
X422125Y420867D01*
X421462Y419874D01*
X421229Y418704D01*
X421462Y417533D01*
X422125Y416541D01*
X423117Y415878D01*
X424288Y415645D01*
X425459Y415878D01*
X426451Y416541D01*
X427114Y417533D01*
X427347Y418704D01*
X427114Y419874D01*
X426451Y420867D01*
X425459Y421530D01*
X424288Y421763D01*
D02*
G37*
G36*
X817654Y420813D02*
X816483Y420580D01*
X815491Y419917D01*
X814828Y418924D01*
X814595Y417754D01*
X814828Y416583D01*
X815491Y415591D01*
X815738Y415426D01*
Y413898D01*
X815541Y413767D01*
X814878Y412774D01*
X814645Y411604D01*
X814878Y410433D01*
X815541Y409441D01*
X816533Y408778D01*
X817704Y408545D01*
X818874Y408778D01*
X819867Y409441D01*
X820530Y410433D01*
X820763Y411604D01*
X820530Y412774D01*
X819867Y413767D01*
X819620Y413932D01*
Y415459D01*
X819817Y415591D01*
X820480Y416583D01*
X820713Y417754D01*
X820480Y418924D01*
X819817Y419917D01*
X818824Y420580D01*
X817654Y420813D01*
D02*
G37*
G36*
X781804Y413463D02*
X780633Y413230D01*
X779641Y412567D01*
X778978Y411574D01*
X778745Y410404D01*
X778978Y409233D01*
X779641Y408241D01*
X780633Y407578D01*
X781804Y407345D01*
X782974Y407578D01*
X783967Y408241D01*
X784630Y409233D01*
X784863Y410404D01*
X784630Y411574D01*
X783967Y412567D01*
X782974Y413230D01*
X781804Y413463D01*
D02*
G37*
G36*
X767502Y413962D02*
X766332Y413729D01*
X765339Y413066D01*
X764676Y412074D01*
X764444Y410903D01*
X764676Y409733D01*
X765339Y408740D01*
X766332Y408077D01*
X767502Y407844D01*
X768673Y408077D01*
X769279Y408482D01*
X769441Y408241D01*
X770433Y407578D01*
X771604Y407345D01*
X772774Y407578D01*
X773767Y408241D01*
X774430Y409233D01*
X774663Y410404D01*
X774430Y411574D01*
X773767Y412567D01*
X772774Y413230D01*
X771604Y413463D01*
X770433Y413230D01*
X769827Y412824D01*
X769665Y413066D01*
X768673Y413729D01*
X767502Y413962D01*
D02*
G37*
G36*
X756304Y412563D02*
X755133Y412330D01*
X754141Y411667D01*
X753478Y410674D01*
X753245Y409504D01*
X753478Y408333D01*
X754141Y407341D01*
X755133Y406678D01*
X756304Y406445D01*
X757474Y406678D01*
X758467Y407341D01*
X759130Y408333D01*
X759363Y409504D01*
X759130Y410674D01*
X758467Y411667D01*
X757474Y412330D01*
X756304Y412563D01*
D02*
G37*
G36*
X468804Y412063D02*
X467633Y411830D01*
X466641Y411167D01*
X465978Y410174D01*
X465745Y409004D01*
X465978Y407833D01*
X466641Y406841D01*
X467633Y406178D01*
X468804Y405945D01*
X469974Y406178D01*
X470967Y406841D01*
X471630Y407833D01*
X471863Y409004D01*
X471630Y410174D01*
X470967Y411167D01*
X469974Y411830D01*
X468804Y412063D01*
D02*
G37*
G36*
X744804Y409463D02*
X743633Y409230D01*
X742641Y408567D01*
X741978Y407574D01*
X741745Y406404D01*
X741978Y405233D01*
X742641Y404241D01*
X743633Y403578D01*
X744804Y403345D01*
X745974Y403578D01*
X746967Y404241D01*
X747630Y405233D01*
X747863Y406404D01*
X747630Y407574D01*
X746967Y408567D01*
X745974Y409230D01*
X744804Y409463D01*
D02*
G37*
G36*
X525904Y416063D02*
X524733Y415830D01*
X523741Y415167D01*
X523078Y414174D01*
X522845Y413004D01*
X523078Y411833D01*
X523741Y410841D01*
X524636Y410243D01*
X524730Y409862D01*
X524718Y408886D01*
X523941Y408367D01*
X523278Y407374D01*
X523045Y406204D01*
X523278Y405033D01*
X523941Y404041D01*
X524933Y403378D01*
X526104Y403145D01*
X527274Y403378D01*
X528267Y404041D01*
X528930Y405033D01*
X529163Y406204D01*
X528930Y407374D01*
X528267Y408367D01*
X527371Y408965D01*
X527278Y409346D01*
X527290Y410322D01*
X528067Y410841D01*
X528730Y411833D01*
X528963Y413004D01*
X528730Y414174D01*
X528067Y415167D01*
X527074Y415830D01*
X525904Y416063D01*
D02*
G37*
G36*
X625724Y406716D02*
X624553Y406483D01*
X623561Y405820D01*
X622898Y404828D01*
X622665Y403657D01*
X622898Y402487D01*
X623561Y401495D01*
X624553Y400831D01*
X625724Y400599D01*
X626894Y400831D01*
X627887Y401495D01*
X628550Y402487D01*
X628783Y403657D01*
X628550Y404828D01*
X627887Y405820D01*
X626894Y406483D01*
X625724Y406716D01*
D02*
G37*
G36*
X424004Y402563D02*
X422833Y402330D01*
X421841Y401667D01*
X421178Y400674D01*
X420945Y399504D01*
X421178Y398333D01*
X421841Y397341D01*
X422833Y396678D01*
X424004Y396445D01*
X425174Y396678D01*
X426167Y397341D01*
X426830Y398333D01*
X427063Y399504D01*
X426830Y400674D01*
X426167Y401667D01*
X425174Y402330D01*
X424004Y402563D01*
D02*
G37*
G36*
X473904Y388163D02*
X472733Y387930D01*
X471741Y387267D01*
X471078Y386274D01*
X470845Y385104D01*
X471078Y383933D01*
X471741Y382941D01*
X472733Y382278D01*
X473904Y382045D01*
X475074Y382278D01*
X476067Y382941D01*
X476730Y383933D01*
X476963Y385104D01*
X476730Y386274D01*
X476067Y387267D01*
X475074Y387930D01*
X473904Y388163D01*
D02*
G37*
G36*
X564212Y388043D02*
X563041Y387810D01*
X562049Y387147D01*
X561386Y386154D01*
X561153Y384984D01*
X561386Y383813D01*
X562049Y382821D01*
X563041Y382158D01*
X564212Y381925D01*
X565382Y382158D01*
X566375Y382821D01*
X567038Y383813D01*
X567271Y384984D01*
X567038Y386154D01*
X566375Y387147D01*
X565382Y387810D01*
X564212Y388043D01*
D02*
G37*
G36*
X455904Y405963D02*
X454733Y405730D01*
X453741Y405067D01*
X453078Y404074D01*
X452845Y402904D01*
X453078Y401733D01*
X453741Y400741D01*
X453826Y400684D01*
X453841Y399167D01*
X453178Y398174D01*
X452945Y397004D01*
X453178Y395833D01*
X453841Y394841D01*
X453951Y394767D01*
Y393240D01*
X453841Y393167D01*
X453178Y392174D01*
X452945Y391004D01*
X453178Y389833D01*
X453841Y388841D01*
X454203Y388599D01*
X454244Y387099D01*
X454031Y386957D01*
X453368Y385964D01*
X453135Y384794D01*
X453368Y383623D01*
X454031Y382631D01*
X455023Y381968D01*
X456194Y381735D01*
X457364Y381968D01*
X458357Y382631D01*
X459020Y383623D01*
X459253Y384794D01*
X459020Y385964D01*
X458357Y386957D01*
X457995Y387199D01*
X457954Y388699D01*
X458167Y388841D01*
X458830Y389833D01*
X459063Y391004D01*
X458830Y392174D01*
X458167Y393167D01*
X458057Y393240D01*
Y394767D01*
X458167Y394841D01*
X458830Y395833D01*
X459063Y397004D01*
X458830Y398174D01*
X458167Y399167D01*
X458082Y399224D01*
X458067Y400741D01*
X458730Y401733D01*
X458963Y402904D01*
X458730Y404074D01*
X458067Y405067D01*
X457074Y405730D01*
X455904Y405963D01*
D02*
G37*
G36*
X615954Y386063D02*
X614783Y385830D01*
X613791Y385167D01*
X613128Y384174D01*
X612895Y383004D01*
X613128Y381833D01*
X613791Y380841D01*
X614783Y380178D01*
X615954Y379945D01*
X617124Y380178D01*
X618117Y380841D01*
X618780Y381833D01*
X619013Y383004D01*
X618780Y384174D01*
X618117Y385167D01*
X617124Y385830D01*
X615954Y386063D01*
D02*
G37*
G36*
X779604Y383963D02*
X778433Y383730D01*
X777441Y383067D01*
X776778Y382074D01*
X776545Y380904D01*
X776778Y379733D01*
X777441Y378741D01*
X778433Y378078D01*
X779604Y377845D01*
X780774Y378078D01*
X781767Y378741D01*
X782430Y379733D01*
X782663Y380904D01*
X782430Y382074D01*
X781767Y383067D01*
X780774Y383730D01*
X779604Y383963D01*
D02*
G37*
G36*
X526204Y382063D02*
X525033Y381830D01*
X524041Y381167D01*
X523378Y380174D01*
X523145Y379004D01*
X523378Y377833D01*
X524041Y376841D01*
X525033Y376178D01*
X526204Y375945D01*
X527374Y376178D01*
X528367Y376841D01*
X529030Y377833D01*
X529263Y379004D01*
X529030Y380174D01*
X528367Y381167D01*
X527374Y381830D01*
X526204Y382063D01*
D02*
G37*
G36*
X467404Y376163D02*
X466233Y375930D01*
X465241Y375267D01*
X464578Y374274D01*
X464345Y373104D01*
X464578Y371933D01*
X465241Y370941D01*
X466233Y370278D01*
X467404Y370045D01*
X468574Y370278D01*
X469567Y370941D01*
X470230Y371933D01*
X470463Y373104D01*
X470230Y374274D01*
X469567Y375267D01*
X468574Y375930D01*
X467404Y376163D01*
D02*
G37*
G36*
X625304Y379163D02*
X624133Y378930D01*
X623141Y378267D01*
X622478Y377274D01*
X622245Y376104D01*
X622478Y374933D01*
X623141Y373941D01*
X624133Y373278D01*
X625304Y373045D01*
X625338Y373052D01*
X626444Y372103D01*
X626677Y370933D01*
X627340Y369940D01*
X628332Y369277D01*
X629503Y369044D01*
X630673Y369277D01*
X631665Y369940D01*
X632328Y370933D01*
X632561Y372103D01*
X632328Y373274D01*
X631665Y374266D01*
X630673Y374929D01*
X629503Y375162D01*
X629469Y375155D01*
X628363Y376104D01*
X628130Y377274D01*
X627467Y378267D01*
X626474Y378930D01*
X625304Y379163D01*
D02*
G37*
G36*
X644804Y374963D02*
X643633Y374730D01*
X642641Y374067D01*
X641978Y373074D01*
X641745Y371904D01*
X641978Y370733D01*
X642641Y369741D01*
X643633Y369078D01*
X644804Y368845D01*
X645974Y369078D01*
X646967Y369741D01*
X647630Y370733D01*
X647863Y371904D01*
X647630Y373074D01*
X646967Y374067D01*
X645974Y374730D01*
X644804Y374963D01*
D02*
G37*
G36*
X521504Y369663D02*
X520333Y369430D01*
X519341Y368767D01*
X519339Y368764D01*
X518069D01*
X518067Y368767D01*
X517074Y369430D01*
X515904Y369663D01*
X514733Y369430D01*
X513741Y368767D01*
X513078Y367774D01*
X512845Y366604D01*
X513078Y365433D01*
X513741Y364441D01*
X514733Y363778D01*
X515904Y363545D01*
X517074Y363778D01*
X517892Y364324D01*
X518460Y364444D01*
X518948D01*
X519516Y364324D01*
X520333Y363778D01*
X521504Y363545D01*
X522674Y363778D01*
X523667Y364441D01*
X524823Y363885D01*
X525133Y363678D01*
X526304Y363445D01*
X527474Y363678D01*
X528467Y364341D01*
X529130Y365333D01*
X529363Y366504D01*
X529130Y367674D01*
X528467Y368667D01*
X527474Y369330D01*
X526304Y369563D01*
X525133Y369330D01*
X524141Y368667D01*
X522985Y369222D01*
X522674Y369430D01*
X521504Y369663D01*
D02*
G37*
G36*
X509204Y373763D02*
X508033Y373530D01*
X507041Y372867D01*
X506378Y371874D01*
X506145Y370704D01*
X506378Y369533D01*
X507041Y368541D01*
X508033Y367878D01*
X509204Y367645D01*
X510374Y367878D01*
X511367Y368541D01*
X512030Y369533D01*
X512263Y370704D01*
X512030Y371874D01*
X511367Y372867D01*
X510374Y373530D01*
X509204Y373763D01*
D02*
G37*
G36*
X432304Y358463D02*
X431133Y358230D01*
X430254Y357642D01*
X429374Y358230D01*
X428204Y358463D01*
X427033Y358230D01*
X426041Y357567D01*
X425378Y356574D01*
X425145Y355404D01*
X425378Y354233D01*
X425865Y353504D01*
X425378Y352774D01*
X425145Y351604D01*
X425378Y350433D01*
X426041Y349441D01*
X427033Y348778D01*
X428204Y348545D01*
X429374Y348778D01*
X430329Y349416D01*
X431133Y348878D01*
X432304Y348645D01*
X433474Y348878D01*
X434467Y349541D01*
X435130Y350533D01*
X435363Y351704D01*
X435130Y352874D01*
X434676Y353554D01*
X435130Y354233D01*
X435363Y355404D01*
X435130Y356574D01*
X434467Y357567D01*
X433474Y358230D01*
X432304Y358463D01*
D02*
G37*
G36*
X725804Y356863D02*
X724633Y356630D01*
X723754Y356042D01*
X722874Y356630D01*
X721704Y356863D01*
X720533Y356630D01*
X719541Y355967D01*
X718878Y354974D01*
X718645Y353804D01*
X718072Y353105D01*
X674104D01*
Y296105D01*
X728104D01*
Y348147D01*
X728630Y348933D01*
X728863Y350104D01*
X728630Y351274D01*
X728176Y351954D01*
X728630Y352633D01*
X728863Y353804D01*
X728630Y354974D01*
X727967Y355967D01*
X726974Y356630D01*
X725804Y356863D01*
D02*
G37*
G36*
X796204Y360263D02*
X795033Y360030D01*
X794041Y359367D01*
X793378Y358374D01*
X793145Y357204D01*
X793378Y356033D01*
X794041Y355041D01*
X795033Y354378D01*
X796204Y354145D01*
X797374Y354378D01*
X798367Y355041D01*
X799030Y356033D01*
X799263Y357204D01*
X799030Y358374D01*
X798367Y359367D01*
X797374Y360030D01*
X796204Y360263D01*
D02*
G37*
G36*
X601704Y353963D02*
X600533Y353730D01*
X599541Y353067D01*
X598878Y352074D01*
X598645Y350904D01*
X598878Y349733D01*
X599541Y348741D01*
X600533Y348078D01*
X601704Y347845D01*
X602874Y348078D01*
X603867Y348741D01*
X604530Y349733D01*
X604763Y350904D01*
X604530Y352074D01*
X603867Y353067D01*
X602874Y353730D01*
X601704Y353963D01*
D02*
G37*
G36*
X844945Y347463D02*
X843774Y347230D01*
X842782Y346567D01*
X842119Y345574D01*
X841886Y344404D01*
X842119Y343233D01*
X842782Y342241D01*
X843774Y341578D01*
X844945Y341345D01*
X846115Y341578D01*
X847108Y342241D01*
X847771Y343233D01*
X848004Y344404D01*
X847771Y345574D01*
X847108Y346567D01*
X846115Y347230D01*
X844945Y347463D01*
D02*
G37*
G36*
X491904Y338263D02*
X490733Y338030D01*
X489741Y337367D01*
X489078Y336374D01*
X488845Y335204D01*
X488867Y335093D01*
X487724Y334329D01*
X487274Y334630D01*
X486104Y334863D01*
X484933Y334630D01*
X483941Y333967D01*
X483278Y332974D01*
X483254Y332968D01*
X481940Y332757D01*
X481074Y333335D01*
X479904Y333568D01*
X478733Y333335D01*
X477741Y332672D01*
X477078Y331680D01*
X476845Y330509D01*
X477078Y329339D01*
X477741Y328346D01*
X478733Y327683D01*
X479904Y327450D01*
X481074Y327683D01*
X482067Y328346D01*
X482730Y329339D01*
X482754Y329345D01*
X484068Y329556D01*
X484933Y328978D01*
X486104Y328745D01*
X487274Y328978D01*
X488267Y329641D01*
X488930Y330633D01*
X489163Y331804D01*
X489141Y331915D01*
X490284Y332678D01*
X490733Y332378D01*
X491904Y332145D01*
X493074Y332378D01*
X494067Y333041D01*
X494730Y334033D01*
X494963Y335204D01*
X494730Y336374D01*
X494067Y337367D01*
X493074Y338030D01*
X491904Y338263D01*
D02*
G37*
G36*
X636004Y340163D02*
X634833Y339930D01*
X633841Y339267D01*
X633178Y338274D01*
X632945Y337104D01*
X633178Y335933D01*
X633841Y334941D01*
X634833Y334278D01*
X636004Y334045D01*
X637174Y334278D01*
X638167Y334941D01*
X638830Y335933D01*
X639063Y337104D01*
X638830Y338274D01*
X638167Y339267D01*
X637174Y339930D01*
X636004Y340163D01*
D02*
G37*
G36*
X565004Y338663D02*
X563833Y338430D01*
X562841Y337767D01*
X562178Y336774D01*
X561945Y335604D01*
X562178Y334433D01*
X562841Y333441D01*
X563833Y332778D01*
X565004Y332545D01*
X566174Y332778D01*
X567167Y333441D01*
X567830Y334433D01*
X568063Y335604D01*
X567830Y336774D01*
X567167Y337767D01*
X566174Y338430D01*
X565004Y338663D01*
D02*
G37*
G36*
X557004D02*
X555833Y338430D01*
X554841Y337767D01*
X554178Y336774D01*
X553945Y335604D01*
X554045Y335100D01*
X553833Y333763D01*
X552841Y333100D01*
X552178Y332108D01*
X551945Y330937D01*
X552178Y329767D01*
X552841Y328774D01*
X553833Y328111D01*
X555004Y327879D01*
X556174Y328111D01*
X557167Y328774D01*
X557830Y329767D01*
X558063Y330937D01*
X557962Y331441D01*
X558174Y332778D01*
X559167Y333441D01*
X559830Y334433D01*
X560063Y335604D01*
X559830Y336774D01*
X559167Y337767D01*
X558174Y338430D01*
X557004Y338663D01*
D02*
G37*
G36*
X497704Y332663D02*
X496533Y332430D01*
X495541Y331767D01*
X494878Y330774D01*
X494645Y329604D01*
X494878Y328433D01*
X495541Y327441D01*
X496533Y326778D01*
X497704Y326545D01*
X498874Y326778D01*
X499867Y327441D01*
X500530Y328433D01*
X500763Y329604D01*
X500530Y330774D01*
X499867Y331767D01*
X498874Y332430D01*
X497704Y332663D01*
D02*
G37*
G36*
X547904Y331563D02*
X546733Y331330D01*
X545741Y330667D01*
X545078Y329674D01*
X544845Y328504D01*
X545078Y327333D01*
X545741Y326341D01*
X546733Y325678D01*
X547904Y325445D01*
X549074Y325678D01*
X550067Y326341D01*
X550730Y327333D01*
X550963Y328504D01*
X550730Y329674D01*
X550067Y330667D01*
X549074Y331330D01*
X547904Y331563D01*
D02*
G37*
G36*
X840804Y324813D02*
X839633Y324580D01*
X838641Y323917D01*
X837978Y322924D01*
X837745Y321754D01*
X837978Y320583D01*
X838641Y319591D01*
X839633Y318928D01*
X840804Y318695D01*
X841974Y318928D01*
X842967Y319591D01*
X843630Y320583D01*
X843863Y321754D01*
X843630Y322924D01*
X842967Y323917D01*
X841974Y324580D01*
X840804Y324813D01*
D02*
G37*
G36*
X455803Y326362D02*
X454632Y326129D01*
X453640Y325466D01*
X452977Y324473D01*
X452744Y323303D01*
X452977Y322132D01*
X453640Y321140D01*
Y321068D01*
X452741Y320467D01*
X452078Y319474D01*
X451845Y318304D01*
X452078Y317133D01*
X452741Y316141D01*
X453733Y315478D01*
X454904Y315245D01*
X456074Y315478D01*
X457067Y316141D01*
X457730Y317133D01*
X457963Y318304D01*
X457730Y319474D01*
X457067Y320467D01*
Y320539D01*
X457966Y321140D01*
X458629Y322132D01*
X458862Y323303D01*
X458629Y324473D01*
X457966Y325466D01*
X456974Y326129D01*
X455803Y326362D01*
D02*
G37*
G36*
X914904Y348288D02*
X911473Y347951D01*
X908174Y346950D01*
X905134Y345325D01*
X902470Y343138D01*
X900283Y340473D01*
X898658Y337433D01*
X897657Y334134D01*
X897319Y330704D01*
X897657Y327273D01*
X898658Y323974D01*
X900283Y320934D01*
X902470Y318270D01*
X905134Y316083D01*
X908174Y314458D01*
X911473Y313457D01*
X914904Y313119D01*
X918334Y313457D01*
X921633Y314458D01*
X924673Y316083D01*
X927338Y318270D01*
X929525Y320934D01*
X931150Y323974D01*
X932151Y327273D01*
X932488Y330704D01*
X932151Y334134D01*
X931150Y337433D01*
X929525Y340473D01*
X927338Y343138D01*
X924673Y345325D01*
X921633Y346950D01*
X918334Y347951D01*
X914904Y348288D01*
D02*
G37*
G36*
X515304Y314963D02*
X514133Y314730D01*
X513141Y314067D01*
X512531Y313153D01*
X512015Y313066D01*
X511178Y313051D01*
X510767Y313667D01*
X509774Y314330D01*
X508604Y314563D01*
X507433Y314330D01*
X506441Y313667D01*
X505778Y312674D01*
X505545Y311504D01*
X505778Y310333D01*
X506441Y309341D01*
X507433Y308678D01*
X508604Y308445D01*
X509774Y308678D01*
X510767Y309341D01*
X511377Y310254D01*
X511893Y310342D01*
X512729Y310357D01*
X513141Y309741D01*
X514133Y309078D01*
X515304Y308845D01*
X516474Y309078D01*
X517467Y309741D01*
X518130Y310733D01*
X518363Y311904D01*
X518130Y313074D01*
X517467Y314067D01*
X516474Y314730D01*
X515304Y314963D01*
D02*
G37*
G36*
X832704Y314648D02*
X831533Y314415D01*
X830541Y313752D01*
X829878Y312760D01*
X829645Y311590D01*
X829878Y310419D01*
X830541Y309427D01*
X831533Y308764D01*
X832704Y308531D01*
X833874Y308764D01*
X834867Y309427D01*
X835530Y310419D01*
X835763Y311590D01*
X835530Y312760D01*
X834867Y313752D01*
X833874Y314415D01*
X832704Y314648D01*
D02*
G37*
G36*
X801204Y305163D02*
X800033Y304930D01*
X799041Y304267D01*
X798378Y303274D01*
X798145Y302104D01*
X798378Y300933D01*
X799041Y299941D01*
X800033Y299278D01*
X801204Y299045D01*
X802374Y299278D01*
X803367Y299941D01*
X804030Y300933D01*
X804263Y302104D01*
X804030Y303274D01*
X803367Y304267D01*
X802374Y304930D01*
X801204Y305163D01*
D02*
G37*
G36*
X512604Y298363D02*
X511433Y298130D01*
X510441Y297467D01*
X509778Y296474D01*
X509545Y295304D01*
X509778Y294133D01*
X510441Y293141D01*
X511433Y292478D01*
X512604Y292245D01*
X513774Y292478D01*
X514767Y293141D01*
X515430Y294133D01*
X515662Y295304D01*
X515430Y296474D01*
X514767Y297467D01*
X513774Y298130D01*
X512604Y298363D01*
D02*
G37*
G36*
X688304Y289727D02*
Y281904D01*
X696127D01*
X696046Y282514D01*
X695039Y284947D01*
X693436Y287036D01*
X691347Y288639D01*
X688914Y289646D01*
X688304Y289727D01*
D02*
G37*
G36*
X684304D02*
X683693Y289646D01*
X681261Y288639D01*
X679172Y287036D01*
X677569Y284947D01*
X676561Y282514D01*
X676481Y281904D01*
X684304D01*
Y289727D01*
D02*
G37*
G36*
X662904D02*
Y281904D01*
X670727D01*
X670646Y282514D01*
X669639Y284947D01*
X668036Y287036D01*
X665947Y288639D01*
X663514Y289646D01*
X662904Y289727D01*
D02*
G37*
G36*
X658904D02*
X658293Y289646D01*
X655861Y288639D01*
X653772Y287036D01*
X652169Y284947D01*
X651161Y282514D01*
X651081Y281904D01*
X658904D01*
Y289727D01*
D02*
G37*
G36*
X481604Y286563D02*
X480433Y286330D01*
X479441Y285667D01*
X478778Y284674D01*
X478545Y283504D01*
X478778Y282333D01*
X479441Y281341D01*
X480433Y280678D01*
X481604Y280445D01*
X482774Y280678D01*
X483767Y281341D01*
X484430Y282333D01*
X484663Y283504D01*
X484430Y284674D01*
X483767Y285667D01*
X482774Y286330D01*
X481604Y286563D01*
D02*
G37*
G36*
X771504Y288904D02*
X753504D01*
Y270904D01*
X771504D01*
Y288904D01*
D02*
G37*
G36*
X542904D02*
X524904D01*
Y270904D01*
X542904D01*
Y288904D01*
D02*
G37*
G36*
X889504Y288981D02*
X887154Y288672D01*
X884965Y287765D01*
X883085Y286323D01*
X881642Y284443D01*
X880735Y282253D01*
X880426Y279904D01*
X880735Y277554D01*
X881642Y275365D01*
X883085Y273485D01*
X884965Y272042D01*
X887154Y271136D01*
X889504Y270826D01*
X891853Y271136D01*
X894043Y272042D01*
X895923Y273485D01*
X897365Y275365D01*
X898272Y277554D01*
X898581Y279904D01*
X898272Y282253D01*
X897365Y284443D01*
X895923Y286323D01*
X894043Y287765D01*
X891853Y288672D01*
X889504Y288981D01*
D02*
G37*
G36*
X864104D02*
X861754Y288672D01*
X859565Y287765D01*
X857685Y286323D01*
X856242Y284443D01*
X855335Y282253D01*
X855026Y279904D01*
X855335Y277554D01*
X856242Y275365D01*
X857685Y273485D01*
X859565Y272042D01*
X861754Y271136D01*
X864104Y270826D01*
X866453Y271136D01*
X868643Y272042D01*
X870523Y273485D01*
X871965Y275365D01*
X872872Y277554D01*
X873181Y279904D01*
X872872Y282253D01*
X871965Y284443D01*
X870523Y286323D01*
X868643Y287765D01*
X866453Y288672D01*
X864104Y288981D01*
D02*
G37*
G36*
X838704D02*
X836354Y288672D01*
X834165Y287765D01*
X832285Y286323D01*
X830842Y284443D01*
X829936Y282253D01*
X829626Y279904D01*
X829936Y277554D01*
X830842Y275365D01*
X832285Y273485D01*
X834165Y272042D01*
X836354Y271136D01*
X838704Y270826D01*
X841053Y271136D01*
X843243Y272042D01*
X845123Y273485D01*
X846565Y275365D01*
X847472Y277554D01*
X847781Y279904D01*
X847472Y282253D01*
X846565Y284443D01*
X845123Y286323D01*
X843243Y287765D01*
X841053Y288672D01*
X838704Y288981D01*
D02*
G37*
G36*
X813304D02*
X810954Y288672D01*
X808765Y287765D01*
X806885Y286323D01*
X805442Y284443D01*
X804536Y282253D01*
X804226Y279904D01*
X804536Y277554D01*
X805442Y275365D01*
X806885Y273485D01*
X808765Y272042D01*
X810954Y271136D01*
X813304Y270826D01*
X815653Y271136D01*
X817843Y272042D01*
X819723Y273485D01*
X821165Y275365D01*
X822072Y277554D01*
X822381Y279904D01*
X822072Y282253D01*
X821165Y284443D01*
X819723Y286323D01*
X817843Y287765D01*
X815653Y288672D01*
X813304Y288981D01*
D02*
G37*
G36*
X787904D02*
X785554Y288672D01*
X783365Y287765D01*
X781485Y286323D01*
X780042Y284443D01*
X779136Y282253D01*
X778826Y279904D01*
X779136Y277554D01*
X780042Y275365D01*
X781485Y273485D01*
X783365Y272042D01*
X785554Y271136D01*
X787904Y270826D01*
X790253Y271136D01*
X792443Y272042D01*
X794323Y273485D01*
X795765Y275365D01*
X796672Y277554D01*
X796981Y279904D01*
X796672Y282253D01*
X795765Y284443D01*
X794323Y286323D01*
X792443Y287765D01*
X790253Y288672D01*
X787904Y288981D01*
D02*
G37*
G36*
X711704D02*
X709354Y288672D01*
X707165Y287765D01*
X705285Y286323D01*
X703842Y284443D01*
X702935Y282253D01*
X702626Y279904D01*
X702935Y277554D01*
X703842Y275365D01*
X705285Y273485D01*
X707165Y272042D01*
X709354Y271136D01*
X711704Y270826D01*
X714053Y271136D01*
X716243Y272042D01*
X718123Y273485D01*
X719565Y275365D01*
X720472Y277554D01*
X720781Y279904D01*
X720472Y282253D01*
X719565Y284443D01*
X718123Y286323D01*
X716243Y287765D01*
X714053Y288672D01*
X711704Y288981D01*
D02*
G37*
G36*
X635504D02*
X633154Y288672D01*
X630965Y287765D01*
X629085Y286323D01*
X627642Y284443D01*
X626735Y282253D01*
X626426Y279904D01*
X626735Y277554D01*
X627642Y275365D01*
X629085Y273485D01*
X630965Y272042D01*
X633154Y271136D01*
X635504Y270826D01*
X637853Y271136D01*
X640043Y272042D01*
X641923Y273485D01*
X643365Y275365D01*
X644272Y277554D01*
X644581Y279904D01*
X644272Y282253D01*
X643365Y284443D01*
X641923Y286323D01*
X640043Y287765D01*
X637853Y288672D01*
X635504Y288981D01*
D02*
G37*
G36*
X610104D02*
X607754Y288672D01*
X605565Y287765D01*
X603685Y286323D01*
X602242Y284443D01*
X601335Y282253D01*
X601026Y279904D01*
X601335Y277554D01*
X602242Y275365D01*
X603685Y273485D01*
X605565Y272042D01*
X607754Y271136D01*
X610104Y270826D01*
X612453Y271136D01*
X614643Y272042D01*
X616523Y273485D01*
X617965Y275365D01*
X618872Y277554D01*
X619181Y279904D01*
X618872Y282253D01*
X617965Y284443D01*
X616523Y286323D01*
X614643Y287765D01*
X612453Y288672D01*
X610104Y288981D01*
D02*
G37*
G36*
X584704D02*
X582354Y288672D01*
X580165Y287765D01*
X578285Y286323D01*
X576842Y284443D01*
X575936Y282253D01*
X575626Y279904D01*
X575936Y277554D01*
X576842Y275365D01*
X578285Y273485D01*
X580165Y272042D01*
X582354Y271136D01*
X584704Y270826D01*
X587053Y271136D01*
X589243Y272042D01*
X591123Y273485D01*
X592565Y275365D01*
X593472Y277554D01*
X593781Y279904D01*
X593472Y282253D01*
X592565Y284443D01*
X591123Y286323D01*
X589243Y287765D01*
X587053Y288672D01*
X584704Y288981D01*
D02*
G37*
G36*
X559304D02*
X556954Y288672D01*
X554765Y287765D01*
X552885Y286323D01*
X551442Y284443D01*
X550536Y282253D01*
X550226Y279904D01*
X550536Y277554D01*
X551442Y275365D01*
X552885Y273485D01*
X554765Y272042D01*
X556954Y271136D01*
X559304Y270826D01*
X561653Y271136D01*
X563843Y272042D01*
X565723Y273485D01*
X567165Y275365D01*
X568072Y277554D01*
X568381Y279904D01*
X568072Y282253D01*
X567165Y284443D01*
X565723Y286323D01*
X563843Y287765D01*
X561653Y288672D01*
X559304Y288981D01*
D02*
G37*
G36*
X696127Y277904D02*
X688304D01*
Y270081D01*
X688914Y270161D01*
X691347Y271169D01*
X693436Y272772D01*
X695039Y274861D01*
X696046Y277293D01*
X696127Y277904D01*
D02*
G37*
G36*
X684304D02*
X676481D01*
X676561Y277293D01*
X677569Y274861D01*
X679172Y272772D01*
X681261Y271169D01*
X683693Y270161D01*
X684304Y270081D01*
Y277904D01*
D02*
G37*
G36*
X670727D02*
X662904D01*
Y270081D01*
X663514Y270161D01*
X665947Y271169D01*
X668036Y272772D01*
X669639Y274861D01*
X670646Y277293D01*
X670727Y277904D01*
D02*
G37*
G36*
X658904D02*
X651081D01*
X651161Y277293D01*
X652169Y274861D01*
X653772Y272772D01*
X655861Y271169D01*
X658293Y270161D01*
X658904Y270081D01*
Y277904D01*
D02*
G37*
G36*
X471204Y269463D02*
X470033Y269230D01*
X469041Y268567D01*
X468378Y267574D01*
X468145Y266404D01*
X468378Y265233D01*
X469041Y264241D01*
X470033Y263578D01*
X471204Y263345D01*
X472374Y263578D01*
X473367Y264241D01*
X474030Y265233D01*
X474263Y266404D01*
X474030Y267574D01*
X473367Y268567D01*
X472374Y269230D01*
X471204Y269463D01*
D02*
G37*
%LPD*%
G36*
X875885Y432004D02*
X876793Y432004D01*
X878574Y431650D01*
X880252Y430955D01*
X881762Y429946D01*
X882404Y429304D01*
X882404Y429304D01*
X883022Y428685D01*
X883994Y427232D01*
X884663Y425616D01*
X885004Y423901D01*
X885004Y423027D01*
X885004Y396019D01*
X885004Y396019D01*
X885004Y394708D01*
X884492Y392135D01*
X883488Y389712D01*
X882031Y387531D01*
X881104Y386604D01*
X880937Y386437D01*
X880546Y386176D01*
X880111Y385996D01*
X879649Y385904D01*
X836222D01*
X834375Y386271D01*
X832635Y386992D01*
X831070Y388038D01*
X830404Y388704D01*
X829904Y389203D01*
X829120Y390378D01*
X828579Y391682D01*
X828304Y393068D01*
Y393774D01*
X828304Y404482D01*
D01*
Y404482D01*
Y404482D01*
X828831Y405011D01*
X830073Y405841D01*
X831453Y406413D01*
X832918Y406704D01*
X833665Y406704D01*
X838004Y406704D01*
X838004D01*
X839234Y406764D01*
X841648Y407244D01*
X843922Y408186D01*
X845968Y409553D01*
X846881Y410381D01*
X867604Y431104D01*
X867604Y431104D01*
X867818Y431318D01*
X868321Y431654D01*
X868880Y431886D01*
X869474Y432004D01*
X869777Y432004D01*
X875885Y432004D01*
X875885Y432004D01*
D02*
G37*
D85*
X918354Y411854D02*
D03*
D86*
X899604Y366504D02*
D03*
D87*
X874854Y373904D02*
D03*
D88*
X892404Y458504D02*
D03*
D89*
X874954Y451954D02*
D03*
D116*
X518664Y762504D02*
D03*
X660904Y279904D02*
D03*
X686304D02*
D03*
D118*
X879894Y371994D02*
D03*
Y451874D02*
D03*
D119*
X873694Y368734D02*
D03*
Y455134D02*
D03*
D120*
X924194Y368734D02*
D03*
Y455134D02*
D03*
D121*
X442464Y737104D02*
D03*
X467864D02*
D03*
X493264D02*
D03*
X518664D02*
D03*
X544064D02*
D03*
X518664Y711704D02*
D03*
D123*
X614704Y464704D02*
D03*
X621404Y426804D02*
D03*
X621504Y440504D02*
D03*
Y433604D02*
D03*
X709804Y486404D02*
D03*
X646304Y470404D02*
D03*
X668304Y484704D02*
D03*
X709504Y448254D02*
D03*
X688104Y521037D02*
D03*
X762502Y437103D02*
D03*
X579004Y334904D02*
D03*
X592604Y295904D02*
D03*
X466954Y309404D02*
D03*
X419604Y292704D02*
D03*
X812804Y317404D02*
D03*
X837404Y333204D02*
D03*
X890904Y349404D02*
D03*
X890504Y300604D02*
D03*
X788004Y517804D02*
D03*
X784604Y479004D02*
D03*
X874104Y486504D02*
D03*
X843304Y455304D02*
D03*
X821104Y461804D02*
D03*
X905404Y513804D02*
D03*
X824304Y510304D02*
D03*
X872204Y594404D02*
D03*
X871965Y623504D02*
D03*
X904704Y553504D02*
D03*
X840004D02*
D03*
X809804Y727404D02*
D03*
X696204Y737204D02*
D03*
X587704Y736004D02*
D03*
X530004Y593404D02*
D03*
X486404D02*
D03*
X437504Y593604D02*
D03*
X746804Y679604D02*
D03*
X736304Y675104D02*
D03*
X686504Y634296D02*
D03*
X739804Y575978D02*
D03*
X687304D02*
D03*
X628804Y575745D02*
D03*
X793279Y423804D02*
D03*
X434004Y460604D02*
D03*
X461904Y366204D02*
D03*
X497904Y365504D02*
D03*
X526004Y432904D02*
D03*
X539454Y308804D02*
D03*
X632004Y322304D02*
D03*
X651504Y313704D02*
D03*
X526526Y420604D02*
D03*
X491704Y421004D02*
D03*
X526104Y384984D02*
D03*
X491104D02*
D03*
X479204Y373045D02*
D03*
X482604Y377204D02*
D03*
X580404Y384004D02*
D03*
X569904Y415004D02*
D03*
X449904Y367004D02*
D03*
X469204Y467667D02*
D03*
X569904Y451004D02*
D03*
X756304Y392704D02*
D03*
X892404Y680604D02*
D03*
X857685Y666104D02*
D03*
X565804Y668623D02*
D03*
X565704Y678504D02*
D03*
X934404Y375504D02*
D03*
Y295504D02*
D03*
Y315504D02*
D03*
Y335504D02*
D03*
Y355504D02*
D03*
Y395504D02*
D03*
Y415504D02*
D03*
Y435504D02*
D03*
Y475504D02*
D03*
Y535504D02*
D03*
Y555504D02*
D03*
Y575504D02*
D03*
Y595504D02*
D03*
Y615504D02*
D03*
Y635504D02*
D03*
X909404Y642504D02*
D03*
Y702504D02*
D03*
Y722504D02*
D03*
Y742504D02*
D03*
Y762504D02*
D03*
X872204Y783904D02*
D03*
X852204D02*
D03*
X832204D02*
D03*
X812204D02*
D03*
X792204D02*
D03*
X772204D02*
D03*
X752204D02*
D03*
X732204D02*
D03*
X712204D02*
D03*
X692204D02*
D03*
X672204D02*
D03*
X652204D02*
D03*
X632204D02*
D03*
X612204D02*
D03*
X592204D02*
D03*
X572204D02*
D03*
X552204D02*
D03*
X532204D02*
D03*
X512204D02*
D03*
X492204D02*
D03*
X472204D02*
D03*
X452204D02*
D03*
X432204D02*
D03*
X412204D02*
D03*
X892603Y259304D02*
D03*
X872604D02*
D03*
X852604D02*
D03*
X832604D02*
D03*
X812604D02*
D03*
X792604D02*
D03*
X772604D02*
D03*
X752604D02*
D03*
X732604D02*
D03*
X712604D02*
D03*
X692604D02*
D03*
X672604D02*
D03*
X652604D02*
D03*
X632604D02*
D03*
X612604D02*
D03*
X592604D02*
D03*
X572604D02*
D03*
X552604D02*
D03*
X532604D02*
D03*
X512604D02*
D03*
X472604D02*
D03*
X452604D02*
D03*
X412604D02*
D03*
X392604D02*
D03*
X392204Y303304D02*
D03*
Y313304D02*
D03*
Y323304D02*
D03*
Y333304D02*
D03*
Y343304D02*
D03*
Y353304D02*
D03*
Y363304D02*
D03*
Y373304D02*
D03*
Y383304D02*
D03*
Y393304D02*
D03*
Y403304D02*
D03*
Y413304D02*
D03*
Y423304D02*
D03*
Y433304D02*
D03*
Y443304D02*
D03*
Y453304D02*
D03*
Y463304D02*
D03*
Y473304D02*
D03*
Y483304D02*
D03*
Y493304D02*
D03*
Y783904D02*
D03*
Y774904D02*
D03*
Y744904D02*
D03*
Y734904D02*
D03*
Y724904D02*
D03*
Y714904D02*
D03*
Y704904D02*
D03*
Y694904D02*
D03*
Y684904D02*
D03*
Y674904D02*
D03*
Y664904D02*
D03*
Y654904D02*
D03*
Y644904D02*
D03*
Y614904D02*
D03*
Y604904D02*
D03*
Y594904D02*
D03*
Y584904D02*
D03*
Y574904D02*
D03*
Y564904D02*
D03*
Y554904D02*
D03*
Y544904D02*
D03*
X861104Y382904D02*
D03*
X861075Y440604D02*
D03*
X874504Y382904D02*
D03*
X875004Y438504D02*
D03*
X822282Y411004D02*
D03*
X893404Y426004D02*
D03*
Y398004D02*
D03*
Y383904D02*
D03*
Y437604D02*
D03*
X392204Y534904D02*
D03*
X407804Y534704D02*
D03*
X425404Y534804D02*
D03*
X445106Y534704D02*
D03*
X463004Y532804D02*
D03*
X476704Y522904D02*
D03*
X485804Y512404D02*
D03*
X490304Y500204D02*
D03*
X490504Y488704D02*
D03*
Y478604D02*
D03*
X392204Y503304D02*
D03*
X406104Y503404D02*
D03*
X422704Y503504D02*
D03*
X437604Y503704D02*
D03*
X451004Y502804D02*
D03*
X463404Y500517D02*
D03*
X467404Y488604D02*
D03*
X467525Y478904D02*
D03*
X765804Y316204D02*
D03*
X582704Y449404D02*
D03*
X490604Y467817D02*
D03*
X703104Y701304D02*
D03*
X650504Y429909D02*
D03*
X660304Y338604D02*
D03*
X649604D02*
D03*
X655004D02*
D03*
X770904Y418804D02*
D03*
X703104Y697204D02*
D03*
X822204Y424404D02*
D03*
X841204Y401504D02*
D03*
Y397904D02*
D03*
X837104D02*
D03*
Y401504D02*
D03*
X833004Y397904D02*
D03*
Y401504D02*
D03*
X877194Y398334D02*
D03*
X872694Y425634D02*
D03*
Y400634D02*
D03*
X877194Y423204D02*
D03*
X823104Y339704D02*
D03*
Y344304D02*
D03*
X770704Y316204D02*
D03*
X744704Y349804D02*
D03*
X582104Y426904D02*
D03*
X583204Y470904D02*
D03*
X709704Y500804D02*
D03*
X688504D02*
D03*
X668378Y500404D02*
D03*
X632504Y426852D02*
D03*
X611454D02*
D03*
X598304Y426804D02*
D03*
X682604Y448104D02*
D03*
X667104D02*
D03*
X650504D02*
D03*
X700804Y448004D02*
D03*
X709604Y461304D02*
D03*
X709704Y474504D02*
D03*
X662604Y470904D02*
D03*
X631504Y471004D02*
D03*
X619204D02*
D03*
X600430D02*
D03*
M02*
